<svg width="151" height="150" viewBox="0 0 151 150" fill="none" xmlns="http://www.w3.org/2000/svg">
<rect width="151" height="150" rx="75" fill="#292929"/>
<path d="M58.0282 82.504C62.0882 82.504 64.3282 80.264 64.8042 76.792H61.3322C61.1642 78.416 60.1842 79.816 58.1122 79.816C56.0122 79.816 54.5842 77.912 54.5842 75.196C54.5842 72.228 56.2082 70.604 58.1962 70.604C60.1282 70.604 61.0802 71.948 61.1922 73.488H64.6642C64.3282 70.296 62.1722 67.888 58.1962 67.888C54.2202 67.888 51.1122 70.604 51.1122 75.168C51.1122 79.704 53.6882 82.504 58.0282 82.504ZM73.4227 82.504C77.4827 82.504 79.7227 80.264 80.1987 76.792H76.7267C76.5587 78.416 75.5787 79.816 73.5067 79.816C71.4067 79.816 69.9787 77.912 69.9787 75.196C69.9787 72.228 71.6027 70.604 73.5907 70.604C75.5227 70.604 76.4747 71.948 76.5867 73.488H80.0587C79.7227 70.296 77.5667 67.888 73.5907 67.888C69.6147 67.888 66.5067 70.604 66.5067 75.168C66.5067 79.704 69.0827 82.504 73.4227 82.504ZM82.6852 62.4V82H86.1012V62.4H82.6852ZM95.0358 82.504C98.5638 82.504 100.832 80.6 100.832 77.996C100.832 75.588 99.0678 74.356 96.3798 73.824L94.7278 73.488C92.9918 73.152 92.4598 72.732 92.4598 71.92C92.4598 70.94 93.4398 70.436 94.6998 70.436C96.2398 70.436 97.2198 71.304 97.3318 72.648H100.748C100.664 69.792 98.3678 67.888 94.6998 67.888C91.3398 67.888 89.0998 69.68 89.0998 72.06C89.0998 74.328 90.7238 75.672 93.5798 76.232L95.2318 76.568C96.6878 76.848 97.4718 77.268 97.4718 78.192C97.4718 79.228 96.4918 79.956 94.9518 79.956C93.1318 79.956 92.1238 78.92 92.0398 77.296H88.5678C88.7918 80.488 91.1718 82.504 95.0358 82.504Z" fill="#8E8787"/>
</svg>
