<svg viewBox="0 0 151 150" fill="none" xmlns="http://www.w3.org/2000/svg"><rect width="151" height="150" rx="75" fill="#292929"/><path d="M44.333 82v-3.108H33.945v-5.46h9.548v-3.136h-9.548v-4.788h9.968V62.4H30.277V82h14.056zm2.915-19.6V82h3.416V62.4h-3.416zm6.806 3.864h3.584V62.68h-3.584v3.584zm.084 2.072V82h3.416V68.336h-3.416zM62.99 82l2.296-3.304c.252-.364.532-.84.784-1.288.28.448.588.952.812 1.288L69.009 82h3.892l-4.984-7.056 4.844-6.608h-3.752l-1.96 2.856c-.28.42-.56.84-.84 1.372-.28-.532-.532-.952-.812-1.372l-1.876-2.856h-3.864l4.704 6.72L59.237 82h3.752zm11.655-15.736h3.584V62.68h-3.584v3.584zm.084 2.072V82h3.416V68.336h-3.416zM85.035 82v-6.776c0-2.996 1.54-4.06 3.64-4.06.448 0 .756.056.98.112v-3.304a2.89 2.89 0 00-.728-.084c-2.044 0-3.276 1.372-4.004 2.912.084-.504.112-.924.112-1.428v-1.036h-3.416V82h3.416zm20.672 0v-3.108h-9.856V62.4h-3.668V82h13.524zm9.204.504c5.04 0 7.784-2.66 7.784-6.328 0-3.276-2.408-5.012-5.46-5.6l-3.304-.644c-1.988-.392-3.304-.924-3.304-2.436 0-1.596 1.624-2.492 3.752-2.492 2.912 0 4.2 1.54 4.284 3.332h3.808c-.224-3.808-2.94-6.44-7.868-6.44-4.424 0-7.644 2.436-7.644 5.908 0 3.136 2.408 4.956 5.488 5.544l3.332.644c2.156.392 3.22 1.232 3.22 2.716 0 1.904-1.736 2.688-3.92 2.688-2.604 0-4.816-1.4-5.012-4.116h-3.808c.308 4.368 3.388 7.224 8.652 7.224z" fill="#8E8787"/></svg>