<svg width="151" height="150" viewBox="0 0 151 150" fill="none" xmlns="http://www.w3.org/2000/svg">
<rect width="151" height="150" rx="75" fill="#292929"/>
<path d="M66.2814 82.504C69.9774 82.504 72.3854 80.348 72.6654 77.548H69.1934C68.9694 78.976 67.7654 79.816 66.2814 79.816C64.2094 79.816 62.8374 78.164 62.8094 76.008H72.7494V75.252C72.7494 70.8 70.3414 67.888 66.1694 67.888C62.1934 67.888 59.3094 70.828 59.3094 75.14C59.3094 79.872 62.1934 82.504 66.2814 82.504ZM62.7814 73.544C62.9774 71.752 64.2934 70.436 66.1414 70.436C67.9894 70.436 69.1934 71.696 69.2494 73.544H62.7814ZM75.488 62.4V82H78.904V62.4H75.488ZM87.8386 82.504C91.3666 82.504 93.6346 80.6 93.6346 77.996C93.6346 75.588 91.8706 74.356 89.1826 73.824L87.5306 73.488C85.7946 73.152 85.2626 72.732 85.2626 71.92C85.2626 70.94 86.2426 70.436 87.5026 70.436C89.0426 70.436 90.0226 71.304 90.1346 72.648H93.5506C93.4666 69.792 91.1706 67.888 87.5026 67.888C84.1426 67.888 81.9026 69.68 81.9026 72.06C81.9026 74.328 83.5266 75.672 86.3826 76.232L88.0346 76.568C89.4906 76.848 90.2746 77.268 90.2746 78.192C90.2746 79.228 89.2946 79.956 87.7546 79.956C85.9346 79.956 84.9266 78.92 84.8426 77.296H81.3706C81.5946 80.488 83.9746 82.504 87.8386 82.504Z" fill="#8E8787"/>
</svg>
