<svg width="151" height="150" viewBox="0 0 151 150" fill="none" xmlns="http://www.w3.org/2000/svg">
<rect width="151" height="150" rx="75" fill="#292929"/>
<path d="M30.1774 82V73.992C30.1774 72.088 31.4094 70.604 33.0894 70.604C34.6854 70.604 35.6654 71.864 35.6654 73.88V82H39.0814V73.376C39.0814 70.016 37.2894 67.888 34.2654 67.888C32.1094 67.888 30.8214 68.924 30.0654 70.296C30.1494 69.764 30.1774 69.344 30.1774 68.952V62.4H26.7614V82H30.1774ZM46.4334 82.504C48.7854 82.504 50.1854 81.468 50.9134 80.124C50.8294 80.572 50.7734 80.992 50.7734 81.44V82H53.9374V73.964C53.9374 70.128 52.2574 67.888 48.0854 67.888C44.5574 67.888 42.2334 69.904 42.0094 72.76H45.5374C45.6774 71.332 46.6854 70.436 48.2814 70.436C49.7374 70.436 50.5214 71.276 50.5214 72.228C50.5214 72.9 50.1294 73.292 49.0094 73.46L47.0494 73.712C44.1094 74.104 41.7294 75.168 41.7294 78.248C41.7294 80.936 44.0534 82.504 46.4334 82.504ZM47.3574 79.984C46.1534 79.984 45.2014 79.312 45.2014 78.108C45.2014 76.876 46.2934 76.316 47.8894 76.036L49.0094 75.812C49.8494 75.672 50.3254 75.504 50.6334 75.224V76.708C50.6334 78.64 49.1774 79.984 47.3574 79.984ZM62.7377 82.504C65.2577 82.504 66.4897 81.132 67.0217 80.124C66.9097 80.6 66.9097 80.964 66.9097 81.44V82H70.3257V62.4H66.9097V68.952C66.9097 69.372 66.9097 69.792 67.0217 70.296C66.2377 68.98 64.9217 67.888 62.7937 67.888C59.6017 67.888 56.4937 70.324 56.4937 75.224C56.4937 80.04 59.1257 82.504 62.7377 82.504ZM63.5497 79.816C61.5057 79.816 59.9657 78.024 59.9657 75.196C59.9657 72.48 61.5057 70.604 63.5497 70.604C65.5937 70.604 67.1057 72.396 67.1057 75.196C67.1057 77.94 65.5937 79.816 63.5497 79.816ZM80.0086 82.504C84.1246 82.504 87.0366 79.76 87.0366 75.224C87.0366 70.744 84.1246 67.888 80.0086 67.888C75.9206 67.888 73.0086 70.744 73.0086 75.224C73.0086 79.76 75.8926 82.504 80.0086 82.504ZM80.0086 79.816C77.8806 79.816 76.4806 78.136 76.4806 75.224C76.4806 72.256 77.9366 70.604 80.0086 70.604C82.1086 70.604 83.5646 72.256 83.5646 75.224C83.5646 78.136 82.1366 79.816 80.0086 79.816ZM89.734 62.4V82H93.15V62.4H89.734ZM96.5407 66.264H100.125V62.68H96.5407V66.264ZM96.6247 68.336V82H100.041V68.336H96.6247ZM106.931 82V73.992C106.931 72.088 108.163 70.604 109.843 70.604C111.439 70.604 112.419 71.864 112.419 73.88V82H115.835V73.376C115.835 70.016 114.043 67.888 111.019 67.888C108.863 67.888 107.575 68.924 106.819 70.296C106.903 69.764 106.931 69.344 106.931 68.952V68.336H103.515V82H106.931ZM125.095 82.252C125.963 82.252 126.775 82.112 127.111 82V79.424C126.775 79.48 126.411 79.508 126.075 79.508C124.619 79.508 124.059 78.668 124.059 77.24V71.052H127.419V68.336H124.059V63.408H120.643V68.336H117.535V71.052H120.643V77.744C120.643 80.796 122.183 82.252 125.095 82.252Z" fill="#8E8787"/>
</svg>
