<svg width="151" height="150" viewBox="0 0 151 150" fill="none" xmlns="http://www.w3.org/2000/svg">
<rect width="151" height="150" rx="75" fill="#292929"/>
<path d="M14.3317 82V73.992C14.3317 72.088 15.5637 70.604 17.2437 70.604C18.8397 70.604 19.8197 71.864 19.8197 73.88V82H23.2357V73.376C23.2357 70.016 21.4437 67.888 18.4197 67.888C16.2637 67.888 14.9757 68.924 14.2197 70.296C14.3037 69.764 14.3317 69.344 14.3317 68.952V62.4H10.9157V82H14.3317ZM32.7997 82.504C36.9157 82.504 39.8277 79.76 39.8277 75.224C39.8277 70.744 36.9157 67.888 32.7997 67.888C28.7117 67.888 25.7997 70.744 25.7997 75.224C25.7997 79.76 28.6837 82.504 32.7997 82.504ZM32.7997 79.816C30.6717 79.816 29.2717 78.136 29.2717 75.224C29.2717 72.256 30.7277 70.604 32.7997 70.604C34.8997 70.604 36.3557 72.256 36.3557 75.224C36.3557 78.136 34.9277 79.816 32.7997 79.816ZM45.9411 82V74.048C45.9411 71.92 47.0331 70.604 48.5171 70.604C50.0571 70.604 50.7851 71.92 50.7851 73.908V82H54.2011V74.048C54.2011 71.976 55.3211 70.604 56.8051 70.604C58.2891 70.604 59.0731 71.92 59.0731 73.908V82H62.4891V73.404C62.4891 70.072 60.5571 67.888 57.7851 67.888C55.7971 67.888 54.1451 69.12 53.3611 70.436C52.8571 69.204 51.4851 67.888 49.7771 67.888C47.7611 67.888 46.5011 69.092 45.8291 70.296C45.9131 69.848 45.9411 69.372 45.9411 68.952V68.336H42.5251V82H45.9411ZM72.0099 82.504C75.7059 82.504 78.1139 80.348 78.3939 77.548H74.9219C74.6979 78.976 73.4939 79.816 72.0099 79.816C69.9379 79.816 68.5659 78.164 68.5379 76.008H78.4779V75.252C78.4779 70.8 76.0699 67.888 71.8979 67.888C67.9219 67.888 65.0379 70.828 65.0379 75.14C65.0379 79.872 67.9219 82.504 72.0099 82.504ZM68.5099 73.544C68.7059 71.752 70.0219 70.436 71.8699 70.436C73.7179 70.436 74.9219 71.696 74.9779 73.544H68.5099ZM88.9165 82.504C92.4445 82.504 95.0485 79.816 95.0485 75.224C95.0485 70.66 92.1645 67.888 88.8605 67.888C86.7605 67.888 85.3885 68.868 84.5205 70.296C84.5765 69.848 84.6325 69.428 84.6325 68.952V62.4H81.2165V82H84.6325V81.44C84.6325 80.992 84.6045 80.656 84.5205 80.124C85.2485 81.468 86.6205 82.504 88.9165 82.504ZM87.9925 79.816C85.9205 79.816 84.4365 77.94 84.4365 75.224C84.4365 72.48 85.9205 70.604 87.9925 70.604C90.0925 70.604 91.5765 72.48 91.5765 75.224C91.5765 77.94 90.0925 79.816 87.9925 79.816ZM101.093 82V75.224C101.093 72.228 102.633 71.164 104.733 71.164C105.181 71.164 105.489 71.22 105.713 71.276V67.972C105.489 67.916 105.265 67.888 104.985 67.888C102.941 67.888 101.709 69.26 100.981 70.8C101.065 70.296 101.093 69.876 101.093 69.372V68.336H97.6774V82H101.093ZM113.764 82.504C117.46 82.504 119.868 80.348 120.148 77.548H116.676C116.452 78.976 115.248 79.816 113.764 79.816C111.692 79.816 110.32 78.164 110.292 76.008H120.232V75.252C120.232 70.8 117.824 67.888 113.652 67.888C109.676 67.888 106.792 70.828 106.792 75.14C106.792 79.872 109.676 82.504 113.764 82.504ZM110.264 73.544C110.46 71.752 111.776 70.436 113.624 70.436C115.472 70.436 116.676 71.696 116.732 73.544H110.264ZM129.862 82L132.214 72.676C132.354 72.228 132.494 71.668 132.578 70.968C132.662 71.668 132.802 72.256 132.886 72.676L135.266 82H139.494L143.526 68.336H140.25L137.786 77.604C137.646 78.136 137.534 78.668 137.394 79.368C137.31 78.668 137.17 78.136 137.058 77.604L134.79 68.336H130.254L128.014 77.604C127.874 78.108 127.762 78.668 127.622 79.312C127.538 78.668 127.426 78.108 127.314 77.604L124.822 68.336H121.294L125.466 82H129.862Z" fill="#8E8787"/>
</svg>
