<svg width="151" height="150" viewBox="0 0 151 150" fill="none" xmlns="http://www.w3.org/2000/svg">
<rect width="151" height="150" rx="75" fill="#292929"/>
<path d="M18.8317 62.4V82H22.2477V62.4H18.8317ZM31.1823 82.504C34.7103 82.504 36.9783 80.6 36.9783 77.996C36.9783 75.588 35.2143 74.356 32.5263 73.824L30.8743 73.488C29.1383 73.152 28.6063 72.732 28.6063 71.92C28.6063 70.94 29.5863 70.436 30.8463 70.436C32.3863 70.436 33.3663 71.304 33.4783 72.648H36.8943C36.8103 69.792 34.5143 67.888 30.8463 67.888C27.4863 67.888 25.2463 69.68 25.2463 72.06C25.2463 74.328 26.8703 75.672 29.7263 76.232L31.3783 76.568C32.8343 76.848 33.6183 77.268 33.6183 78.192C33.6183 79.228 32.6383 79.956 31.0983 79.956C29.2783 79.956 28.2703 78.92 28.1863 77.296H24.7143C24.9383 80.488 27.3183 82.504 31.1823 82.504ZM43.1383 87.712V81.44C43.1383 81.048 43.1103 80.684 43.0263 80.124C43.8943 81.524 45.0703 82.504 47.3663 82.504C50.8383 82.504 53.4983 79.676 53.4983 75.252C53.4983 70.912 51.1183 67.888 47.5063 67.888C45.3503 67.888 43.8943 68.84 43.0263 70.296C43.1103 69.736 43.1383 69.372 43.1383 68.952V68.336H39.7223V87.712H43.1383ZM46.5263 79.816C44.4543 79.816 42.9983 77.94 42.9983 75.196C42.9983 72.368 44.4823 70.604 46.5263 70.604C48.7103 70.604 50.0263 72.508 50.0263 75.196C50.0263 77.94 48.6263 79.816 46.5263 79.816ZM63.2113 76.96V73.488H55.9873V76.96H63.2113ZM69.8805 82V74.048C69.8805 71.92 70.9725 70.604 72.4565 70.604C73.9965 70.604 74.7245 71.92 74.7245 73.908V82H78.1405V74.048C78.1405 71.976 79.2605 70.604 80.7445 70.604C82.2285 70.604 83.0125 71.92 83.0125 73.908V82H86.4285V73.404C86.4285 70.072 84.4965 67.888 81.7245 67.888C79.7365 67.888 78.0845 69.12 77.3005 70.436C76.7965 69.204 75.4245 67.888 73.7165 67.888C71.7005 67.888 70.4405 69.092 69.7685 70.296C69.8525 69.848 69.8805 69.372 69.8805 68.952V68.336H66.4645V82H69.8805ZM95.9774 82.504C100.093 82.504 103.005 79.76 103.005 75.224C103.005 70.744 100.093 67.888 95.9774 67.888C91.8894 67.888 88.9774 70.744 88.9774 75.224C88.9774 79.76 91.8614 82.504 95.9774 82.504ZM95.9774 79.816C93.8494 79.816 92.4494 78.136 92.4494 75.224C92.4494 72.256 93.9054 70.604 95.9774 70.604C98.0774 70.604 99.5334 72.256 99.5334 75.224C99.5334 78.136 98.1054 79.816 95.9774 79.816ZM111.191 82.504C113.711 82.504 114.943 81.132 115.475 80.124C115.363 80.6 115.363 80.964 115.363 81.44V82H118.779V62.4H115.363V68.952C115.363 69.372 115.363 69.792 115.475 70.296C114.691 68.98 113.375 67.888 111.247 67.888C108.055 67.888 104.947 70.324 104.947 75.224C104.947 80.04 107.579 82.504 111.191 82.504ZM112.003 79.816C109.959 79.816 108.419 78.024 108.419 75.196C108.419 72.48 109.959 70.604 112.003 70.604C114.047 70.604 115.559 72.396 115.559 75.196C115.559 77.94 114.047 79.816 112.003 79.816ZM128.434 82.504C132.13 82.504 134.538 80.348 134.818 77.548H131.346C131.122 78.976 129.918 79.816 128.434 79.816C126.362 79.816 124.99 78.164 124.962 76.008H134.902V75.252C134.902 70.8 132.494 67.888 128.322 67.888C124.346 67.888 121.462 70.828 121.462 75.14C121.462 79.872 124.346 82.504 128.434 82.504ZM124.934 73.544C125.13 71.752 126.446 70.436 128.294 70.436C130.142 70.436 131.346 71.696 131.402 73.544H124.934Z" fill="#8E8787"/>
</svg>
