<svg width="151" height="150" viewBox="0 0 151 150" fill="none" xmlns="http://www.w3.org/2000/svg">
<rect width="151" height="150" rx="75" fill="#292929"/>
<path d="M16.2379 87.712V81.44C16.2379 81.048 16.2099 80.684 16.1259 80.124C16.9939 81.524 18.1699 82.504 20.4659 82.504C23.9379 82.504 26.5979 79.676 26.5979 75.252C26.5979 70.912 24.2179 67.888 20.6059 67.888C18.4499 67.888 16.9939 68.84 16.1259 70.296C16.2099 69.736 16.2379 69.372 16.2379 68.952V68.336H12.8219V87.712H16.2379ZM19.6259 79.816C17.5539 79.816 16.0979 77.94 16.0979 75.196C16.0979 72.368 17.5819 70.604 19.6259 70.604C21.8099 70.604 23.1259 72.508 23.1259 75.196C23.1259 77.94 21.7259 79.816 19.6259 79.816ZM33.2869 82.504C35.6389 82.504 37.0389 81.468 37.7669 80.124C37.6829 80.572 37.6269 80.992 37.6269 81.44V82H40.7909V73.964C40.7909 70.128 39.1109 67.888 34.9389 67.888C31.4109 67.888 29.0869 69.904 28.8629 72.76H32.3909C32.5309 71.332 33.5389 70.436 35.1349 70.436C36.5909 70.436 37.3749 71.276 37.3749 72.228C37.3749 72.9 36.9829 73.292 35.8629 73.46L33.9029 73.712C30.9629 74.104 28.5829 75.168 28.5829 78.248C28.5829 80.936 30.9069 82.504 33.2869 82.504ZM34.2109 79.984C33.0069 79.984 32.0549 79.312 32.0549 78.108C32.0549 76.876 33.1469 76.316 34.7429 76.036L35.8629 75.812C36.7029 75.672 37.1789 75.504 37.4869 75.224V76.708C37.4869 78.64 36.0309 79.984 34.2109 79.984ZM49.9871 82.252C50.8551 82.252 51.6671 82.112 52.0031 82V79.424C51.6671 79.48 51.3031 79.508 50.9671 79.508C49.5111 79.508 48.9511 78.668 48.9511 77.24V71.052H52.3111V68.336H48.9511V63.408H45.5351V68.336H42.4271V71.052H45.5351V77.744C45.5351 80.796 47.0751 82.252 49.9871 82.252ZM60.5711 82.504C64.6311 82.504 66.8711 80.264 67.3471 76.792H63.8751C63.7071 78.416 62.7271 79.816 60.6551 79.816C58.5551 79.816 57.1271 77.912 57.1271 75.196C57.1271 72.228 58.7511 70.604 60.7391 70.604C62.6711 70.604 63.6231 71.948 63.7351 73.488H67.2071C66.8711 70.296 64.7151 67.888 60.7391 67.888C56.7631 67.888 53.6551 70.604 53.6551 75.168C53.6551 79.704 56.2311 82.504 60.5711 82.504ZM73.2497 82V73.992C73.2497 72.088 74.4817 70.604 76.1617 70.604C77.7577 70.604 78.7377 71.864 78.7377 73.88V82H82.1537V73.376C82.1537 70.016 80.3617 67.888 77.3377 67.888C75.1817 67.888 73.8937 68.924 73.1377 70.296C73.2217 69.764 73.2497 69.344 73.2497 68.952V62.4H69.8337V82H73.2497ZM92.5296 76.96V73.488H85.3056V76.96H92.5296ZM99.1989 87.712V81.44C99.1989 81.048 99.1709 80.684 99.0869 80.124C99.9549 81.524 101.131 82.504 103.427 82.504C106.899 82.504 109.559 79.676 109.559 75.252C109.559 70.912 107.179 67.888 103.567 67.888C101.411 67.888 99.9549 68.84 99.0869 70.296C99.1709 69.736 99.1989 69.372 99.1989 68.952V68.336H95.7829V87.712H99.1989ZM102.587 79.816C100.515 79.816 99.0589 77.94 99.0589 75.196C99.0589 72.368 100.543 70.604 102.587 70.604C104.771 70.604 106.087 72.508 106.087 75.196C106.087 77.94 104.687 79.816 102.587 79.816ZM119.328 74.16L125.012 68.336H120.56L116.64 72.536C116.332 72.872 115.94 73.348 115.66 73.74V62.4H112.244V82H115.66V77.912L117.06 76.484L121.036 82H125.404L119.328 74.16ZM132.376 88.216C136.408 88.216 139.18 86.06 139.18 81.58V68.336H135.764V68.952C135.764 69.456 135.792 69.82 135.876 70.296C135.064 68.868 133.86 67.888 131.452 67.888C128.456 67.888 125.488 70.436 125.488 74.692C125.488 79.004 128.064 81.496 131.62 81.496C133.748 81.496 135.064 80.46 135.876 79.228C135.792 79.76 135.764 80.32 135.764 80.936V82.42C135.764 84.464 134.252 85.528 132.46 85.528C130.612 85.528 129.576 84.576 129.52 82.952H126.048C126.048 86.06 128.344 88.216 132.376 88.216ZM132.488 78.78C130.416 78.78 128.96 77.072 128.96 74.692C128.96 72.312 130.416 70.604 132.488 70.604C134.504 70.604 135.96 72.312 135.96 74.692C135.96 77.072 134.504 78.78 132.488 78.78Z" fill="#8E8787"/>
</svg>
