<svg width="151" height="150" viewBox="0 0 151 150" fill="none" xmlns="http://www.w3.org/2000/svg">
<rect width="151" height="150" rx="75" fill="#292929"/>
<path d="M62.4762 87.712V81.44C62.4762 81.048 62.4482 80.684 62.3642 80.124C63.2322 81.524 64.4082 82.504 66.7042 82.504C70.1762 82.504 72.8362 79.676 72.8362 75.252C72.8362 70.912 70.4562 67.888 66.8442 67.888C64.6882 67.888 63.2322 68.84 62.3642 70.296C62.4482 69.736 62.4762 69.372 62.4762 68.952V68.336H59.0602V87.712H62.4762ZM65.8642 79.816C63.7922 79.816 62.3362 77.94 62.3362 75.196C62.3362 72.368 63.8202 70.604 65.8642 70.604C68.0482 70.604 69.3642 72.508 69.3642 75.196C69.3642 77.94 67.9642 79.816 65.8642 79.816ZM75.5212 62.4V82H78.9372V62.4H75.5212ZM87.8718 82.504C91.3998 82.504 93.6678 80.6 93.6678 77.996C93.6678 75.588 91.9038 74.356 89.2158 73.824L87.5638 73.488C85.8278 73.152 85.2958 72.732 85.2958 71.92C85.2958 70.94 86.2758 70.436 87.5358 70.436C89.0758 70.436 90.0558 71.304 90.1678 72.648H93.5838C93.4998 69.792 91.2038 67.888 87.5358 67.888C84.1758 67.888 81.9358 69.68 81.9358 72.06C81.9358 74.328 83.5598 75.672 86.4158 76.232L88.0678 76.568C89.5238 76.848 90.3078 77.268 90.3078 78.192C90.3078 79.228 89.3278 79.956 87.7878 79.956C85.9678 79.956 84.9598 78.92 84.8758 77.296H81.4038C81.6278 80.488 84.0078 82.504 87.8718 82.504Z" fill="#8E8787"/>
</svg>
