<svg width="151" height="150" viewBox="0 0 151 150" fill="none" xmlns="http://www.w3.org/2000/svg">
<rect width="151" height="150" rx="75" fill="#292929"/>
<path d="M7.39223 87.712V81.44C7.39223 81.048 7.36423 80.684 7.28023 80.124C8.14823 81.524 9.32423 82.504 11.6202 82.504C15.0922 82.504 17.7522 79.676 17.7522 75.252C17.7522 70.912 15.3722 67.888 11.7602 67.888C9.60423 67.888 8.14823 68.84 7.28023 70.296C7.36423 69.736 7.39223 69.372 7.39223 68.952V68.336H3.97623V87.712H7.39223ZM10.7802 79.816C8.70823 79.816 7.25223 77.94 7.25223 75.196C7.25223 72.368 8.73623 70.604 10.7802 70.604C12.9642 70.604 14.2802 72.508 14.2802 75.196C14.2802 77.94 12.8802 79.816 10.7802 79.816ZM23.8532 82V75.224C23.8532 72.228 25.3932 71.164 27.4932 71.164C27.9412 71.164 28.2492 71.22 28.4732 71.276V67.972C28.2492 67.916 28.0252 67.888 27.7452 67.888C25.7012 67.888 24.4692 69.26 23.7412 70.8C23.8252 70.296 23.8532 69.876 23.8532 69.372V68.336H20.4372V82H23.8532ZM36.5236 82.504C40.2196 82.504 42.6276 80.348 42.9076 77.548H39.4356C39.2116 78.976 38.0076 79.816 36.5236 79.816C34.4516 79.816 33.0796 78.164 33.0516 76.008H42.9916V75.252C42.9916 70.8 40.5836 67.888 36.4116 67.888C32.4356 67.888 29.5516 70.828 29.5516 75.14C29.5516 79.872 32.4356 82.504 36.5236 82.504ZM33.0236 73.544C33.2196 71.752 34.5356 70.436 36.3836 70.436C38.2316 70.436 39.4356 71.696 39.4916 73.544H33.0236ZM52.7581 76.96V73.488H45.5341V76.96H52.7581ZM62.1434 82.504C66.2034 82.504 68.4434 80.264 68.9194 76.792H65.4474C65.2794 78.416 64.2994 79.816 62.2274 79.816C60.1274 79.816 58.6994 77.912 58.6994 75.196C58.6994 72.228 60.3234 70.604 62.3114 70.604C64.2434 70.604 65.1954 71.948 65.3074 73.488H68.7794C68.4434 70.296 66.2874 67.888 62.3114 67.888C58.3354 67.888 55.2274 70.604 55.2274 75.168C55.2274 79.704 57.8034 82.504 62.1434 82.504ZM77.6219 82.504C81.7379 82.504 84.6499 79.76 84.6499 75.224C84.6499 70.744 81.7379 67.888 77.6219 67.888C73.5339 67.888 70.6219 70.744 70.6219 75.224C70.6219 79.76 73.5059 82.504 77.6219 82.504ZM77.6219 79.816C75.4939 79.816 74.0939 78.136 74.0939 75.224C74.0939 72.256 75.5499 70.604 77.6219 70.604C79.7219 70.604 81.1779 72.256 81.1779 75.224C81.1779 78.136 79.7499 79.816 77.6219 79.816ZM90.7633 82V74.048C90.7633 71.92 91.8553 70.604 93.3393 70.604C94.8793 70.604 95.6073 71.92 95.6073 73.908V82H99.0233V74.048C99.0233 71.976 100.143 70.604 101.627 70.604C103.111 70.604 103.895 71.92 103.895 73.908V82H107.311V73.404C107.311 70.072 105.379 67.888 102.607 67.888C100.619 67.888 98.9673 69.12 98.1833 70.436C97.6793 69.204 96.3073 67.888 94.5993 67.888C92.5833 67.888 91.3233 69.092 90.6513 70.296C90.7353 69.848 90.7633 69.372 90.7633 68.952V68.336H87.3473V82H90.7633ZM114.06 82V74.048C114.06 71.92 115.152 70.604 116.636 70.604C118.176 70.604 118.904 71.92 118.904 73.908V82H122.32V74.048C122.32 71.976 123.44 70.604 124.924 70.604C126.408 70.604 127.192 71.92 127.192 73.908V82H130.608V73.404C130.608 70.072 128.676 67.888 125.904 67.888C123.916 67.888 122.264 69.12 121.48 70.436C120.976 69.204 119.604 67.888 117.896 67.888C115.88 67.888 114.62 69.092 113.948 70.296C114.032 69.848 114.06 69.372 114.06 68.952V68.336H110.644V82H114.06ZM133.857 66.264H137.441V62.68H133.857V66.264ZM133.941 68.336V82H137.357V68.336H133.941ZM146.88 82.252C147.748 82.252 148.56 82.112 148.896 82V79.424C148.56 79.48 148.196 79.508 147.86 79.508C146.404 79.508 145.844 78.668 145.844 77.24V71.052H149.204V68.336H145.844V63.408H142.428V68.336H139.32V71.052H142.428V77.744C142.428 80.796 143.968 82.252 146.88 82.252Z" fill="#8E8787"/>
</svg>
