<svg viewBox="0 0 200 58" fill="none" xmlns="http://www.w3.org/2000/svg"><path d="M5.076 21.804v-2.63h1.727v-7.936H5.076V8.633h4.7l.715 2.964c.47-1.133 1.065-1.976 1.789-2.53.732-.554 1.624-.83 2.677-.83.444 0 .839.037 1.184.11.345.067.67.162.974.286l-1.184 3.237a5.495 5.495 0 00-.715-.149 5.784 5.784 0 00-.79-.05c-.855 0-1.607.352-2.257 1.055-.642.703-1.13 1.595-1.468 2.679v3.77h2.59v2.629H5.076zm8.87-7.664v-3.845l.579-1.662h2.59l-.727 5.507h-2.443zM23.653 8.635v9.016c0 .637.115 1.075.345 1.315.239.24.568.36.987.36.403 0 .806-.129 1.209-.385s.74-.604 1.011-1.042V8.635h3.898v13.17H27.7l-.173-1.537a4.209 4.209 0 01-1.752 1.463 5.4 5.4 0 01-2.27.496c-1.266 0-2.207-.368-2.824-1.104-.617-.744-.925-1.74-.925-2.988v-9.5h3.898zM39.812 19.423c.65 0 1.172-.103 1.567-.31.402-.207.604-.517.604-.93 0-.281-.078-.517-.234-.707-.157-.19-.457-.372-.901-.546-.444-.174-1.102-.38-1.974-.62a9.971 9.971 0 01-2.121-.818c-.609-.331-1.086-.757-1.431-1.278-.337-.52-.506-1.17-.506-1.947 0-.785.218-1.484.654-2.096.436-.612 1.077-1.091 1.924-1.438.847-.356 1.883-.534 3.109-.534 1.167 0 2.183.153 3.047.46.871.297 1.624.677 2.257 1.14l-1.554 2.307A7.676 7.676 0 0042.5 11.3a5.977 5.977 0 00-1.887-.31c-.633 0-1.106.086-1.419.26-.304.165-.456.418-.456.757 0 .223.078.417.234.582.165.158.469.323.913.497.444.165 1.094.372 1.949.62.847.24 1.583.516 2.208.83.633.315 1.122.736 1.468 1.266.345.52.518 1.21.518 2.07 0 .96-.284 1.766-.851 2.42-.568.644-1.32 1.128-2.258 1.45-.937.323-1.965.484-3.083.484-1.267 0-2.385-.182-3.356-.546-.97-.364-1.797-.843-2.479-1.439l1.961-2.207c.51.397 1.086.728 1.727.992.65.265 1.357.397 2.122.397zM61.153 21.036c-.51.33-1.127.612-1.85.843-.724.232-1.538.348-2.443.348-1.71 0-2.981-.438-3.812-1.315-.83-.884-1.245-2.083-1.245-3.596v-5.978h-2.751V8.634h2.75V5.782L55.7 5.31v3.323h4.22l-.383 2.704H55.7v5.978c0 .653.148 1.12.445 1.401.296.281.768.422 1.418.422a4.6 4.6 0 001.258-.162c.387-.115.732-.26 1.037-.434l1.295 2.493zM67.086 19.46c0-.503.123-.962.37-1.376.247-.421.58-.756 1-1.004.419-.256.88-.385 1.38-.385.51 0 .971.128 1.382.385.42.248.753.583 1 1.004.246.414.37.873.37 1.377 0 .496-.124.955-.37 1.377-.247.421-.58.756-1 1.004a2.559 2.559 0 01-1.381.385c-.502 0-.962-.129-1.382-.385a2.779 2.779 0 01-.999-1.004 2.678 2.678 0 01-.37-1.377z" fill="#8E8787"/><path d="M199.55 27.992H72.72v29.549h126.83V27.992z" fill="#8E8787" stroke="#8E8787" stroke-width=".392"/><path d="M89.683 46.279c0 .496.066.855.198 1.079.14.223.361.392.666.508l-.802 2.58c-.773-.075-1.427-.244-1.961-.509a2.977 2.977 0 01-1.246-1.228 4.56 4.56 0 01-1.925 1.352 6.838 6.838 0 01-2.393.434c-1.348 0-2.426-.384-3.231-1.153-.798-.777-1.197-1.773-1.197-2.989 0-1.43.555-2.534 1.665-3.311 1.119-.777 2.69-1.166 4.712-1.166h1.764v-.496c0-.686-.222-1.195-.666-1.526-.436-.33-1.077-.496-1.924-.496-.42 0-.958.062-1.616.186-.658.116-1.316.286-1.974.509l-.9-2.604a14.837 14.837 0 012.64-.732c.92-.166 1.743-.248 2.467-.248 1.949 0 3.388.4 4.317 1.203.938.794 1.406 1.943 1.406 3.448v5.159zm-6.118 1.413c.42 0 .86-.123 1.32-.372.46-.256.81-.615 1.048-1.078v-2.134h-.962c-1.085 0-1.883.17-2.393.509-.51.33-.765.818-.765 1.463 0 .505.152.901.457 1.19.312.282.744.422 1.295.422zM93.458 50.074V36.903h3.404l.272 1.525c.584-.661 1.2-1.153 1.85-1.476.65-.322 1.39-.483 2.221-.483 1.118 0 1.998.343 2.639 1.03.642.685.962 1.653.962 2.901v9.674h-3.897v-8.545c0-.538-.037-.964-.111-1.278-.075-.322-.206-.55-.395-.682-.181-.14-.432-.21-.753-.21-.271 0-.538.061-.802.185a2.95 2.95 0 00-.752.509 6.484 6.484 0 00-.74.806v9.215h-3.898zM119.288 46.279c0 .496.065.855.197 1.079.14.223.362.392.666.508l-.802 2.58c-.773-.075-1.426-.244-1.961-.509a2.978 2.978 0 01-1.246-1.228 4.556 4.556 0 01-1.924 1.352 6.838 6.838 0 01-2.393.434c-1.349 0-2.426-.384-3.232-1.153-.798-.777-1.197-1.773-1.197-2.989 0-1.43.556-2.534 1.666-3.311 1.118-.777 2.689-1.166 4.712-1.166h1.764v-.496c0-.686-.222-1.195-.666-1.526-.436-.33-1.078-.496-1.925-.496-.419 0-.958.062-1.616.186-.657.116-1.315.286-1.973.509l-.901-2.604a14.832 14.832 0 012.64-.732c.921-.166 1.743-.248 2.467-.248 1.949 0 3.388.4 4.317 1.203.938.794 1.407 1.943 1.407 3.448v5.159zm-6.119 1.413c.42 0 .86-.123 1.32-.372.461-.256.81-.615 1.049-1.078v-2.134h-.962c-1.086 0-1.884.17-2.393.509-.51.33-.765.818-.765 1.463 0 .505.152.901.456 1.19.313.282.744.422 1.295.422zM129.897 31.668V45.93c0 .53.148.91.444 1.141.304.223.719.335 1.246.335.337 0 .662-.037.974-.112a7.8 7.8 0 00.876-.285l.937 2.617a8.268 8.268 0 01-1.603.608c-.625.173-1.353.26-2.184.26-1.579 0-2.738-.455-3.478-1.364-.74-.918-1.11-2.146-1.11-3.684v-11.1h-3.861v-2.678h7.759zM150.25 36.9l-4.367 13.171c-.386 1.166-.9 2.142-1.542 2.927a6.31 6.31 0 01-2.38 1.836c-.946.43-2.085.682-3.417.756l-.444-2.766c.863-.107 1.558-.268 2.084-.483.535-.215.962-.509 1.283-.88.329-.365.613-.828.851-1.39h-1.332l-4.157-13.17h4.12l2.541 10.665 2.763-10.666h3.997zM157.318 47.107h6.562l-.37 2.964h-10.793v-2.765l6.501-7.454h-5.958V36.9h10.497v2.754l-6.439 7.453zM170.849 44.63c.09.718.275 1.301.555 1.748.288.438.654.76 1.098.967.444.199.941.298 1.492.298.601 0 1.181-.1 1.74-.298a7.922 7.922 0 001.616-.794l1.566 2.134c-.617.529-1.365.963-2.245 1.302-.872.339-1.867.508-2.985.508-1.497 0-2.751-.297-3.762-.893a5.764 5.764 0 01-2.282-2.48c-.51-1.05-.765-2.257-.765-3.621 0-1.298.247-2.477.74-3.535a6.014 6.014 0 012.159-2.542c.954-.637 2.117-.955 3.491-.955 1.25 0 2.331.268 3.244.806.921.537 1.632 1.31 2.134 2.319.51 1.009.765 2.22.765 3.634 0 .223-.009.463-.025.72a7.362 7.362 0 01-.049.681h-8.487zm2.418-5.532c-.699 0-1.263.252-1.69.757-.428.504-.687 1.31-.777 2.418h4.81c-.007-.96-.192-1.728-.555-2.307-.362-.579-.958-.868-1.788-.868zM182.396 50.074v-2.63h1.726v-7.937h-1.726v-2.604h4.699l.716 2.964c.468-1.133 1.065-1.976 1.788-2.53.732-.554 1.624-.831 2.677-.831.444 0 .839.037 1.184.111.346.067.671.162.975.286l-1.184 3.237a5.523 5.523 0 00-.716-.15 5.754 5.754 0 00-.789-.049c-.856 0-1.608.352-2.258 1.054-.641.703-1.13 1.596-1.468 2.68v3.77h2.591v2.629h-8.215zm8.869-7.665v-3.844l.579-1.662h2.591l-.728 5.506h-2.442z" fill="#161616"/></svg>