<svg width="151" height="150" viewBox="0 0 151 150" fill="none" xmlns="http://www.w3.org/2000/svg">
<rect width="151" height="150" rx="75" fill="#292929"/>
<path d="M15.5476 82.504C19.0756 82.504 21.3436 80.6 21.3436 77.996C21.3436 75.588 19.5796 74.356 16.8916 73.824L15.2396 73.488C13.5036 73.152 12.9716 72.732 12.9716 71.92C12.9716 70.94 13.9516 70.436 15.2116 70.436C16.7516 70.436 17.7316 71.304 17.8436 72.648H21.2596C21.1756 69.792 18.8796 67.888 15.2116 67.888C11.8516 67.888 9.61156 69.68 9.61156 72.06C9.61156 74.328 11.2356 75.672 14.0916 76.232L15.7436 76.568C17.1996 76.848 17.9836 77.268 17.9836 78.192C17.9836 79.228 17.0036 79.956 15.4636 79.956C13.6436 79.956 12.6356 78.92 12.5516 77.296H9.07956C9.30356 80.488 11.6836 82.504 15.5476 82.504ZM27.5036 82V73.992C27.5036 72.088 28.7356 70.604 30.4156 70.604C32.0116 70.604 32.9916 71.864 32.9916 73.88V82H36.4076V73.376C36.4076 70.016 34.6156 67.888 31.5916 67.888C29.4356 67.888 28.1476 68.924 27.3916 70.296C27.4756 69.764 27.5036 69.344 27.5036 68.952V62.4H24.0876V82H27.5036ZM45.9435 82.504C49.6395 82.504 52.0475 80.348 52.3275 77.548H48.8555C48.6315 78.976 47.4275 79.816 45.9435 79.816C43.8715 79.816 42.4995 78.164 42.4715 76.008H52.4115V75.252C52.4115 70.8 50.0035 67.888 45.8315 67.888C41.8555 67.888 38.9715 70.828 38.9715 75.14C38.9715 79.872 41.8555 82.504 45.9435 82.504ZM42.4435 73.544C42.6395 71.752 43.9555 70.436 45.8035 70.436C47.6515 70.436 48.8555 71.696 48.9115 73.544H42.4435ZM55.1501 62.4V82H58.5661V62.4H55.1501ZM62.0407 62.4V82H65.4567V62.4H62.0407ZM75.0633 82.504C79.1233 82.504 81.3633 80.264 81.8393 76.792H78.3673C78.1993 78.416 77.2193 79.816 75.1473 79.816C73.0473 79.816 71.6193 77.912 71.6193 75.196C71.6193 72.228 73.2433 70.604 75.2313 70.604C77.1633 70.604 78.1153 71.948 78.2273 73.488H81.6993C81.3633 70.296 79.2073 67.888 75.2313 67.888C71.2553 67.888 68.1473 70.604 68.1473 75.168C68.1473 79.704 70.7233 82.504 75.0633 82.504ZM87.7418 82V73.992C87.7418 72.088 88.9738 70.604 90.6538 70.604C92.2498 70.604 93.2298 71.864 93.2298 73.88V82H96.6458V73.376C96.6458 70.016 94.8538 67.888 91.8298 67.888C89.6738 67.888 88.3858 68.924 87.6298 70.296C87.7138 69.764 87.7418 69.344 87.7418 68.952V62.4H84.3258V82H87.7418ZM106.182 82.504C109.878 82.504 112.286 80.348 112.566 77.548H109.094C108.87 78.976 107.666 79.816 106.182 79.816C104.11 79.816 102.738 78.164 102.71 76.008H112.65V75.252C112.65 70.8 110.242 67.888 106.07 67.888C102.094 67.888 99.2098 70.828 99.2098 75.14C99.2098 79.872 102.094 82.504 106.182 82.504ZM102.682 73.544C102.878 71.752 104.194 70.436 106.042 70.436C107.89 70.436 109.094 71.696 109.15 73.544H102.682ZM121.52 82.504C125.58 82.504 127.82 80.264 128.296 76.792H124.824C124.656 78.416 123.676 79.816 121.604 79.816C119.504 79.816 118.076 77.912 118.076 75.196C118.076 72.228 119.7 70.604 121.688 70.604C123.62 70.604 124.572 71.948 124.684 73.488H128.156C127.82 70.296 125.664 67.888 121.688 67.888C117.712 67.888 114.604 70.604 114.604 75.168C114.604 79.704 117.18 82.504 121.52 82.504ZM137.867 74.16L143.551 68.336H139.099L135.179 72.536C134.871 72.872 134.479 73.348 134.199 73.74V62.4H130.783V82H134.199V77.912L135.599 76.484L139.575 82H143.943L137.867 74.16Z" fill="#8E8787"/>
</svg>
