<svg width="151" height="150" viewBox="0 0 151 150" fill="none" xmlns="http://www.w3.org/2000/svg">
<rect width="151" height="150" rx="75" fill="#292929"/>
<path d="M39.6254 82L44.6374 68.336H41.1094L38.1414 77.352C37.9454 77.94 37.8054 78.416 37.6654 79.116C37.4974 78.416 37.3854 77.94 37.1614 77.352L34.1654 68.336H30.4974L35.6494 82H39.6254ZM46.4743 66.264H50.0583V62.68H46.4743V66.264ZM46.5583 68.336V82H49.9743V68.336H46.5583ZM56.8649 82V74.048C56.8649 71.92 57.9569 70.604 59.4409 70.604C60.9809 70.604 61.7089 71.92 61.7089 73.908V82H65.1249V74.048C65.1249 71.976 66.2449 70.604 67.7289 70.604C69.2129 70.604 69.9969 71.92 69.9969 73.908V82H73.4129V73.404C73.4129 70.072 71.4809 67.888 68.7089 67.888C66.7209 67.888 65.0689 69.12 64.2849 70.436C63.7809 69.204 62.4089 67.888 60.7009 67.888C58.6849 67.888 57.4249 69.092 56.7529 70.296C56.8369 69.848 56.8649 69.372 56.8649 68.952V68.336H53.4489V82H56.8649ZM83.7738 76.96V73.488H76.5498V76.96H83.7738ZM87.027 62.4V82H90.443V62.4H87.027ZM99.3776 82.504C102.906 82.504 105.174 80.6 105.174 77.996C105.174 75.588 103.41 74.356 100.722 73.824L99.0696 73.488C97.3336 73.152 96.8016 72.732 96.8016 71.92C96.8016 70.94 97.7816 70.436 99.0416 70.436C100.582 70.436 101.562 71.304 101.674 72.648H105.09C105.006 69.792 102.71 67.888 99.0416 67.888C95.6816 67.888 93.4416 69.68 93.4416 72.06C93.4416 74.328 95.0656 75.672 97.9216 76.232L99.5736 76.568C101.03 76.848 101.814 77.268 101.814 78.192C101.814 79.228 100.834 79.956 99.2936 79.956C97.4736 79.956 96.4656 78.92 96.3816 77.296H92.9096C93.1336 80.488 95.5136 82.504 99.3776 82.504ZM111.334 87.712V81.44C111.334 81.048 111.306 80.684 111.222 80.124C112.09 81.524 113.266 82.504 115.562 82.504C119.034 82.504 121.694 79.676 121.694 75.252C121.694 70.912 119.314 67.888 115.702 67.888C113.546 67.888 112.09 68.84 111.222 70.296C111.306 69.736 111.334 69.372 111.334 68.952V68.336H107.918V87.712H111.334ZM114.722 79.816C112.65 79.816 111.194 77.94 111.194 75.196C111.194 72.368 112.678 70.604 114.722 70.604C116.906 70.604 118.222 72.508 118.222 75.196C118.222 77.94 116.822 79.816 114.722 79.816Z" fill="#8E8787"/>
</svg>
