<svg width="151" height="150" viewBox="0 0 151 150" fill="none" xmlns="http://www.w3.org/2000/svg">
<rect width="151" height="150" rx="75" fill="#292929"/>
<path d="M33.9648 87.712L41.1608 68.336H37.5768L34.8048 77.156C34.6648 77.632 34.4968 78.136 34.3848 78.78C34.2448 78.136 34.1048 77.632 33.9368 77.156L31.0248 68.336H27.1888L32.5368 81.888L30.3248 87.712H33.9648ZM46.7068 82.504C49.0588 82.504 50.4588 81.468 51.1868 80.124C51.1028 80.572 51.0468 80.992 51.0468 81.44V82H54.2108V73.964C54.2108 70.128 52.5308 67.888 48.3588 67.888C44.8308 67.888 42.5068 69.904 42.2828 72.76H45.8108C45.9508 71.332 46.9588 70.436 48.5548 70.436C50.0108 70.436 50.7948 71.276 50.7948 72.228C50.7948 72.9 50.4028 73.292 49.2828 73.46L47.3228 73.712C44.3828 74.104 42.0028 75.168 42.0028 78.248C42.0028 80.936 44.3268 82.504 46.7068 82.504ZM47.6308 79.984C46.4268 79.984 45.4748 79.312 45.4748 78.108C45.4748 76.876 46.5668 76.316 48.1628 76.036L49.2828 75.812C50.1228 75.672 50.5988 75.504 50.9068 75.224V76.708C50.9068 78.64 49.4508 79.984 47.6308 79.984ZM60.9391 82V74.048C60.9391 71.92 62.0311 70.604 63.5151 70.604C65.0551 70.604 65.7831 71.92 65.7831 73.908V82H69.1991V74.048C69.1991 71.976 70.3191 70.604 71.8031 70.604C73.2871 70.604 74.0711 71.92 74.0711 73.908V82H77.4871V73.404C77.4871 70.072 75.5551 67.888 72.7831 67.888C70.7951 67.888 69.1431 69.12 68.3591 70.436C67.8551 69.204 66.4831 67.888 64.7751 67.888C62.7591 67.888 61.4991 69.092 60.8271 70.296C60.9111 69.848 60.9391 69.372 60.9391 68.952V68.336H57.5231V82H60.9391ZM80.82 62.4V82H84.236V62.4H80.82ZM87.7106 62.4V82H91.1266V62.4H87.7106ZM94.5172 66.264H98.1012V62.68H94.5172V66.264ZM94.6012 68.336V82H98.0172V68.336H94.6012ZM104.908 82V73.992C104.908 72.088 106.14 70.604 107.82 70.604C109.416 70.604 110.396 71.864 110.396 73.88V82H113.812V73.376C113.812 70.016 112.02 67.888 108.996 67.888C106.84 67.888 105.552 68.924 104.796 70.296C104.88 69.764 104.908 69.344 104.908 68.952V68.336H101.492V82H104.908ZM123.071 82.252C123.939 82.252 124.751 82.112 125.087 82V79.424C124.751 79.48 124.387 79.508 124.051 79.508C122.595 79.508 122.035 78.668 122.035 77.24V71.052H125.395V68.336H122.035V63.408H118.619V68.336H115.511V71.052H118.619V77.744C118.619 80.796 120.159 82.252 123.071 82.252Z" fill="#8E8787"/>
</svg>
