<svg viewBox="0 0 141 48" fill="none" xmlns="http://www.w3.org/2000/svg">
  <path d="M25.1684 21.1875C24.1637 21.1875 23.3706 22.0519 23.3706 23.128C23.3706 24.204 24.1814 25.0684 25.1684 25.0684C26.173 25.0684 26.9661 24.204 26.9661 23.128C26.9661 22.0519 26.1554 21.1875 25.1684 21.1875ZM18.7352 21.1875C17.7306 21.1875 16.9375 22.0519 16.9375 23.128C16.9375 24.204 17.7483 25.0684 18.7352 25.0684C19.7399 25.0684 20.533 24.204 20.533 23.128C20.5506 22.0519 19.7399 21.1875 18.7352 21.1875Z" fill="black" />
  <path d="M33.734 6.50781H10.1165C8.12492 6.50781 6.50342 8.13075 6.50342 10.1241V33.7625C6.50342 35.7559 8.12492 37.3788 10.1165 37.3788H30.1033L29.1692 34.1506L31.4252 36.2322L33.5578 38.1903L37.3648 41.4891V10.1241C37.3472 8.13075 35.7257 6.50781 33.734 6.50781ZM26.9308 29.3524C26.9308 29.3524 26.2963 28.5938 25.7675 27.9411C28.0764 27.2884 28.9577 25.8595 28.9577 25.8595C28.235 26.3358 27.5477 26.671 26.9308 26.9003C26.0495 27.2708 25.2035 27.5001 24.3752 27.6589C22.6832 27.9764 21.1322 27.8882 19.8103 27.6412C18.8057 27.4472 17.942 27.1826 17.2194 26.8827C16.814 26.7239 16.3734 26.5299 15.9328 26.2829C15.8799 26.2476 15.827 26.23 15.7742 26.1947C15.7389 26.177 15.7213 26.1594 15.7037 26.1594C15.3864 25.983 15.2102 25.8595 15.2102 25.8595C15.2102 25.8595 16.0562 27.2531 18.2945 27.9235C17.7658 28.5938 17.1137 29.37 17.1137 29.37C13.2185 29.2465 11.738 26.7063 11.738 26.7063C11.738 21.0789 14.276 16.51 14.276 16.51C16.814 14.6225 19.211 14.6754 19.211 14.6754L19.3873 14.8871C16.2148 15.7868 14.7695 17.1804 14.7695 17.1804C14.7695 17.1804 15.1573 16.9687 15.8094 16.6864C17.6953 15.8573 19.1934 15.6456 19.8103 15.5751C19.916 15.5574 20.0042 15.5398 20.1099 15.5398C21.185 15.3987 22.4012 15.3634 23.6702 15.5045C25.3445 15.6986 27.1423 16.1925 28.9753 17.1804C28.9753 17.1804 27.5829 15.8573 24.5867 14.9576L24.8334 14.6754C24.8334 14.6754 27.248 14.6225 29.7684 16.51C29.7684 16.51 32.3064 21.0789 32.3064 26.7063C32.3064 26.6886 30.8259 29.2289 26.9308 29.3524ZM53.5445 14.058H47.693V20.6379L51.5882 24.1484V17.7625H53.6679C54.9898 17.7625 55.6419 18.3976 55.6419 19.4207V24.3071C55.6419 25.3303 55.025 26.0183 53.6679 26.0183H47.6754V29.7404H53.5269C56.6642 29.7581 59.6075 28.1881 59.6075 24.5894V19.3325C59.6252 15.6633 56.6818 14.058 53.5445 14.058ZM84.212 24.5894V19.1914C84.212 17.2509 87.7018 16.8099 88.7593 18.7504L91.9847 17.445C90.7157 14.6578 88.4068 13.8463 86.4857 13.8463C83.3484 13.8463 80.2464 15.6633 80.2464 19.1914V24.5894C80.2464 28.1528 83.3484 29.9345 86.4152 29.9345C88.3892 29.9345 90.7509 28.9643 92.0552 26.424L88.6007 24.8364C87.7547 27.0062 84.212 26.4769 84.212 24.5894ZM73.5489 19.9323C72.3328 19.6677 71.522 19.2267 71.4692 18.4681C71.5397 16.6511 74.342 16.5806 75.9812 18.327L78.572 16.3336C76.9505 14.3579 75.1175 13.8286 73.2317 13.8286C70.3588 13.8286 67.574 15.4516 67.574 18.521C67.574 21.5023 69.8653 23.1076 72.3857 23.4957C73.6723 23.6721 75.0999 24.1837 75.0647 25.0657C74.9589 26.7415 71.5044 26.6533 69.9358 24.7482L67.433 27.0944C68.8959 28.9819 70.8875 29.9345 72.7558 29.9345C75.6287 29.9345 78.8188 28.2763 78.9422 25.2421C79.1184 21.4141 76.3337 20.4439 73.5489 19.9323ZM61.7402 29.7228H65.6882V14.058H61.7402V29.7228ZM128.31 14.058H122.458V20.6379L126.353 24.1484V17.7625H128.433C129.755 17.7625 130.407 18.3976 130.407 19.4207V24.3071C130.407 25.3303 129.79 26.0183 128.433 26.0183H122.441V29.7404H128.31C131.447 29.7581 134.39 28.1881 134.39 24.5894V19.3325C134.39 15.6633 131.447 14.058 128.31 14.058ZM99.5986 13.8463C96.3557 13.8463 93.1303 15.6103 93.1303 19.2267V24.5718C93.1303 28.1528 96.3733 29.9521 99.6339 29.9521C102.877 29.9521 106.102 28.1528 106.102 24.5718V19.2267C106.102 15.628 102.842 13.8463 99.5986 13.8463ZM102.137 24.5718C102.137 25.7008 100.868 26.2829 99.6163 26.2829C98.3473 26.2829 97.0783 25.736 97.0783 24.5718V19.2267C97.0783 18.08 98.312 17.4626 99.5458 17.4626C100.832 17.4626 102.137 18.0095 102.137 19.2267V24.5718ZM120.273 19.2267C120.185 15.5574 117.682 14.0756 114.457 14.0756H108.2V29.7404H112.201V24.7658H112.906L116.536 29.7404H121.471L117.206 24.3601C119.092 23.7603 120.273 22.1197 120.273 19.2267ZM114.527 21.3435H112.201V17.7625H114.527C117.012 17.7625 117.012 21.3435 114.527 21.3435Z" fill="black" />
</svg>