<svg width="665" height="417" fill="none" xmlns="http://www.w3.org/2000/svg"><rect width="665" height="417" rx="8" fill="#292929"/><path d="M91.07 146l29.258 53.281V226h19.219v-26.719L168.805 146h-21.602l-16.914 33.477h-.703L112.672 146H91.07zm99.991 81.133c18.867 0 30.312-12.461 30.312-30.938 0-18.515-11.445-30.976-30.312-30.976-18.868 0-30.313 12.461-30.313 30.976 0 18.477 11.445 30.938 30.313 30.938zm.117-14.414c-7.071 0-10.977-6.719-10.977-16.641 0-9.961 3.906-16.719 10.977-16.719 6.836 0 10.742 6.758 10.742 16.719 0 9.922-3.906 16.641-10.742 16.641zm78.691-12.617c0 6.992-4.453 10.898-10.117 10.898-5.859 0-9.453-3.984-9.492-10.508V166h-19.102v38.242c.039 13.555 8.281 22.539 20.625 22.539 8.985 0 15.664-4.609 18.321-11.953h.625V226h18.203v-60h-19.063v34.102zm23.018-38.399h24.297V226h19.062v-64.297h24.258V146h-67.617v15.703zm107.607 38.399c0 6.992-4.453 10.898-10.117 10.898-5.859 0-9.453-3.984-9.492-10.508V166h-19.102v38.242c.039 13.555 8.281 22.539 20.625 22.539 8.985 0 15.664-4.609 18.321-11.953h.625V226h18.203v-60h-19.063v34.102zM431.715 226h18.906v-9.727h.586c2.422 5.547 7.813 10.586 16.875 10.586 13.281 0 23.984-10.39 23.984-30.82 0-21.172-11.328-30.82-23.867-30.82-9.492 0-14.687 5.547-16.992 11.054h-.391V146h-19.101v80zm18.711-30c0-9.805 4.062-15.859 11.054-15.859 7.071 0 10.977 6.211 10.977 15.859 0 9.687-3.906 15.977-10.977 15.977-6.992 0-11.054-6.25-11.054-15.977zm79.697 31.133c15.742 0 26.094-7.617 28.281-19.414l-17.539-.508c-1.484 3.984-5.39 6.133-10.39 6.133-7.344 0-11.875-4.883-11.875-12.227v-.508h40v-4.765c0-19.766-12.032-30.625-29.063-30.625-18.125 0-29.766 12.422-29.766 31.015 0 19.219 11.485 30.899 30.352 30.899zM518.6 189.516c.273-5.977 5-10.508 11.328-10.508 6.289 0 10.82 4.375 10.898 10.508H518.6z" fill="#1C1C1C"/></svg>