<svg id="Layer_1" data-name="Layer 1" xmlns="http://www.w3.org/2000/svg" viewBox="0 0 871.3986 212.9021">
  <g>
    <g id="logoMark">
      <path id="logoMark_PathItem_" data-name="logoMark &lt;PathItem&gt;" d="M81.679,0a33.5857,33.5857,0,0,1,31.0639,20.8128A13.017,13.017,0,0,1,128.27,33.5791c0,.2711-.0089.5422-.0255.8114,6.2074,1.6114,11.916,5.6308,13.4986,12.0736a13.0964,13.0964,0,0,1,.3776,3.1263v2.1574a20.5772,20.5772,0,0,1-30.2951,22.509,28.2252,28.2252,0,0,1-9.3376,10.9177A79.5193,79.5193,0,0,0,92.71,145.1569a14.4952,14.4952,0,0,1,18.8181,13.831,15.2965,15.2965,0,0,0,30.593,0v2.3743a30.2232,30.2232,0,0,1-30.1574,30.1612H51.3966a30.2225,30.2225,0,0,1-30.1594-30.1612v-2.3743a15.296,15.296,0,0,0,30.5919,0,8.81,8.81,0,0,1,15.7134-5.4732,6.09,6.09,0,0,1,5.9325-2.5714,79.2392,79.2392,0,0,0,3.6959-23.9965,78.988,78.988,0,0,0-16.9828-49.054,20.59,20.59,0,0,1-24.4195-8.5274,13.3257,13.3257,0,0,1-1.4072.0739,13.0149,13.0149,0,0,1-12.5379-9.5257,7.8107,7.8107,0,0,1-.5863-3.0071V49.59a13.0971,13.0971,0,0,1,.3783-3.1263C23.158,40.1858,28.62,36.2079,34.64,34.5175a13.0283,13.0283,0,0,1,13.6466-4.4934A33.5838,33.5838,0,0,1,81.679,0Z" style="fill: #8E8787;fill-rule: evenodd"/>
      <path id="logoMark_PathItem_2" data-name="logoMark &lt;PathItem&gt;" d="M157.8626,139.8861s-3.1826-5.2257-5.0541-7.6452c-5.3558-6.9327-11.7445-12.529-17.9213-18.6535-1.3106-1.2987-4.08-3.5164-6.4789-5.8964-.027-.0293-.0582-.0587-.0874-.088-.3243-.3234-.6426-.6492-.9478-.9764-.0051-.0054-.0143-.0084-.02-.0137a9.2383,9.2383,0,0,1-1.7213-7.8523h9.5433a6.9038,6.9038,0,0,0,6.7517-7.0312V88.1517l-19.6388.0637a6.7509,6.7509,0,0,0-6.8345,6.3671s-1.3831,11.2859,1.5919,16.2439a57.7428,57.7428,0,0,0,7.3023,8.3539c5.8731,5.8221,12.1061,11.2448,17.1889,17.8235,5.4968,7.1132,10.0583,16.8289,9.3605,26.0051-1.7543,23.0895-15.8483,36.23-39.2,38.182H52.1956c-23.3516-1.9525-37.4455-15.0925-39.2-38.182-.6979-9.1762,3.8636-18.8919,9.36-26.0051,5.0828-6.5787,11.3158-12.0014,17.1889-17.8235a57.7428,57.7428,0,0,0,7.3023-8.3539c2.9751-4.958,1.5919-16.2439,1.5919-16.2439a6.7509,6.7509,0,0,0-6.8345-6.3671l-19.6386-.0637v3.5777a6.9038,6.9038,0,0,0,6.7516,7.0312h9.5433a9.2385,9.2385,0,0,1-1.7214,7.8523c-.0052.0053-.0145.0083-.02.0137-.3052.3272-.6236.653-.9478.9764-.0293.0293-.0605.0587-.0875.088-2.3992,2.38-5.1682,4.5977-6.4789,5.8964-6.1768,6.1245-12.5655,11.7208-17.9212,18.6535-1.8716,2.4195-5.0542,7.6452-5.0542,7.6452S-.0483,149.15,0,163.3911c2.2933,32.1058,21.8638,49.511,51.6838,49.4963.1173.009.22.0147.3393.0147H111.87c.1193,0,.222-.0057.3394-.0147,29.82.0147,49.39-17.3905,51.6837-49.4963C163.9415,149.15,157.8626,139.8861,157.8626,139.8861Z" style="fill: #8E8787;fill-rule: evenodd"/>
    </g>
    <path id="fullLogo" d="M210.1981,161.8173l4.9051-10.0358h42.0814l5.0175,10.0358c4.1051,8.8947,17.9025,1.8228,13.2284-7.0719L243.2694,90.77c-2.8506-6.272-11.0615-6.044-14.1386,0l-32.7294,63.9757c-2.2823,4.79,0,8.8947,3.6477,10.9483,4.1058.7992,8.3263,0,10.149-3.8764Zm11.974-25.0891,14.0284-28.167,12.8865,28.167Z" style="fill: #8E8787;fill-rule: evenodd"/>
    <path id="fullLogo-2" data-name="fullLogo" d="M297.4388,158.6247c0,10.1491,15.0533,9.92,15.0533,0V101.0341h18.93c10.149,0,10.149-14.5982,0-14.5982h-53.94c-9.92,0-9.92,14.5982,0,14.5982h19.9562Z" style="fill: #8E8787;fill-rule: evenodd"/>
    <path id="fullLogo-3" data-name="fullLogo" d="M426.416,125.78c0-27.0259-20.8686-40.8256-40.8248-41.8535-21.0973,0-42.9939,13.8-42.9939,41.8535,0,27.94,21.8966,41.9674,42.9939,41.0549,19.9562,0,40.8248-14.0276,40.8248-41.0549Zm-14.9379,0c0,17.904-14.0283,27.0273-27.1413,27.0273-12.7732,0-26.6861-9.1233-26.6861-27.0273,0-18.018,13.9129-27.0259,26.6861-27.0259C397.45,98.754,411.4781,107.7619,411.4781,125.78Z" style="fill: #8E8787;fill-rule: evenodd"/>
    <path id="fullLogo-4" data-name="fullLogo" d="M472.4878,139.5788c3.7631,5.0176,8.8961,5.0176,13.0019,0L504.42,115.63v42.1954c0,5.0175,3.1925,7.8682,7.2976,7.8682,3.6506,0,6.8432-2.8507,6.8432-7.8682V93.62c0-7.8682-9.2388-9.6939-13.0019-5.0175l-26,35.1249L454.47,89.8572c-1.9382-2.1669-3.8771-4.1051-7.1851-4.1051a7.5855,7.5855,0,0,0-6.841,7.8682v64.2052c0,5.0175,3.1933,7.8682,6.841,7.8682,4.1058,0,8.2108-2.8507,8.2108-7.8682V115.63Z" style="fill: #8E8787;fill-rule: evenodd"/>
    <path id="fullLogo-5" data-name="fullLogo" d="M535.2114,158.738c0,9.6939,15.0533,9.4652,15.0533,0V93.62c0-9.6939-15.0533-9.35-15.0533,0Z" style="fill: #8E8787;fill-rule: evenodd"/>
    <path id="fullLogo-6" data-name="fullLogo" d="M604.3179,166.4929c9.4652,0,19.0459-1.483,27.0281-8.8961,3.9918-3.99,3.0793-8.2108,1.2543-10.72a7.6792,7.6792,0,0,0-10.4909-1.3683c-5.2469,4.6763-11.29,7.2983-17.7915,7.2983-17.6753,0-25.9994-13-25.9994-27.1413,0-13.9122,8.4388-26.3435,25.9994-26.3435,6.5013,0,11.29,1.37,15.9665,6.2727a7.3959,7.3959,0,1,0,10.1491-10.72c-8.3241-7.1851-16.193-10.15-26.1156-10.15-26.2281,0-40.0278,18.93-40.0278,40.94S576.7215,166.4929,604.3179,166.4929Z" style="fill: #8E8787;fill-rule: evenodd"/>
    <path id="fullLogo-7" data-name="fullLogo" d="M683.4632,138.6664c-.1155,11.29-5.7021,14.1408-12.09,14.3695-5.0183.2287-10.149-1.1412-14.9386-7.0719-5.93-7.2976-16.8783,2.7382-11.0615,9.6939,7.07,9.1233,15.1673,11.746,24.86,11.746,19.7275,0,28.2825-10.8335,28.2825-28.7375V93.62c0-9.5784-15.0533-9.5784-15.0533,0Z" style="fill: #8E8787;fill-rule: evenodd"/>
    <path id="fullLogo-8" data-name="fullLogo" d="M723.7174,161.8173l4.9043-10.0358h42.0814l5.0183,10.0358c4.105,8.8947,17.9025,1.8228,13.2283-7.0719L756.7887,90.77c-2.8507-6.272-11.0615-6.044-14.1394,0L709.92,154.7454c-2.2823,4.79,0,8.8947,3.6485,10.9483,4.105.7992,8.3255,0,10.149-3.8764Zm11.974-25.0891,14.0276-28.167,12.8865,28.167Z" style="fill: #8E8787;fill-rule: evenodd"/>
    <path id="fullLogo-9" data-name="fullLogo" d="M814.4925,137.6407h17.904l17.221,24.6317c6.8425,8.6682,18.7018.2287,12.7732-8.5527l-15.1688-18.4753c24.1767-9.6917,18.2459-48.4666-10.72-48.4666H806.1685a6.8176,6.8176,0,0,0-6.8433,6.958v64.7735c0,10.0358,15.1673,9.6939,15.1673-.2287v-20.64Zm0-37.0639h22.01c15.7372,0,14.8247,23.948,0,23.948h-22.01Z" style="fill: #8E8787;fill-rule: evenodd"/>
  </g>
</svg>
