<svg viewBox="0 0 618 220" fill="none" xmlns="http://www.w3.org/2000/svg"><path d="M135.049 121.648c9.767 0 17.685-7.918 17.685-17.685 0-9.768-7.918-17.686-17.685-17.686-9.768 0-17.686 7.918-17.686 17.686 0 9.767 7.918 17.685 17.686 17.685zM75.295 121.648c9.767 0 17.685-7.918 17.685-17.685 0-9.768-7.918-17.686-17.685-17.686-9.768 0-17.686 7.918-17.686 17.686 0 9.767 7.918 17.685 17.686 17.685z" fill="#8E8787"/><path d="M41 126.467a4.697 4.697 0 010-.938 66.318 66.318 0 01-2.278-25.925 67.526 67.526 0 0162.502-59.755 66.99 66.99 0 0171.21 66.99 68.673 68.673 0 01-2.746 19.159 4.077 4.077 0 000 .469h38.988a107.198 107.198 0 001.876-19.628 105.177 105.177 0 00-33.495-76.77 104.976 104.976 0 00-157.578 15.42A104.974 104.974 0 00.136 101.212a106.177 106.177 0 001.742 25.255H41zM163.92 140.758l-4.355 6.029a66.98 66.98 0 01-54.362 27.844 66.993 66.993 0 01-54.362-27.844l-4.422-6.029-27.265 27.466 3.484 4.421a104.837 104.837 0 00127.951 29.744l5.493 5.493a26.393 26.393 0 0037.38 0 26.04 26.04 0 005.702-8.576 26.033 26.033 0 001.935-10.114 26.797 26.797 0 00-7.704-18.691l-29.475-29.743zM314.189 89.03a35.103 35.103 0 01-25.188-8.574 33.494 33.494 0 01-9.245-25.389V34.3a33.501 33.501 0 019.245-25.39A35.102 35.102 0 01314.189.069a32.828 32.828 0 0124.385 8.642 31.757 31.757 0 018.641 23.647v.737h-15.876v-1.273a18.49 18.49 0 00-4.221-12.46 16.277 16.277 0 00-12.929-4.89 17.413 17.413 0 00-13.398 5.292 20.097 20.097 0 00-4.89 14.27v21.034a20.098 20.098 0 004.89 14.269 17.15 17.15 0 0013.398 5.292 16.078 16.078 0 0012.929-4.957 18.422 18.422 0 004.221-12.393v-2.211h15.876v1.742a32.01 32.01 0 01-8.641 23.647 32.824 32.824 0 01-24.385 8.575zM360.883 87.15V1.805h15.408V87.15h-15.408zM422.18 89.035a35.635 35.635 0 01-16.211-3.617 27.728 27.728 0 01-11.388-10.652 32.356 32.356 0 01-4.154-16.747v-1.943a32.152 32.152 0 014.154-16.747 26.794 26.794 0 0111.388-10.652 37.649 37.649 0 0132.49 0 27.263 27.263 0 0111.388 10.652 32.152 32.152 0 014.154 16.747v1.943a32.356 32.356 0 01-4.154 16.747 28.128 28.128 0 01-11.388 10.652 35.907 35.907 0 01-16.279 3.617zm0-13.398a16.349 16.349 0 0011.791-4.555 17.817 17.817 0 004.622-13.398v-1.273a17.955 17.955 0 00-4.555-13.398 17.553 17.553 0 00-23.581 0 17.753 17.753 0 00-4.622 13.398v1.206a17.82 17.82 0 004.622 13.398 16.283 16.283 0 0011.723 4.354v.268zM491.302 88.305a23.584 23.584 0 01-12.394-3.216 21.768 21.768 0 01-8.239-8.976 28.793 28.793 0 01-2.948-13.398v-35.84h15.408V61.71a14.2 14.2 0 003.349 10.25 13.4 13.4 0 009.647 3.416 13.402 13.402 0 0010.986-4.69 20.094 20.094 0 003.886-13.398V26.875h15.407v60.291h-15.139v-7.77h-2.01a17.352 17.352 0 01-5.493 6.028 20.968 20.968 0 01-12.46 2.88zM568.014 89.026a27.397 27.397 0 01-13.398-3.55A26.797 26.797 0 01544.5 74.89a35.712 35.712 0 01-3.751-16.882v-1.942a35.316 35.316 0 013.751-16.882 26.336 26.336 0 0123.648-14.202 30.015 30.015 0 019.178 1.273 18.697 18.697 0 016.096 3.283 15.68 15.68 0 013.55 4.153h2.144V1.805h15.408V87.15H589.25v-7.369h-2.211a19.161 19.161 0 01-6.699 6.23 23.245 23.245 0 01-12.326 3.015zm4.622-13.398a16.344 16.344 0 0011.858-4.623 17.746 17.746 0 004.756-13.398v-1.205a17.96 17.96 0 00-4.69-13.398 17.817 17.817 0 00-23.781 0 17.958 17.958 0 00-4.756 13.398v1.205a17.764 17.764 0 004.756 13.398 16.283 16.283 0 0011.857 4.623zM314.995 196.224a36.31 36.31 0 01-25.725-8.574 32.836 32.836 0 01-9.512-25.389v-20.767a33.027 33.027 0 019.512-25.39 36.313 36.313 0 0125.725-8.842 36.378 36.378 0 0125.724 8.842 33.495 33.495 0 019.512 25.39v20.499a33.084 33.084 0 01-9.579 25.657 36.375 36.375 0 01-25.657 8.574zm0-14.402a18.615 18.615 0 0014.067-5.226 19.692 19.692 0 005.025-14.068v-21.771a19.434 19.434 0 00-5.025-14.068 21.232 21.232 0 00-28.068 0 19.421 19.421 0 00-5.025 14.068v21.504a19.696 19.696 0 005.025 14.067 18.753 18.753 0 0014.001 5.494zm5.627 34.7a13.385 13.385 0 01-9.714-3.684 13.395 13.395 0 01-3.684-9.982v-8.507h15.608v5.828c0 2.479 1.139 3.684 3.417 3.684h7.235v12.46l-12.862.201zM387.948 195.488a23.64 23.64 0 01-12.661-3.215 22.716 22.716 0 01-8.24-8.977 28.735 28.735 0 01-2.881-13.398v-35.839h15.341v34.834a13.928 13.928 0 003.417 10.25 12.801 12.801 0 009.579 3.416 13.39 13.39 0 0010.986-4.689 20.094 20.094 0 003.886-13.398v-30.413h15.408v60.291h-14.939v-7.771h-2.211a16.747 16.747 0 01-5.493 6.029 20.83 20.83 0 01-12.192 2.88zM467.723 196.227a32.422 32.422 0 01-15.944-3.819 26.793 26.793 0 01-10.719-10.852 33.494 33.494 0 01-3.885-16.613v-1.474a34.11 34.11 0 013.818-16.547 26.265 26.265 0 0110.585-10.852 31.753 31.753 0 0115.944-3.886 29.076 29.076 0 0115.474 4.02 27.198 27.198 0 0110.317 11.254 35.106 35.106 0 013.617 16.279v5.292h-44.079a13.385 13.385 0 004.622 10.115 15.61 15.61 0 0010.785 3.953c3.41.274 6.801-.729 9.513-2.814a20.076 20.076 0 004.622-6.23l12.594 6.699a35.551 35.551 0 01-4.957 6.699 26.779 26.779 0 01-8.575 6.364 31.55 31.55 0 01-13.732 2.412zm-14.738-38.988h28.337a12.27 12.27 0 00-4.221-8.441 14.743 14.743 0 00-9.713-3.149 14.943 14.943 0 00-9.915 3.149 13.73 13.73 0 00-4.488 8.441zM510.668 194.336v-60.291h15.14v6.699h2.21a9.442 9.442 0 014.489-5.359 14.804 14.804 0 017.235-1.742h7.369v13.398h-7.637a14.733 14.733 0 00-9.647 3.082 11.857 11.857 0 00-3.751 9.579v34.634h-15.408zM565.669 219.002v-13.398h33.027c2.277 0 3.416-1.206 3.416-3.685v-15.34h-2.211a14.19 14.19 0 01-3.081 4.153 14.337 14.337 0 01-5.627 3.417 24.8 24.8 0 01-9.044 1.339c-4.416.13-8.78-.985-12.594-3.215a21.769 21.769 0 01-8.24-8.977 28.804 28.804 0 01-2.947-13.398v-35.839h15.407v34.834a14.203 14.203 0 003.35 10.25 12.838 12.838 0 004.438 2.695c1.647.588 3.396.833 5.141.721a13.4 13.4 0 0011.054-4.689 20.099 20.099 0 003.885-13.398v-30.413h15.408v71.21a13.394 13.394 0 01-3.685 9.982 13.402 13.402 0 01-9.78 3.751h-37.917z" fill="#8E8787"/></svg>