<svg xmlns="http://www.w3.org/2000/svg" viewBox="0 0 92.12 32.68"><defs><style>.cls-1{fill:#fff;}</style></defs><g id="Layer_2" data-name="Layer 2"><g id="Layer_1-2" data-name="Layer 1"><circle class="cls-1" cx="20.14" cy="15.51" r="2.64"/><circle class="cls-1" cx="11.22" cy="15.51" r="2.64"/><path class="cls-1" d="M6.1,18.87a.7.7,0,0,1,0-.14,9.9,9.9,0,0,1-.34-3.87,10.08,10.08,0,0,1,9.33-8.92,10,10,0,0,1,10.63,10,10.25,10.25,0,0,1-.41,2.86.64.64,0,0,0,0,.07h5.82a16,16,0,0,0,.28-2.93,15.7,15.7,0,0,0-5-11.46A15.67,15.67,0,0,0,0,15.1a15.85,15.85,0,0,0,.26,3.77Z"/><path class="cls-1" d="M24.45,21l-.65.9a10,10,0,0,1-16.23,0L6.91,21,2.84,25.1l.52.66a15.65,15.65,0,0,0,19.1,4.44l.82.82a3.94,3.94,0,0,0,5.58,0A3.89,3.89,0,0,0,30,28.23a4,4,0,0,0-1.15-2.79Z"/><path class="cls-1" d="M46.88,13.28A5.24,5.24,0,0,1,43.12,12a5,5,0,0,1-1.38-3.79V5.11a5,5,0,0,1,1.38-3.79A5.24,5.24,0,0,1,46.88,0a4.9,4.9,0,0,1,3.64,1.29,4.74,4.74,0,0,1,1.29,3.53v.11H49.44V4.74a2.76,2.76,0,0,0-.63-1.86,2.43,2.43,0,0,0-1.93-.73,2.6,2.6,0,0,0-2,.79,3,3,0,0,0-.73,2.13V8.21a3,3,0,0,0,.73,2.13,2.56,2.56,0,0,0,2,.79,2.4,2.4,0,0,0,1.93-.74,2.75,2.75,0,0,0,.63-1.85V8.21h2.37v.26A4.78,4.78,0,0,1,50.52,12,4.9,4.9,0,0,1,46.88,13.28Z"/><path class="cls-1" d="M53.85,13V.26h2.3V13Z"/><path class="cls-1" d="M63,13.28a5.32,5.32,0,0,1-2.42-.54,4.14,4.14,0,0,1-1.7-1.59,4.83,4.83,0,0,1-.62-2.5V8.36a4.8,4.8,0,0,1,.62-2.5,4,4,0,0,1,1.7-1.59,5.62,5.62,0,0,1,4.85,0,4.07,4.07,0,0,1,1.7,1.59,4.8,4.8,0,0,1,.62,2.5v.29a4.83,4.83,0,0,1-.62,2.5,4.2,4.2,0,0,1-1.7,1.59A5.36,5.36,0,0,1,63,13.28Zm0-2a2.44,2.44,0,0,0,1.76-.68,2.66,2.66,0,0,0,.69-2V8.41a2.68,2.68,0,0,0-.68-2,2.62,2.62,0,0,0-3.52,0,2.65,2.65,0,0,0-.69,2v.18a2.66,2.66,0,0,0,.69,2A2.43,2.43,0,0,0,63,11.24Z"/><path class="cls-1" d="M73.32,13.17a3.52,3.52,0,0,1-1.85-.48,3.25,3.25,0,0,1-1.23-1.34,4.3,4.3,0,0,1-.44-2V4h2.3V9.2a2.12,2.12,0,0,0,.5,1.53,2,2,0,0,0,1.44.51,2,2,0,0,0,1.64-.7,3,3,0,0,0,.58-2V4h2.3v9H76.3V11.84H76a2.59,2.59,0,0,1-.82.9A3.13,3.13,0,0,1,73.32,13.17Z"/><path class="cls-1" d="M84.77,13.28a4.09,4.09,0,0,1-2-.53,4,4,0,0,1-1.51-1.58,5.33,5.33,0,0,1-.56-2.52V8.36a5.27,5.27,0,0,1,.56-2.52,3.93,3.93,0,0,1,3.53-2.12,4.48,4.48,0,0,1,1.37.19,2.79,2.79,0,0,1,.91.49,2.34,2.34,0,0,1,.53.62h.32V.26h2.3V13H87.94v-1.1h-.33a2.86,2.86,0,0,1-1,.93A3.47,3.47,0,0,1,84.77,13.28Zm.69-2a2.44,2.44,0,0,0,1.77-.69,2.65,2.65,0,0,0,.71-2V8.41a2.68,2.68,0,0,0-.7-2,2.66,2.66,0,0,0-3.55,0,2.68,2.68,0,0,0-.71,2v.18a2.65,2.65,0,0,0,.71,2A2.43,2.43,0,0,0,85.46,11.28Z"/><path class="cls-1" d="M47,29.28A5.42,5.42,0,0,1,43.16,28a4.9,4.9,0,0,1-1.42-3.79V21.11a4.93,4.93,0,0,1,1.42-3.79A5.42,5.42,0,0,1,47,16a5.43,5.43,0,0,1,3.84,1.32,5,5,0,0,1,1.42,3.79v3.06A4.94,4.94,0,0,1,50.83,28,5.43,5.43,0,0,1,47,29.28Zm0-2.15a2.78,2.78,0,0,0,2.1-.78,2.94,2.94,0,0,0,.75-2.1V21a2.9,2.9,0,0,0-.75-2.1,3.17,3.17,0,0,0-4.19,0,2.9,2.9,0,0,0-.75,2.1v3.21a2.94,2.94,0,0,0,.75,2.1A2.8,2.8,0,0,0,47,27.13Zm.84,5.18a2,2,0,0,1-1.45-.55,2,2,0,0,1-.55-1.49V29h2.33v.87c0,.37.17.55.51.55h1.08v1.86Z"/><path class="cls-1" d="M57.89,29.17A3.53,3.53,0,0,1,56,28.69a3.39,3.39,0,0,1-1.23-1.34,4.29,4.29,0,0,1-.43-2V20h2.29V25.2a2.08,2.08,0,0,0,.51,1.53,1.91,1.91,0,0,0,1.43.51,2,2,0,0,0,1.64-.7,3,3,0,0,0,.58-2V20h2.3V29H60.86V27.84h-.33a2.5,2.5,0,0,1-.82.9A3.11,3.11,0,0,1,57.89,29.17Z"/><path class="cls-1" d="M69.8,29.28a4.84,4.84,0,0,1-2.38-.57,4,4,0,0,1-1.6-1.62,5,5,0,0,1-.58-2.48v-.22a5.09,5.09,0,0,1,.57-2.47,3.92,3.92,0,0,1,1.58-1.62,4.74,4.74,0,0,1,2.38-.58,4.34,4.34,0,0,1,2.31.6A4.06,4.06,0,0,1,73.62,22a5.24,5.24,0,0,1,.54,2.43v.79H67.58a2,2,0,0,0,.69,1.51,2.33,2.33,0,0,0,1.61.59,2.06,2.06,0,0,0,1.42-.42,3,3,0,0,0,.69-.93l1.88,1a5.31,5.31,0,0,1-.74,1,4,4,0,0,1-1.28.95A4.71,4.71,0,0,1,69.8,29.28Zm-2.2-5.82h4.23a1.83,1.83,0,0,0-.63-1.26,2.2,2.2,0,0,0-1.45-.47,2.23,2.23,0,0,0-1.48.47A2.05,2.05,0,0,0,67.6,23.46Z"/><path class="cls-1" d="M76.21,29V20h2.26v1h.33a1.41,1.41,0,0,1,.67-.8,2.21,2.21,0,0,1,1.08-.26h1.1v2H80.51a2.2,2.2,0,0,0-1.44.46,1.77,1.77,0,0,0-.56,1.43V29Z"/><path class="cls-1" d="M84.42,32.68v-2h4.93c.34,0,.51-.18.51-.55V27.84h-.33a2.12,2.12,0,0,1-.46.62,2.14,2.14,0,0,1-.84.51,3.7,3.7,0,0,1-1.35.2A3.52,3.52,0,0,1,85,28.69a3.25,3.25,0,0,1-1.23-1.34,4.3,4.3,0,0,1-.44-2V20h2.3V25.2a2.12,2.12,0,0,0,.5,1.53,1.92,1.92,0,0,0,1.43.51,2,2,0,0,0,1.65-.7,3,3,0,0,0,.58-2V20h2.3V30.63a2,2,0,0,1-.55,1.49,2,2,0,0,1-1.46.56Z"/></g></g></svg>