<svg viewBox="0 0 404 65" fill="none" xmlns="http://www.w3.org/2000/svg"><path d="M96.01 28.059c3.3 0 5.901-1.3 8.001-3.9l4.3 4.4c-3.4 3.8-7.3 5.7-11.9 5.7-4.6 0-8.3-1.4-11.3-4.3s-4.4-6.5-4.4-10.9 1.5-8.1 4.5-11c3-2.9 6.7-4.4 11.1-4.4 4.9 0 9 1.9 12.2 5.6l-4.1 4.7c-2.1-2.6-4.7-3.9-7.8-3.9-2.5 0-4.6.8-6.4 2.4-1.8 1.6-2.7 3.8-2.7 6.6s.8 5 2.5 6.7c1.6 1.4 3.6 2.3 6 2.3zm17.501 5.8v-29.7h6.6v23.8h12.7v5.9h-19.3zm48.3-4.1c-3 2.9-6.7 4.4-11.1 4.4-4.4 0-8.1-1.5-11.1-4.4-3-2.9-4.5-6.6-4.5-10.9 0-4.4 1.5-8 4.5-10.9 3-2.9 6.7-4.4 11.1-4.4 4.4 0 8.1 1.5 11.1 4.4 3 2.9 4.5 6.6 4.5 10.9 0 4.4-1.5 8-4.5 10.9zm-2.3-10.9c0-2.6-.9-4.9-2.6-6.8-1.7-1.9-3.8-2.8-6.3-2.8s-4.6.9-6.3 2.8c-1.7 1.9-2.6 4.1-2.6 6.8 0 2.6.9 4.9 2.6 6.8 1.7 1.9 3.8 2.8 6.3 2.8s4.6-.9 6.3-2.8c1.8-1.9 2.6-4.1 2.6-6.8zm20.3 7.4c1.1 1.4 2.6 2.1 4.5 2.1s3.4-.7 4.4-2.1c1.1-1.4 1.6-3.3 1.6-5.6v-16.4h6.6v16.6c0 4.3-1.2 7.6-3.6 9.9-2.4 2.3-5.4 3.5-9.1 3.5-3.7 0-6.8-1.2-9.2-3.5-2.4-2.3-3.6-5.6-3.6-9.9v-16.6h6.6v16.4c.1 2.3.7 4.2 1.8 5.6zm46.7-18.2c2.8 2.6 4.3 6.2 4.3 10.8 0 4.6-1.4 8.3-4.1 11-2.8 2.7-7 4-12.6 4h-10.3v-29.7h10.5c5.3 0 9.4 1.3 12.2 3.9zm-4.8 17.7c1.6-1.5 2.4-3.8 2.4-6.7 0-2.9-.8-5.2-2.4-6.7-1.6-1.6-4.1-2.4-7.5-2.4h-3.7v18.1h4.2c3 0 5.3-.8 7-2.3zm46.8-21.6h6.6v29.7h-6.6l-14.2-18.6v18.6h-6.6v-29.7h6.2l14.6 19.1v-19.1zm35.1 29.7l-2.8-6.4h-12.5l-2.8 6.4h-7.1l12.8-29.7h6.4l12.8 29.7h-6.8zm-8.9-20.8l-3.7 8.6h7.4l-3.7-8.6zm29.9-3.1v24h-6.6v-24h-8.4v-5.7h23.5v5.7h-8.5zm13.2-5.8h6.6v29.7h-6.6v-29.7zm24.9 18.9l7.6-18.9h7.2l-11.9 29.7h-5.6l-11.9-29.7h7.2l7.4 18.9zm39.7-18.9v5.9h-14.8v6.1h13.3v5.7h-13.3v6.2h15.3v5.9h-21.9v-29.7h21.4v-.1zm-314 55c1.8 0 3.3-.7 4.5-2.2l2.4 2.5c-1.9 2.1-4.1 3.2-6.7 3.2-2.6 0-4.7-.8-6.3-2.4-1.7-1.6-2.5-3.7-2.5-6.1 0-2.5.8-4.5 2.5-6.2 1.7-1.7 3.8-2.5 6.2-2.5 2.7 0 5 1 6.9 3.1l-2.3 2.6c-1.2-1.5-2.6-2.2-4.4-2.2-1.4 0-2.6.5-3.6 1.4-1 .9-1.5 2.1-1.5 3.7s.5 2.8 1.4 3.7c.9 1 2.1 1.4 3.4 1.4zm23.4 1c-1.7 1.6-3.8 2.5-6.2 2.5-2.5 0-4.5-.8-6.2-2.5-1.7-1.6-2.5-3.7-2.5-6.1 0-2.4.8-4.5 2.5-6.1 1.7-1.6 3.8-2.5 6.2-2.5 2.5 0 4.5.8 6.2 2.5 1.7 1.6 2.5 3.7 2.5 6.1 0 2.4-.8 4.5-2.5 6.1zm-1.2-6.1c0-1.5-.5-2.8-1.4-3.8-1-1-2.1-1.6-3.5-1.6s-2.6.5-3.5 1.6c-1 1-1.4 2.3-1.4 3.8s.5 2.7 1.4 3.8c1 1 2.1 1.6 3.5 1.6s2.6-.5 3.5-1.6c.9-1 1.4-2.3 1.4-3.8zm21.8-2.1l-4.5 9.1h-2.2l-4.5-9.1v10.5h-3.7v-16.7h5l4.3 9.1 4.3-9.1h5v16.7h-3.7v-10.5zm19.3-4.6c1.2 1 1.8 2.5 1.8 4.6 0 2.1-.6 3.6-1.8 4.5-1.2 1-3 1.4-5.5 1.4h-2.2v4.6h-3.7v-16.7h5.9c2.5.1 4.3.6 5.5 1.6zm-2.7 6.5c.4-.5.7-1.2.7-2.2 0-1-.3-1.6-.9-2-.6-.4-1.5-.6-2.7-.6h-2.1v5.6h2.5c1.2 0 2-.3 2.5-.8zm11.8 4.3c.6.8 1.5 1.2 2.5 1.2s1.9-.4 2.5-1.2c.6-.8.9-1.8.9-3.2v-9.2h3.7v9.3c0 2.4-.7 4.3-2 5.6-1.3 1.3-3 1.9-5.1 1.9-2.1 0-3.8-.7-5.1-2-1.3-1.3-2-3.2-2-5.6v-9.3h3.7v9.2c0 1.5.3 2.6.9 3.3zm20.5-9.1v13.4h-3.7v-13.4h-4.7v-3.2h13.2v3.2h-4.8zm7.5-3.2h3.7v16.7h-3.7v-16.7zm19.4 0h3.7v16.7h-3.7l-7.9-10.4v10.4h-3.7v-16.7h3.5l8.2 10.7v-10.7h-.1zm18.7 8.2h3.7v5.9c-1.7 1.8-3.9 2.8-6.9 2.8-2.4 0-4.5-.8-6.2-2.4-1.7-1.6-2.5-3.7-2.5-6.1 0-2.5.8-4.5 2.5-6.2 1.7-1.7 3.7-2.5 6.1-2.5 2.4 0 4.5.8 6.2 2.4l-1.9 2.8c-.7-.7-1.4-1.1-2.1-1.3-.6-.2-1.3-.4-2-.4-1.4 0-2.6.5-3.6 1.4-1 1-1.5 2.2-1.5 3.8 0 1.6.5 2.8 1.4 3.8.9.9 2 1.4 3.3 1.4 1.3 0 2.4-.2 3.2-.7v-4.7h.3zm24.7-8.2v3.3h-7.7v3.6h7.3v3.3h-7.3v6.5h-3.7v-16.7h11.4zm17.2 14.3c-1.7 1.6-3.8 2.5-6.2 2.5-2.5 0-4.5-.8-6.2-2.5-1.7-1.6-2.5-3.7-2.5-6.1 0-2.4.8-4.5 2.5-6.1 1.7-1.6 3.8-2.5 6.2-2.5 2.5 0 4.5.8 6.2 2.5 1.7 1.6 2.5 3.7 2.5 6.1 0 2.4-.8 4.5-2.5 6.1zm-1.3-6.1c0-1.5-.5-2.8-1.4-3.8-1-1-2.1-1.6-3.5-1.6s-2.6.5-3.5 1.6c-1 1-1.4 2.3-1.4 3.8s.5 2.7 1.4 3.8c1 1 2.1 1.6 3.5 1.6s2.6-.5 3.5-1.6c1-1 1.4-2.3 1.4-3.8zm11.4 4.1c.6.8 1.5 1.2 2.5 1.2s1.9-.4 2.5-1.2c.6-.8.9-1.8.9-3.2v-9.2h3.7v9.3c0 2.4-.7 4.3-2 5.6-1.3 1.3-3 1.9-5.1 1.9-2.1 0-3.8-.7-5.1-2-1.3-1.3-2-3.2-2-5.6v-9.3h3.7v9.2c-.1 1.5.3 2.6.9 3.3zm25.1-12.3h3.7v16.7h-3.7l-7.9-10.4v10.4h-3.7v-16.7h3.5l8.2 10.7v-10.7h-.1zm20.5 2.2c1.6 1.5 2.4 3.5 2.4 6.1 0 2.6-.8 4.6-2.3 6.1-1.5 1.5-3.9 2.3-7.1 2.3h-5.7v-16.7h5.9c3 0 5.3.7 6.8 2.2zm-2.7 9.9c.9-.9 1.4-2.1 1.4-3.7s-.5-2.9-1.4-3.8c-.9-.9-2.3-1.3-4.2-1.3h-2.1v10.1h2.4c1.7-.1 3-.5 3.9-1.3zm19.7 4.5l-1.5-3.6h-7l-1.5 3.6h-4l7.2-16.7h3.6l7.2 16.7h-4zm-5-11.7l-2.1 4.8h4.2l-2.1-4.8zm16.8-1.7v13.4h-3.7v-13.4h-4.8v-3.2h13.2v3.2h-4.7zm7.4-3.2h3.7v16.7h-3.7v-16.7zm21.8 14.3c-1.7 1.6-3.8 2.5-6.2 2.5-2.5 0-4.5-.8-6.2-2.5-1.7-1.6-2.5-3.7-2.5-6.1 0-2.4.8-4.5 2.5-6.1 1.7-1.6 3.8-2.5 6.2-2.5 2.5 0 4.5.8 6.2 2.5 1.7 1.6 2.5 3.7 2.5 6.1 0 2.4-.8 4.5-2.5 6.1zm-1.2-6.1c0-1.5-.5-2.8-1.4-3.8-1-1-2.1-1.6-3.5-1.6s-2.6.5-3.5 1.6c-1 1-1.4 2.3-1.4 3.8s.5 2.7 1.4 3.8c1 1 2.1 1.6 3.5 1.6s2.6-.5 3.5-1.6c.9-1 1.4-2.3 1.4-3.8zm18.5-8.2h3.7v16.7h-3.7l-7.9-10.4v10.4h-3.7v-16.7h3.5l8.2 10.7-.1-10.7zm-390.5-3.1H.21v21.4h21.3v-9.2H9.31v-12.2zm45.8.1v12.1h-12.2v-.1 9.3h21.3v-21.4h-9.2l.1.1zm-54.9-21.4h9.2l-.1-.1v-12.1h12.2v-9.2H.21v21.4zm42.7-21.4v9.2h12.2v12.2h9.1V.059h-21.3z" fill="#8E8787"/><path opacity=".8" d="M41.71 21.459l-12.2-12.2h13.4v-9.2h-21.4v9.2l12.2 12.2h8zm-11 21.3h-8l10.1 10.1 2 2.1h-13.3v9.2h21.4v-9.3l-6.1-6-6.1-6.1zm24.4-21.3v13.3l-2.1-2.1-10.1-10.1v8.1l6 6 6.1 6.1h9.2v-21.3h-9.1zm-33.6 12.1l-12.1-12.1H.21v21.3h9.1v-13.3l12.2 12.2v-8.1z" fill="#8E8787"/></svg>