<svg xmlns="http://www.w3.org/2000/svg" viewBox="-1.81 -3.06 419.38 80.13"><g fill="#fff"><path d="M102.2 33c3.3 0 5.9-1.3 8-3.9l4.3 4.4c-3.4 3.8-7.3 5.7-11.9 5.7s-8.3-1.4-11.3-4.3-4.4-6.5-4.4-10.9 1.5-8.1 4.5-11 6.7-4.4 11.1-4.4c4.9 0 9 1.9 12.2 5.6l-4.1 4.7c-2.1-2.6-4.7-3.9-7.8-3.9-2.5 0-4.6.8-6.4 2.4s-2.7 3.8-2.7 6.6.8 5 2.5 6.7c1.6 1.4 3.6 2.3 6 2.3zM119.7 38.8V9.1h6.6v23.8H139v5.9zM168 34.7c-3 2.9-6.7 4.4-11.1 4.4s-8.1-1.5-11.1-4.4-4.5-6.6-4.5-10.9c0-4.4 1.5-8 4.5-10.9s6.7-4.4 11.1-4.4S165 10 168 12.9s4.5 6.6 4.5 10.9c0 4.4-1.5 8-4.5 10.9zm-2.3-10.9c0-2.6-.9-4.9-2.6-6.8s-3.8-2.8-6.3-2.8-4.6.9-6.3 2.8-2.6 4.1-2.6 6.8c0 2.6.9 4.9 2.6 6.8s3.8 2.8 6.3 2.8 4.6-.9 6.3-2.8c1.8-1.9 2.6-4.1 2.6-6.8zM186 31.2c1.1 1.4 2.6 2.1 4.5 2.1s3.4-.7 4.4-2.1c1.1-1.4 1.6-3.3 1.6-5.6V9.2h6.6v16.6c0 4.3-1.2 7.6-3.6 9.9s-5.4 3.5-9.1 3.5-6.8-1.2-9.2-3.5-3.6-5.6-3.6-9.9V9.2h6.6v16.4c.1 2.3.7 4.2 1.8 5.6zM232.7 13c2.8 2.6 4.3 6.2 4.3 10.8s-1.4 8.3-4.1 11c-2.8 2.7-7 4-12.6 4H210V9.1h10.5c5.3 0 9.4 1.3 12.2 3.9zm-4.8 17.7c1.6-1.5 2.4-3.8 2.4-6.7s-.8-5.2-2.4-6.7c-1.6-1.6-4.1-2.4-7.5-2.4h-3.7V33h4.2c3 0 5.3-.8 7-2.3zM274.7 9.1h6.6v29.7h-6.6l-14.2-18.6v18.6h-6.6V9.1h6.2l14.6 19.1zM309.8 38.8l-2.8-6.4h-12.5l-2.8 6.4h-7.1l12.8-29.7h6.4l12.8 29.7zM300.9 18l-3.7 8.6h7.4zM330.8 14.9v24h-6.6v-24h-8.4V9.2h23.5v5.7zM344 9.1h6.6v29.7H344zM368.9 28l7.6-18.9h7.2l-11.9 29.7h-5.6L354.3 9.1h7.2zM408.6 9.1V15h-14.8v6.1h13.3v5.7h-13.3V33h15.3v5.9h-21.9V9.2h21.4zM94.6 64.1c1.8 0 3.3-.7 4.5-2.2l2.4 2.5c-1.9 2.1-4.1 3.2-6.7 3.2s-4.7-.8-6.3-2.4c-1.7-1.6-2.5-3.7-2.5-6.1 0-2.5.8-4.5 2.5-6.2s3.8-2.5 6.2-2.5c2.7 0 5 1 6.9 3.1l-2.3 2.6c-1.2-1.5-2.6-2.2-4.4-2.2-1.4 0-2.6.5-3.6 1.4s-1.5 2.1-1.5 3.7.5 2.8 1.4 3.7c.9 1 2.1 1.4 3.4 1.4zM118 65.1c-1.7 1.6-3.8 2.5-6.2 2.5-2.5 0-4.5-.8-6.2-2.5-1.7-1.6-2.5-3.7-2.5-6.1s.8-4.5 2.5-6.1 3.8-2.5 6.2-2.5c2.5 0 4.5.8 6.2 2.5 1.7 1.6 2.5 3.7 2.5 6.1s-.8 4.5-2.5 6.1zm-1.2-6.1c0-1.5-.5-2.8-1.4-3.8-1-1-2.1-1.6-3.5-1.6s-2.6.5-3.5 1.6c-1 1-1.4 2.3-1.4 3.8s.5 2.7 1.4 3.8c1 1 2.1 1.6 3.5 1.6s2.6-.5 3.5-1.6c.9-1 1.4-2.3 1.4-3.8zM138.6 56.9l-4.5 9.1h-2.2l-4.5-9.1v10.5h-3.7V50.7h5l4.3 9.1 4.3-9.1h5v16.7h-3.7zM157.9 52.3c1.2 1 1.8 2.5 1.8 4.6s-.6 3.6-1.8 4.5c-1.2 1-3 1.4-5.5 1.4h-2.2v4.6h-3.7V50.7h5.9c2.5.1 4.3.6 5.5 1.6zm-2.7 6.5c.4-.5.7-1.2.7-2.2s-.3-1.6-.9-2-1.5-.6-2.7-.6h-2.1v5.6h2.5c1.2 0 2-.3 2.5-.8zM167 63.1c.6.8 1.5 1.2 2.5 1.2s1.9-.4 2.5-1.2.9-1.8.9-3.2v-9.2h3.7V60c0 2.4-.7 4.3-2 5.6s-3 1.9-5.1 1.9-3.8-.7-5.1-2-2-3.2-2-5.6v-9.3h3.7v9.2c0 1.5.3 2.6.9 3.3zM187.5 54v13.4h-3.7V54h-4.7v-3.2h13.2V54zM195 50.8h3.7v16.7H195zM214.4 50.8h3.7v16.7h-3.7l-7.9-10.4v10.4h-3.7V50.8h3.5l8.2 10.7V50.8zM233.1 59h3.7v5.9c-1.7 1.8-3.9 2.8-6.9 2.8-2.4 0-4.5-.8-6.2-2.4s-2.5-3.7-2.5-6.1c0-2.5.8-4.5 2.5-6.2s3.7-2.5 6.1-2.5 4.5.8 6.2 2.4l-1.9 2.8c-.7-.7-1.4-1.1-2.1-1.3-.6-.2-1.3-.4-2-.4-1.4 0-2.6.5-3.6 1.4-1 1-1.5 2.2-1.5 3.8s.5 2.8 1.4 3.8c.9.9 2 1.4 3.3 1.4s2.4-.2 3.2-.7V59zM257.8 50.8v3.3h-7.7v3.6h7.3V61h-7.3v6.5h-3.7V50.8zM275 65.1c-1.7 1.6-3.8 2.5-6.2 2.5-2.5 0-4.5-.8-6.2-2.5-1.7-1.6-2.5-3.7-2.5-6.1s.8-4.5 2.5-6.1 3.8-2.5 6.2-2.5c2.5 0 4.5.8 6.2 2.5 1.7 1.6 2.5 3.7 2.5 6.1s-.8 4.5-2.5 6.1zm-1.3-6.1c0-1.5-.5-2.8-1.4-3.8-1-1-2.1-1.6-3.5-1.6s-2.6.5-3.5 1.6c-1 1-1.4 2.3-1.4 3.8s.5 2.7 1.4 3.8c1 1 2.1 1.6 3.5 1.6s2.6-.5 3.5-1.6c1-1 1.4-2.3 1.4-3.8zM285.1 63.1c.6.8 1.5 1.2 2.5 1.2s1.9-.4 2.5-1.2.9-1.8.9-3.2v-9.2h3.7V60c0 2.4-.7 4.3-2 5.6s-3 1.9-5.1 1.9-3.8-.7-5.1-2-2-3.2-2-5.6v-9.3h3.7v9.2c-.1 1.5.3 2.6.9 3.3zM310.2 50.8h3.7v16.7h-3.7l-7.9-10.4v10.4h-3.7V50.8h3.5l8.2 10.7V50.8zM330.7 53c1.6 1.5 2.4 3.5 2.4 6.1s-.8 4.6-2.3 6.1-3.9 2.3-7.1 2.3H318V50.8h5.9c3 0 5.3.7 6.8 2.2zm-2.7 9.9c.9-.9 1.4-2.1 1.4-3.7s-.5-2.9-1.4-3.8-2.3-1.3-4.2-1.3h-2.1v10.1h2.4c1.7-.1 3-.5 3.9-1.3zM347.7 67.4l-1.5-3.6h-7l-1.5 3.6h-4l7.2-16.7h3.6l7.2 16.7zm-5-11.7l-2.1 4.8h4.2zM359.5 54v13.4h-3.7V54H351v-3.2h13.2V54zM366.9 50.8h3.7v16.7h-3.7zM388.7 65.1c-1.7 1.6-3.8 2.5-6.2 2.5-2.5 0-4.5-.8-6.2-2.5-1.7-1.6-2.5-3.7-2.5-6.1s.8-4.5 2.5-6.1 3.8-2.5 6.2-2.5c2.5 0 4.5.8 6.2 2.5 1.7 1.6 2.5 3.7 2.5 6.1s-.8 4.5-2.5 6.1zm-1.2-6.1c0-1.5-.5-2.8-1.4-3.8-1-1-2.1-1.6-3.5-1.6s-2.6.5-3.5 1.6c-1 1-1.4 2.3-1.4 3.8s.5 2.7 1.4 3.8c1 1 2.1 1.6 3.5 1.6s2.6-.5 3.5-1.6c.9-1 1.4-2.3 1.4-3.8zM406 50.8h3.7v16.7H406l-7.9-10.4v10.4h-3.7V50.8h3.5l8.2 10.7zM15.5 47.7H6.4v21.4h21.3v-9.2H15.5zM61.3 47.8v12.1H49.1v-.1 9.3h21.3V47.7h-9.2zM6.4 26.4h9.2l-.1-.1V14.2h12.2V5H6.4zM49.1 5v9.2h12.2v12.2h9.1V5z"/><g opacity=".8"><path d="M47.9 26.4L35.7 14.2h13.4V5H27.7v9.2l12.2 12.2zM36.9 47.7h-8L39 57.8l2 2.1H27.7v9.2h21.4v-9.3l-6.1-6zM61.3 26.4v13.3l-2.1-2.1-10.1-10.1v8.1l6 6 6.1 6.1h9.2V26.4zM27.7 38.5L15.6 26.4H6.4v21.3h9.1V34.4l12.2 12.2z"/></g></g></svg>