<svg viewBox="0 0 870 145" fill="none" xmlns="http://www.w3.org/2000/svg"><path d="M837.394 144.089c11.019 0 21.364-4.273 29.685-8.995l-7.196-18.441c-5.847 3.373-13.044 6.072-21.365 6.072-21.814 0-26.087-15.518-26.087-37.557s2.699-39.355 17.766-39.355c12.819 0 17.767 15.967 15.743 39.355l7.421-9.445h-47.902l-.449 15.742h64.543c3.148-44.078-10.345-65.218-40.255-65.218-29.911 0-42.504 23.389-42.504 58.921 0 35.533 15.067 58.921 50.6 58.921zm-93.779 0c11.019 0 21.364-4.273 29.685-8.995l-7.196-18.441c-5.847 3.373-13.044 6.072-21.365 6.072-21.814 0-26.087-15.518-26.087-37.557s2.699-39.355 17.766-39.355c12.819 0 17.767 15.967 15.743 39.355l7.421-9.445h-47.901l-.45 15.742h64.543c3.149-44.078-10.345-65.218-40.255-65.218-29.91 0-42.504 23.389-42.504 58.921 0 35.533 15.067 58.921 50.6 58.921zm-100.301 0c23.164 0 40.48-11.694 40.48-38.681 0-19.565-11.919-32.834-30.36-44.303-11.469-7.196-15.292-12.369-15.292-18.89 0-7.872 6.747-12.594 15.067-12.594 6.972 0 13.044 1.349 19.116 5.397l7.646-19.34c-7.646-5.398-15.742-7.647-26.537-7.872-22.938-.45-41.154 13.269-41.154 36.432 0 16.867 9.22 25.413 26.986 37.782 11.919 8.32 18.891 14.168 18.891 23.388 0 10.345-7.421 16.192-18.891 16.192-7.871 0-15.967-3.823-22.264-6.971l-7.871 20.914c7.871 4.498 21.14 8.546 34.183 8.546zM480.719 127.673l5.173-7.647c-3.598 1.35-7.871 2.699-13.269 2.699-18.89 0-25.412-15.517-25.412-37.556 0-22.04 4.273-39.356 22.264-39.356 4.048 0 11.244-.675 17.541 6.971l-6.297-9.67v84.559zm-8.77 16.416c11.019 0 22.714-1.799 33.058-6.746V0l-24.288 4.498v28.946l11.92.45c-6.747-4.948-15.518-7.646-26.088-7.646-29.91 0-44.977 23.388-44.977 58.92 0 35.533 14.842 58.921 50.375 58.921zm95.578 0c11.019 0 21.364-4.272 29.685-8.995l-7.196-18.441c-5.847 3.373-13.044 6.072-21.365 6.072-21.814 0-26.087-15.517-26.087-37.556 0-22.04 2.699-39.356 17.766-39.356 12.819 0 17.767 15.967 15.743 39.355l7.421-9.445h-47.902l-.449 15.742h64.543c3.148-44.078-10.345-65.218-40.255-65.218-29.911 0-42.504 23.389-42.504 58.921 0 35.533 15.067 58.921 50.6 58.921zm-201.276-21.364c-15.068 0-19.341-15.517-19.341-37.556 0-22.04 4.273-39.356 19.341-39.356 15.067 0 19.34 17.316 19.34 39.355 0 22.04-4.273 37.557-19.34 37.557zm0 21.364c29.91 0 44.978-23.388 44.978-58.92 0-35.533-15.068-58.921-44.978-58.921-29.911 0-44.978 23.388-44.978 58.92 0 35.533 15.067 58.921 44.978 58.921zm-80.061 0a54.445 54.445 0 0029.685-8.77l-7.646-20.465c-5.847 3.598-12.369 6.297-19.565 6.297-20.24 0-29.686-19.79-29.686-46.102 0-28.337 11.47-44.079 30.585-44.079 6.072 0 12.369 2.474 17.317 5.173l8.096-20.015c-7.646-5.173-16.192-8.321-28.786-8.321-32.834 0-54.648 26.312-54.648 68.366 0 47.901 26.312 67.916 54.648 67.916zM78.133 26.414C55.355 36.21 27.677 57.52 0 84.708c27.677 27.187 55.6 48.741 78.378 58.539l9.063-23.269c-14.206-6.123-32.821-18.86-50.946-35.025 18.125-16.166 36.74-29.147 50.946-34.78l-9.308-23.76zM125.65 26.414l-9.307 23.758c14.206 5.634 32.821 18.615 50.946 34.78-18.125 16.166-36.74 28.903-50.946 35.026l9.063 23.269c22.778-9.798 50.701-31.352 78.378-58.54-27.677-27.187-55.355-48.496-78.134-58.293z" fill="#8E8787"/><path d="M101.892 104.792c10.686 0 19.35-8.663 19.35-19.35 0-10.686-8.664-19.349-19.35-19.349-10.687 0-19.35 8.663-19.35 19.35 0 10.686 8.663 19.349 19.35 19.349z" fill="#8E8787"/></svg>