<svg width="744" height="158" viewBox="0 0 744 158" fill="none" xmlns="http://www.w3.org/2000/svg">
<g clip-path="url(#clip0)">
<path d="M30.8499 126.906L75.192 38.2163L174.349 38.2099L130.007 126.9L30.8499 126.906Z" stroke="#8E8787" stroke-width="3.3"/>
<path d="M4.92997 142.927L49.272 54.2373L148.429 54.2309L104.087 142.921L4.92997 142.927Z" stroke="#8E8787" stroke-width="3.3"/>
<path d="M3.03935 110.888L47.3814 22.1988L146.538 22.1925L102.196 110.882L3.03935 110.888Z" stroke="#8E8787" stroke-width="3.3"/>
<path d="M66.5294 87.9341L82.545 80.5736L73.8919 73.2202L76.596 67.8162L93.3601 82.0623L62.332 96.3223L66.5294 87.9341Z" fill="#8E8787"/>
</g>
<path d="M245.023 125.471C236.801 125.471 230.17 123.305 225.131 118.973C220.092 114.641 217.572 108.674 217.572 101.07C217.572 98.8603 217.749 96.8269 218.103 94.9703C219.34 88.9585 220.092 85.4222 220.357 84.3613C222.744 74.6364 227.209 67.1218 233.751 61.8173C240.293 56.5128 248.471 53.8605 258.284 53.8605C264.738 53.8605 270.087 55.0098 274.33 57.3085C278.662 59.5187 281.801 62.3035 283.746 65.663C285.691 69.0225 286.663 72.2936 286.663 75.4763C286.663 76.272 286.619 76.8466 286.531 77.2003C286.442 78.0844 286.044 78.8358 285.337 79.4547C284.718 80.0735 283.967 80.383 283.083 80.383H271.015C269.158 80.383 268.186 79.4989 268.097 77.7307C268.097 71.0117 264.429 67.6522 257.091 67.6522C252.582 67.6522 248.648 69.1109 245.288 72.0284C242.017 74.8575 239.63 79.1895 238.127 85.0244L236.138 94.3072C235.784 96.1638 235.608 98.1088 235.608 100.142C235.608 107.834 239.321 111.679 246.747 111.679C254.085 111.679 259.478 108.453 262.926 101.999C263.456 101.026 263.987 100.363 264.517 100.01C265.136 99.5675 265.887 99.3465 266.771 99.3465H278.706C279.591 99.3465 280.298 99.6559 280.828 100.275C281.093 100.628 281.226 101.07 281.226 101.601C281.226 101.866 281.182 102.176 281.093 102.529C280.121 105.8 278.22 109.204 275.391 112.74C272.651 116.188 268.716 119.194 263.589 121.758C258.461 124.233 252.272 125.471 245.023 125.471Z" fill="#8E8787"/>
<path d="M326.621 125.471C317.692 125.471 310.752 123.305 305.801 118.973C300.85 114.641 298.374 108.762 298.374 101.336C298.374 100.098 298.551 98.153 298.905 95.5007C299.701 90.8151 300.54 86.9252 301.425 83.8309C303.812 74.4596 308.232 67.1218 314.686 61.8173C321.14 56.5128 329.538 53.8605 339.882 53.8605C348.811 53.8605 355.751 56.0265 360.702 60.3585C365.741 64.6905 368.261 70.6139 368.261 78.1286C368.261 79.2779 368.084 81.1786 367.731 83.8309C366.405 90.1963 365.565 94.0862 365.211 95.5007C362.736 104.96 358.315 112.342 351.95 117.647C345.584 122.863 337.141 125.471 326.621 125.471ZM327.947 112.342C332.721 112.342 336.788 110.884 340.147 107.966C343.507 104.96 345.894 100.584 347.308 94.8377C347.927 92.3623 348.679 88.9143 349.563 84.4939C349.916 81.8417 350.093 79.9851 350.093 78.9242C350.093 70.9675 346.247 66.9891 338.556 66.9891C333.782 66.9891 329.715 68.4921 326.356 71.498C323.085 74.5038 320.742 78.8358 319.327 84.4939C318.355 87.5882 317.603 91.0361 317.073 94.8377C316.719 96.6943 316.542 98.6834 316.542 100.805C316.542 108.497 320.344 112.342 327.947 112.342Z" fill="#8E8787"/>
<path d="M382.559 124.145C381.675 124.145 380.968 123.836 380.438 123.217C379.996 122.598 379.863 121.846 380.04 120.962L393.301 58.3694C393.478 57.4853 393.92 56.7338 394.627 56.1149C395.423 55.4961 396.263 55.1867 397.147 55.1867H408.021C408.905 55.1867 409.568 55.4961 410.01 56.1149C410.364 56.557 410.541 57.0874 410.541 57.7063C410.541 57.8831 410.496 58.1041 410.408 58.3694L409.214 63.8064C415.668 57.1758 423.36 53.8605 432.289 53.8605C439.627 53.8605 445.196 55.7171 448.998 59.4302C452.888 63.055 454.833 68.1827 454.833 74.8133C454.833 77.3771 454.479 80.3388 453.772 83.6983L445.815 120.962C445.639 121.935 445.152 122.73 444.357 123.349C443.649 123.88 442.854 124.145 441.97 124.145H430.3C429.416 124.145 428.708 123.836 428.178 123.217C427.736 122.598 427.603 121.846 427.78 120.962L435.472 84.4939C436.09 81.3997 436.4 79.101 436.4 77.5981C436.4 74.327 435.516 71.94 433.748 70.4371C432.068 68.8457 429.283 68.05 425.393 68.05C420.354 68.05 416.066 69.5088 412.53 72.4262C409.082 75.3437 406.783 79.3663 405.634 84.4939L397.942 120.962C397.766 121.935 397.324 122.73 396.616 123.349C395.909 123.88 395.113 124.145 394.229 124.145H382.559Z" fill="#8E8787"/>
<path d="M495.018 125.471C488.829 125.471 483.746 124.587 479.767 122.819C475.789 121.051 472.916 118.973 471.147 116.586C469.379 114.111 468.495 111.812 468.495 109.69C468.495 108.453 468.893 107.48 469.689 106.773C470.484 105.977 471.368 105.579 472.341 105.579H482.817C483.171 105.579 483.48 105.623 483.746 105.712C484.011 105.8 484.276 106.066 484.541 106.508C484.806 106.773 485.602 107.568 486.928 108.895C488.166 110.309 489.713 111.414 491.57 112.21C493.426 113.006 495.592 113.403 498.068 113.403C502.046 113.403 505.361 112.564 508.014 110.884C510.666 109.116 511.992 106.729 511.992 103.723C511.992 101.689 510.798 100.054 508.411 98.816C506.113 97.5783 501.737 96.2522 495.283 94.8377C489.183 93.5116 484.63 91.5666 481.624 89.0028C478.618 86.4389 477.115 83.1236 477.115 79.0568C477.115 77.4655 477.292 75.9626 477.645 74.548C478.353 71.0117 480.121 67.6964 482.95 64.6021C485.779 61.4194 489.492 58.8556 494.089 56.9106C498.686 54.8772 503.903 53.8605 509.737 53.8605C515.661 53.8605 520.568 54.7888 524.457 56.6454C528.347 58.502 531.132 60.7122 532.812 63.276C534.227 65.3978 534.934 67.3428 534.934 69.1109C534.934 69.4646 534.89 69.8182 534.801 70.1718C534.713 71.0559 534.271 71.8074 533.475 72.4262C532.768 73.0451 532.016 73.3545 531.221 73.3545H521.54C520.656 73.3545 519.993 73.0451 519.551 72.4262C519.02 71.8958 518.18 71.0117 517.031 69.774C515.882 68.6247 514.512 67.6964 512.92 66.9891C511.417 66.2819 509.472 65.9282 507.085 65.9282C503.814 65.9282 501.118 66.6355 498.996 68.05C496.874 69.4646 495.548 71.3211 495.018 73.6197C494.929 73.9734 494.885 74.548 494.885 75.3437C494.885 77.2003 495.99 78.7474 498.2 79.9851C500.41 81.2228 504.61 82.4606 510.798 83.6983C524.148 86.3505 530.823 91.876 530.823 100.275C530.823 101.159 530.646 102.573 530.292 104.518C528.966 110.707 525.165 115.746 518.888 119.636C512.699 123.526 504.742 125.471 495.018 125.471Z" fill="#8E8787"/>
<path d="M574.217 125.471C565.288 125.471 558.348 123.305 553.397 118.973C548.446 114.641 545.971 108.762 545.971 101.336C545.971 100.098 546.147 98.153 546.501 95.5007C547.297 90.8151 548.137 86.9252 549.021 83.8309C551.408 74.4596 555.828 67.1218 562.282 61.8173C568.736 56.5128 577.134 53.8605 587.478 53.8605C596.407 53.8605 603.348 56.0265 608.298 60.3585C613.338 64.6905 615.857 70.6139 615.857 78.1286C615.857 79.2779 615.68 81.1786 615.327 83.8309C614.001 90.1963 613.161 94.0862 612.807 95.5007C610.332 104.96 605.911 112.342 599.546 117.647C593.181 122.863 584.738 125.471 574.217 125.471ZM575.543 112.342C580.317 112.342 584.384 110.884 587.743 107.966C591.103 104.96 593.49 100.584 594.905 94.8377C595.523 92.3623 596.275 88.9143 597.159 84.4939C597.513 81.8417 597.689 79.9851 597.689 78.9242C597.689 70.9675 593.844 66.9891 586.152 66.9891C581.378 66.9891 577.311 68.4921 573.952 71.498C570.681 74.5038 568.338 78.8358 566.923 84.4939C565.951 87.5882 565.199 91.0361 564.669 94.8377C564.315 96.6943 564.139 98.6834 564.139 100.805C564.139 108.497 567.94 112.342 575.543 112.342Z" fill="#8E8787"/>
<path d="M630.156 124.145C629.271 124.145 628.564 123.836 628.034 123.217C627.592 122.598 627.459 121.846 627.636 120.962L646.334 33.173C646.511 32.289 646.953 31.5375 647.66 30.9186C648.368 30.2998 649.163 29.9904 650.047 29.9904H661.054C662.027 29.9904 662.778 30.2998 663.309 30.9186C663.662 31.3607 663.839 31.8911 663.839 32.51C663.839 32.6868 663.795 32.9078 663.706 33.173L645.008 120.962C644.831 121.935 644.345 122.73 643.549 123.349C642.842 123.88 642.046 124.145 641.162 124.145H630.156Z" fill="#8E8787"/>
<path d="M698.537 125.471C690.05 125.471 683.507 123.349 678.91 119.106C674.401 114.862 672.147 108.762 672.147 100.805C672.147 97.7994 672.368 95.1471 672.81 92.8485C672.987 91.434 673.473 89.2238 674.269 86.2179C676.833 76.1394 681.607 68.2269 688.591 62.4803C695.663 56.7338 704.062 53.8605 713.787 53.8605C722.451 53.8605 728.993 56.1149 733.414 60.6238C737.923 65.0442 740.177 71.1443 740.177 78.9242C740.177 81.8417 739.823 85.157 739.116 88.8701L738.453 91.655C738.276 92.5391 737.79 93.2905 736.994 93.9094C736.287 94.5283 735.447 94.8377 734.475 94.8377H690.447L690.182 95.8986C689.917 97.3131 689.784 98.7719 689.784 100.275C689.784 104.076 690.713 107.171 692.569 109.558C694.514 111.945 697.343 113.138 701.056 113.138C706.184 113.138 710.781 111.105 714.848 107.038C715.909 106.066 716.705 105.447 717.235 105.181C717.766 104.916 718.517 104.784 719.49 104.784H731.027C731.822 104.784 732.441 105.049 732.883 105.579C733.237 105.933 733.414 106.375 733.414 106.905C733.414 107.082 733.37 107.303 733.281 107.568C732.662 109.69 730.762 112.166 727.579 114.995C724.485 117.824 720.374 120.299 715.246 122.421C710.207 124.454 704.637 125.471 698.537 125.471ZM722.142 83.6983L722.274 83.3004C722.628 81.6207 722.805 79.9409 722.805 78.2612C722.805 74.4596 721.788 71.4537 719.755 69.2435C717.81 67.0333 714.981 65.9282 711.268 65.9282C706.67 65.9282 702.736 67.5196 699.465 70.7023C696.194 73.885 694.028 78.0844 692.967 83.3004L692.834 83.6983H722.142Z" fill="#8E8787"/>
<defs>
<clipPath id="clip0">
<rect width="177.268" height="124.239" fill="#8E8787" transform="translate(0.328125 20.0216)"/>
</clipPath>
</defs>
</svg>
