<svg width="173" height="76" viewBox="0 0 173 76" fill="none" xmlns="http://www.w3.org/2000/svg"><g clip-path="url(#clip0)" fill="#9E9E9E"><path d="M63.065 40.463L60.6 32.906l.003.01c-.002-.003-.002-.007-.003-.011v-.001l-4.896-14.997a1.928 1.928 0 00-1.85-1.313 1.902 1.902 0 00-1.826 1.325L47.38 32.153H32.716l-4.655-14.235a1.902 1.902 0 00-1.826-1.324h-.01c-.835 0-1.573.527-1.844 1.326L19.5 32.903v.001l-.004.012.003-.01-2.476 7.557a2.746 2.746 0 001.006 3.086l21.373 15.45.01.006.027.02-.026-.019.005.003.003.002h.001a1.1 1.1 0 00.103.063l.014.009.01.005.006.003.005.002.013.005c.018.009.038.016.057.024.018.007.035.016.053.022l.003.001.009.004.01.004h.005l.015.004.006.002c.026.008.052.013.079.019.01.002.02.006.03.007l.005.001.01.003c.006 0 .011.003.017.003.005.001.01 0 .014.002h.002c.051.007.102.012.154.012h.002c.052 0 .103-.005.154-.012h.003c.005-.001.01 0 .014-.002l.017-.003.01-.003h.004l.032-.008c.026-.006.052-.011.078-.02h.005l.015-.004.005-.001.011-.004.01-.004.002-.001.056-.023c.018-.008.036-.014.053-.023l.013-.005.005-.002.007-.003.01-.005.014-.01c.035-.018.07-.039.102-.062l.009-.005.002-.001.01-.006 21.376-15.45a2.746 2.746 0 001.005-3.086zm-9.199-21.15l4.193 12.84h-8.385l4.192-12.84zm3.458 15.012l-1.71 2.18L42.997 52.59l5.968-18.264h8.36zm-18.32 24.131l.005.01-.004-.01zm-1.913-5.866L22.77 34.325h8.36l5.96 18.265zM26.22 19.312l4.2 12.841h-8.384l4.184-12.84zm-6.91 22.48a.586.586 0 01-.213-.657l1.84-5.618L34.42 52.714 19.311 41.792zM39.363 58.97l-.012-.01-.003-.003a.978.978 0 01-.07-.062l.004.003.005.004c.032.03.065.058.1.084l.005.005-.029-.02zm.68-4.363l-3.507-10.748-3.11-9.534H46.67l-6.627 20.282zm.718 4.33l-.025.02-.003.003-.012.01c-.009.008-.019.014-.028.021l.005-.004c.035-.026.068-.054.099-.084l.004-.003.005-.005-.045.041zm20.016-17.145L45.67 52.711l13.487-17.193 1.832 5.616a.586.586 0 01-.212.658zM114.746 26.945h-2.979l.013 22.093h12.067v-2.732h-9.088l-.013-19.36zM135.329 45.161a5.094 5.094 0 01-3.689 1.55c-2.269 0-3.184-1.115-3.184-2.57 0-2.188 1.53-3.235 4.782-3.235.615 0 1.599.068 2.105.163v4.092h-.014zm-3.088-13.392a9.898 9.898 0 00-6.341 2.271l1.052 1.822c1.217-.707 2.706-1.414 4.852-1.414 2.446 0 3.525 1.25 3.525 3.344v1.075c-.478-.096-1.462-.164-2.063-.164-5.22 0-7.871 1.822-7.871 5.629 0 3.413 2.104 5.126 5.288 5.126 2.145 0 4.209-.98 4.919-2.57l.547 2.162h2.104V37.738c-.013-3.576-1.571-5.968-6.012-5.968zM147.865 46.813c-1.12 0-2.104-.136-2.842-.476v-10.21c1.011-.844 2.268-1.455 3.867-1.455 2.884 0 3.99 2.025 3.99 5.302 0 4.65-1.79 6.839-5.015 6.839zm1.258-15.037c-2.665 0-4.1 1.808-4.1 1.808v-2.855l-.014-3.78h-2.91l.013 21.55c1.463.611 3.458.938 5.63.938 5.562 0 8.24-3.535 8.24-9.64-.013-4.826-2.487-8.021-6.859-8.021zM82.31 29.342c2.638 0 4.346.87 5.453 1.754l1.284-2.216c-1.735-1.523-4.085-2.339-6.6-2.339-6.34 0-10.782 3.848-10.782 11.61 0 8.131 4.797 11.299 10.277 11.299 2.746 0 5.083-.64 6.614-1.278l-.069-8.688v-2.733h-8.13v2.733h5.192l.069 6.594c-.684.34-1.859.612-3.458.612-4.4 0-7.352-2.76-7.352-8.565-.013-5.915 3.034-8.783 7.503-8.783zM103.29 26.941h-2.911l.014 3.712V43.474c0 3.576 1.558 5.968 5.999 5.968.615 0 1.216-.054 1.79-.163v-2.597a8.564 8.564 0 01-1.353.096c-2.446 0-3.525-1.251-3.525-3.345v-8.837h4.878v-2.42h-4.878l-.014-5.235zM92.977 49.038h2.91V32.18h-2.91v16.858zM92.977 29.855h2.91v-2.896h-2.91v2.896z"/></g><defs><clipPath id="clip0"><path fill="#fff" d="M0 0h173v76H0z"/></clipPath></defs></svg>