<svg width="140" height="44" viewBox="0 0 140 44" fill="none" xmlns="http://www.w3.org/2000/svg">
    <path d="M47.0651 24.4631L44.599 16.9062C44.6001 16.9096 44.6005 16.9131 44.6016 16.9165C44.6003 16.9126 44.5997 16.9087 44.5986 16.9047C44.5984 16.9044 44.5984 16.9043 44.5984 16.904C44.5984 16.9039 44.5984 16.9038 44.5984 16.9038L39.7025 1.90743C39.4348 1.11738 38.6977 0.58715 37.8529 0.593812C37.0057 0.598163 36.289 1.11806 36.0269 1.91898L31.3796 16.1534H16.7163L12.0605 1.91817C11.7987 1.11806 11.0819 0.598163 10.2347 0.593812C10.2313 0.593812 10.228 0.593812 10.2244 0.593812C9.39019 0.593812 8.65186 1.12078 8.38116 1.91967L3.49876 16.9025L3.49807 16.9044C3.49807 16.9046 3.49807 16.9047 3.49807 16.9049C3.49684 16.9087 3.49629 16.9125 3.49506 16.9163C3.49616 16.9129 3.49657 16.9093 3.49766 16.9059L1.02237 24.4634C0.649995 25.6042 1.05407 26.8441 2.02812 27.5489L23.4009 42.999C23.404 43.0013 23.4076 43.0026 23.4107 43.0049C23.4199 43.0115 23.4287 43.0181 23.438 43.0243C23.4293 43.0184 23.4211 43.012 23.4125 43.006C23.4125 43.006 23.4125 43.0059 23.4123 43.0059C23.4137 43.007 23.4153 43.0077 23.4169 43.0086C23.4181 43.0094 23.4193 43.01 23.4205 43.0108C23.4207 43.0109 23.4208 43.0111 23.4211 43.0112C23.4542 43.034 23.4885 43.055 23.524 43.0741C23.5289 43.0769 23.5333 43.0803 23.5382 43.0828C23.5383 43.0828 23.5383 43.083 23.5385 43.083C23.5415 43.0845 23.5442 43.0864 23.5472 43.0879C23.5495 43.089 23.552 43.0896 23.5542 43.0907C23.5558 43.0915 23.5576 43.0921 23.5592 43.0928C23.5632 43.0947 23.5676 43.0959 23.5715 43.0979C23.5901 43.1068 23.6097 43.114 23.6288 43.1217C23.6467 43.1291 23.6641 43.1376 23.6824 43.144C23.6832 43.1443 23.6839 43.1447 23.6847 43.145C23.6877 43.1461 23.6904 43.1476 23.6936 43.1486C23.6974 43.15 23.7011 43.1515 23.7049 43.1527C23.7064 43.1531 23.7079 43.1534 23.7094 43.1538C23.7142 43.1553 23.7194 43.156 23.7242 43.1574C23.726 43.1579 23.728 43.1582 23.7299 43.1587C23.7556 43.1665 23.7823 43.172 23.8088 43.1779C23.8192 43.1802 23.8291 43.1835 23.8397 43.1854C23.8412 43.1856 23.8425 43.1862 23.8442 43.1864C23.8476 43.1871 23.8507 43.1884 23.8543 43.1889C23.8599 43.1898 23.8653 43.1916 23.8711 43.1924C23.8756 43.1931 23.8802 43.1928 23.8847 43.1935C23.8856 43.1936 23.8863 43.1935 23.8871 43.1937C23.8873 43.1937 23.8875 43.1937 23.8878 43.1937C23.9382 43.2009 23.9893 43.2059 24.0413 43.2059C24.0416 43.2059 24.0419 43.2059 24.0423 43.2059C24.0424 43.2059 24.0426 43.2059 24.0426 43.2059H24.0427C24.0428 43.2059 24.043 43.2059 24.0431 43.2059C24.0953 43.2059 24.1464 43.2009 24.197 43.1937C24.1971 43.1937 24.1974 43.1937 24.1975 43.1937C24.1984 43.1935 24.1992 43.1936 24.2 43.1935C24.2045 43.1928 24.2093 43.1931 24.2138 43.1924C24.2195 43.1915 24.225 43.1898 24.2307 43.1889C24.2342 43.1884 24.2373 43.1871 24.2407 43.1864C24.2422 43.1862 24.2436 43.1856 24.2451 43.1854C24.2558 43.1833 24.266 43.1801 24.2767 43.1777C24.3028 43.172 24.329 43.1665 24.3546 43.1588C24.3563 43.1583 24.3581 43.1582 24.3599 43.1576C24.3649 43.1561 24.3701 43.1554 24.3752 43.1539C24.3767 43.1534 24.3783 43.1533 24.3798 43.1529C24.3838 43.1516 24.3876 43.15 24.3914 43.1486C24.3945 43.1476 24.3972 43.1461 24.4002 43.145C24.401 43.1447 24.4017 43.1443 24.4025 43.144C24.4219 43.1372 24.4402 43.1283 24.4592 43.1205C24.4769 43.1132 24.4949 43.1066 24.5121 43.0985C24.5163 43.0964 24.5209 43.0952 24.525 43.0932C24.5266 43.0924 24.5285 43.0918 24.5301 43.091C24.5325 43.0899 24.5349 43.0892 24.5373 43.088C24.5404 43.0864 24.5434 43.0845 24.5464 43.083C24.5464 43.083 24.5465 43.083 24.5465 43.0828C24.5516 43.0803 24.5561 43.0766 24.5612 43.0739C24.5964 43.0548 24.6306 43.034 24.6635 43.0113C24.6661 43.0096 24.6691 43.0082 24.6719 43.0063C24.6725 43.0058 24.6734 43.0055 24.674 43.0049C24.6772 43.0026 24.6809 43.0011 24.684 42.9988L46.0598 27.5484C47.0334 26.8439 47.4373 25.6041 47.0651 24.4631ZM37.8663 3.31241L42.0585 16.1534H33.6743L37.8663 3.31241ZM41.3244 18.3248L39.6138 20.5054L26.9971 36.589L32.9652 18.3247H41.3244V18.3248ZM23.0046 42.4561C23.0046 42.4559 23.0046 42.4559 23.0046 42.4561C23.0057 42.4593 23.0074 42.4623 23.0085 42.4657C23.0074 42.4623 23.0057 42.4593 23.0046 42.4561ZM21.0905 36.5901L6.77113 18.3248H15.1309L21.0905 36.5901ZM10.2214 3.31227L14.4213 16.1534H6.03691L10.2214 3.31227ZM3.31127 25.7924C3.10411 25.6424 3.01829 25.3777 3.09769 25.1347L4.93769 19.5167L18.4201 36.7143L3.31127 25.7924ZM23.3633 42.9703C23.3591 42.9669 23.3549 42.9632 23.3509 42.9597C23.35 42.959 23.3492 42.958 23.3483 42.9574C23.3401 42.9506 23.332 42.9436 23.3241 42.9366C23.3085 42.9231 23.2932 42.9094 23.2786 42.895C23.2798 42.896 23.2812 42.897 23.2824 42.8981C23.284 42.8996 23.2858 42.9008 23.2874 42.9023C23.3187 42.9321 23.3517 42.9601 23.3861 42.9859C23.3865 42.9862 23.3868 42.9866 23.3872 42.9869C23.3888 42.9881 23.3902 42.9896 23.3918 42.9909C23.3823 42.9841 23.3724 42.9775 23.3633 42.9703ZM24.043 38.6066L20.5361 27.8588L17.4253 18.3248H30.6703L24.043 38.6066ZM24.7607 42.9364C24.7525 42.9435 24.7446 42.9506 24.7362 42.9574C24.7353 42.9582 24.7343 42.9591 24.7333 42.9599C24.7291 42.9633 24.7251 42.967 24.7211 42.9704C24.712 42.9776 24.7022 42.9841 24.6928 42.9911C24.6944 42.9898 24.6958 42.9882 24.6975 42.9871C24.6978 42.9869 24.6981 42.9866 24.6984 42.9863C24.7328 42.9605 24.7656 42.9328 24.7966 42.903C24.7978 42.9018 24.7994 42.9008 24.8006 42.8997C24.8022 42.8982 24.804 42.897 24.8055 42.8955C24.791 42.9096 24.776 42.9231 24.7607 42.9364ZM44.7766 25.7921L29.67 36.7109L43.1568 19.5181L44.9894 25.1337C45.0689 25.3777 44.9834 25.6425 44.7766 25.7921Z" fill="#9E9E9E" />
    <path d="M98.7458 10.9453H95.7668L95.7804 33.0383H107.847V30.3056H98.7594L98.7458 10.9453Z" fill="#9E9E9E" />
    <path d="M119.329 29.1613C118.578 29.9362 117.334 30.7112 115.64 30.7112C113.371 30.7112 112.456 29.5963 112.456 28.1416C112.456 25.9527 113.986 24.9058 117.238 24.9058C117.853 24.9058 118.837 24.9738 119.343 25.069V29.1613H119.329ZM116.241 15.7695C113.836 15.7695 111.622 16.6125 109.9 18.04L110.952 19.8618C112.169 19.1549 113.658 18.4479 115.804 18.4479C118.25 18.4479 119.329 19.6987 119.329 21.7924V22.8665C118.851 22.7713 117.867 22.7033 117.266 22.7033C112.046 22.7033 109.395 24.5252 109.395 28.3319C109.395 31.7445 111.499 33.4575 114.683 33.4575C116.828 33.4575 118.892 32.4786 119.602 30.8879L120.149 33.0497H122.253V21.738C122.24 18.1624 120.682 15.7695 116.241 15.7695Z" fill="#9E9E9E" />
    <path d="M131.865 30.8126C130.745 30.8126 129.761 30.6766 129.023 30.3367V21.1868V20.1263C130.034 19.2834 131.291 18.6716 132.89 18.6716C135.774 18.6716 136.88 20.6973 136.88 23.9739C136.88 28.6236 135.09 30.8126 131.865 30.8126ZM133.123 15.7757C130.458 15.7757 129.023 17.5839 129.023 17.5839V14.7288L129.009 10.9492H127.67H126.099L126.112 32.4984C127.575 33.1102 129.57 33.4365 131.742 33.4365C137.304 33.4365 139.982 29.9016 139.982 23.7972C139.969 18.9707 137.495 15.7757 133.123 15.7757Z" fill="#9E9E9E" />
    <path d="M66.3106 13.3417C68.948 13.3417 70.6561 14.2119 71.763 15.0956L73.0475 12.8795C71.312 11.3568 68.9616 10.541 66.4472 10.541C60.1066 10.541 55.6655 14.3886 55.6655 22.1517C55.6655 30.282 60.4619 33.4498 65.9416 33.4498C68.6883 33.4498 71.025 32.8108 72.5555 32.1718L72.4872 23.4841V22.4644V20.7514H64.3565V23.4841H69.5492L69.6175 30.078C68.9343 30.4179 67.7591 30.6898 66.1603 30.6898C61.7601 30.6898 58.8084 27.9299 58.8084 22.1246C58.7948 16.2104 61.8421 13.3417 66.3106 13.3417Z" fill="#9E9E9E" />
    <path d="M87.2901 10.9414H84.3795L84.3931 14.653V16.1758V17.0595V18.6094V27.4466V27.4738C84.3931 31.0495 85.951 33.4423 90.3921 33.4423C91.0071 33.4423 91.6083 33.3879 92.1823 33.2792V30.6824C91.7587 30.7503 91.3077 30.7775 90.8294 30.7775C88.3834 30.7775 87.3038 29.5267 87.3038 27.433V18.5958H92.1823V16.1758H87.3038L87.2901 10.9414Z" fill="#9E9E9E" />
    <path d="M76.9772 33.0384H79.8879V16.1797H76.9772V33.0384Z" fill="#9E9E9E" />
    <path d="M76.9772 13.8549H79.8879V10.959H76.9772V13.8549Z" fill="#9E9E9E" />
</svg>
