<svg width="271" height="43" viewBox="0 0 271 43" fill="none" xmlns="http://www.w3.org/2000/svg"><g clip-path="url(#clip0)" fill="#9E9E9E"><path d="M31.877 11.276h1.532l4.367-4.422.214-1.879c-8.127-7.266-20.53-6.48-27.704 1.75a19.954 19.954 0 00-4.228 7.95 2.335 2.335 0 011.532-.091l8.733-1.46s.443-.745.675-.7a10.795 10.795 0 0114.91-1.148h-.03z"/><path d="M43.997 14.676a19.947 19.947 0 00-5.929-9.682L31.941 11.2a11.093 11.093 0 013.998 8.754v1.102c3.013 0 5.455 2.474 5.455 5.525s-2.442 5.525-5.455 5.525H25.03l-1.089 1.118v6.628l1.089 1.102h10.91c7.834.061 14.236-6.322 14.297-14.257.036-4.82-2.307-9.327-6.24-12.021z"/><path d="M14.104 40.882h10.91v-8.845h-10.91a5.373 5.373 0 01-2.253-.498l-1.532.483-4.397 4.422-.383 1.552a13.964 13.964 0 008.565 2.886z"/><path d="M14.104 12.194C6.266 12.239-.046 18.71 0 26.648c.027 4.432 2.069 8.604 5.54 11.303l6.326-6.407c-2.744-1.255-3.965-4.53-2.726-7.309 1.24-2.78 4.472-4.016 7.216-2.76a5.503 5.503 0 012.726 2.76l6.327-6.408c-2.69-3.567-6.875-5.653-11.305-5.634zM79.281 34.708a13.86 13.86 0 01-10.11-4.205 13.729 13.729 0 01-4.244-10.119 13.757 13.757 0 014.243-10.118 13.863 13.863 0 0110.111-4.282 13.453 13.453 0 019.698 3.958l-2.726 2.81a9.762 9.762 0 00-6.972-2.795 9.662 9.662 0 00-7.2 3.103 10.214 10.214 0 00-2.959 7.37 10.191 10.191 0 002.958 7.278 10.188 10.188 0 0014.342.171 8.297 8.297 0 002.099-4.826h-9.194v-3.97h13.009c.126.8.178 1.61.153 2.422a12.515 12.515 0 01-3.356 9.157 12.965 12.965 0 01-9.852 4.046zm30.246-2.639a9.293 9.293 0 01-12.979 0 8.903 8.903 0 01-2.65-6.594 8.915 8.915 0 012.65-6.594 9.31 9.31 0 0112.979 0 8.916 8.916 0 012.651 6.595 8.909 8.909 0 01-2.666 6.593h.015zm-10.114-2.59a4.918 4.918 0 007.246 0 5.565 5.565 0 001.532-4.003 5.575 5.575 0 00-1.532-4.02 4.998 4.998 0 00-7.28 0 5.582 5.582 0 00-1.531 4.02 5.567 5.567 0 001.547 4.004h.018zm30.062 2.59a9.293 9.293 0 01-12.979 0 8.905 8.905 0 01-2.651-6.594 8.916 8.916 0 012.651-6.594 9.293 9.293 0 0112.979 0 8.916 8.916 0 012.651 6.595 8.893 8.893 0 01-2.651 6.593zm-10.111-2.59a4.918 4.918 0 007.017.233c.078-.077.157-.153.229-.232a5.573 5.573 0 001.532-4.005 5.58 5.58 0 00-1.532-4.019 4.994 4.994 0 00-7.276 0 5.58 5.58 0 00-1.532 4.02 5.569 5.569 0 001.547 4.004h.015zm23.226 13.515a7.968 7.968 0 01-5.103-1.646 9.508 9.508 0 01-2.973-3.818l3.492-1.475c.38.904.974 1.698 1.731 2.312a4.33 4.33 0 002.865.978 4.571 4.571 0 003.57-1.396 5.724 5.724 0 001.273-4.035V32.58h-.139a5.812 5.812 0 01-4.795 2.095 8.27 8.27 0 01-6.127-2.7 8.994 8.994 0 01-2.621-6.503 9.084 9.084 0 012.621-6.548 8.252 8.252 0 016.127-2.715 6.534 6.534 0 012.82.635c.763.336 1.441.84 1.993 1.476h.139v-1.476h3.799v16.527a9.714 9.714 0 01-2.436 7.217 8.522 8.522 0 01-6.236 2.406zm.277-11.917a4.435 4.435 0 003.462-1.552 5.783 5.783 0 001.393-3.973 5.908 5.908 0 00-1.393-4.05 4.424 4.424 0 00-3.462-1.551 4.71 4.71 0 00-3.585 1.551 5.698 5.698 0 00-1.532 4.02 5.592 5.592 0 001.532 3.973 4.72 4.72 0 003.585 1.582zM158.02 7.025V34.15h-3.999V7.025h3.999zm10.971 27.683a8.638 8.638 0 01-6.451-2.654 9.05 9.05 0 01-2.59-6.579 9.178 9.178 0 012.497-6.642 8.179 8.179 0 016.127-2.593 7.654 7.654 0 013.064.604 7.199 7.199 0 012.343 1.552 10.736 10.736 0 011.532 1.878c.356.578.658 1.185.905 1.814l.413 1.057-12.255 5.107a4.595 4.595 0 004.412 2.794 5.217 5.217 0 004.49-2.56l3.063 2.096a10.117 10.117 0 01-2.943 2.825 8.263 8.263 0 01-4.607 1.301zm-5.118-9.513l8.151-3.43a2.827 2.827 0 00-1.272-1.411 4.114 4.114 0 00-2.099-.544 4.702 4.702 0 00-3.293 1.475 4.949 4.949 0 00-1.487 3.91zM197.78 34.708c-6.972.122-12.72-5.504-12.84-12.565a9.87 9.87 0 01.003-.516c-.163-7.061 5.358-12.916 12.327-13.081.169-.003.341-.003.51-.003a11.375 11.375 0 019.086 4.095l-2.208 2.172a8.288 8.288 0 00-6.863-3.183 9.31 9.31 0 00-6.818 2.761 9.768 9.768 0 00-2.775 7.233 9.756 9.756 0 002.775 7.232 9.298 9.298 0 006.818 2.761 9.69 9.69 0 007.659-3.631l2.208 2.235a12.083 12.083 0 01-4.243 3.274 12.776 12.776 0 01-5.639 1.216zM213.59 34.149h-3.172V9.086h3.172v25.063zM218.771 19.064a8.793 8.793 0 0112.502 0 9.15 9.15 0 012.452 6.518 9.15 9.15 0 01-2.452 6.517 8.793 8.793 0 01-12.502 0 9.15 9.15 0 01-2.452-6.517 9.137 9.137 0 012.452-6.518zm2.358 11.02a5.302 5.302 0 007.768 0 6.262 6.262 0 001.641-4.5 6.237 6.237 0 00-1.641-4.498 5.302 5.302 0 00-7.768 0 6.257 6.257 0 00-1.64 4.499 6.242 6.242 0 001.655 4.483l-.015.016zM251.296 34.149h-3.063v-2.374h-.091a5.946 5.946 0 01-2.237 2.141 6.185 6.185 0 01-3.143.853 5.922 5.922 0 01-4.809-1.955 7.84 7.84 0 01-1.641-5.244V17.018h3.173v9.962c0 3.198 1.393 4.795 4.182 4.795a3.873 3.873 0 003.218-1.551 5.896 5.896 0 001.242-3.708v-9.498h3.172v17.13h-.003zM262.068 34.708a7.405 7.405 0 01-5.669-2.624 9.38 9.38 0 01-2.376-6.502 9.38 9.38 0 012.376-6.503 7.415 7.415 0 015.669-2.623 7.124 7.124 0 013.462.837 5.869 5.869 0 012.298 2.095h.138l-.138-2.373v-7.93H271V34.15h-3.064v-2.373h-.138a5.87 5.87 0 01-2.298 2.095 7.112 7.112 0 01-3.432.837zm.522-2.932c1.45.02 2.84-.59 3.814-1.677a6.333 6.333 0 001.532-4.517 6.338 6.338 0 00-1.532-4.518 5.129 5.129 0 00-7.659 0 6.262 6.262 0 00-1.532 4.5 6.262 6.262 0 001.532 4.498 5.017 5.017 0 003.845 1.713z"/></g><defs><clipPath id="clip0"><path fill="#fff" d="M0 0h271v43H0z"/></clipPath></defs></svg>