<svg id="Layer_1" data-name="Layer 1" xmlns="http://www.w3.org/2000/svg" xmlns:xlink="http://www.w3.org/1999/xlink" viewBox="0 0 250 250">
  <defs>
    <linearGradient id="linear-gradient" x1="96.78" y1="180.45" x2="175.18" y2="133.13" gradientUnits="userSpaceOnUse">
      <stop offset="0" stop-color="#fcee39"/>
      <stop offset="1" stop-color="#f37b3d"/>
    </linearGradient>
    <linearGradient id="linear-gradient-2" x1="113.3" y1="66.8" x2="184.85" y2="129.45" gradientUnits="userSpaceOnUse">
      <stop offset="0" stop-color="#ef5a6b"/>
      <stop offset="0.57" stop-color="#f26f4e"/>
      <stop offset="1" stop-color="#f37b3d"/>
    </linearGradient>
    <linearGradient id="linear-gradient-3" x1="117.88" y1="123.53" x2="75.47" y2="97.05" gradientUnits="userSpaceOnUse">
      <stop offset="0" stop-color="#7c59a4"/>
      <stop offset="0.38" stop-color="#af4c92"/>
      <stop offset="0.75" stop-color="#dc4183"/>
      <stop offset="0.94" stop-color="#ed3d7d"/>
    </linearGradient>
    <linearGradient id="linear-gradient-4" x1="117.11" y1="63.59" x2="75.71" y2="97.79" gradientUnits="userSpaceOnUse">
      <stop offset="0" stop-color="#ef5a6b"/>
      <stop offset="0.36" stop-color="#ee4e72"/>
      <stop offset="1" stop-color="#ed3d7d"/>
    </linearGradient>
  </defs>
  <title>logo_Jetbrains_4</title>
  <g>
    <path id="_Path_" data-name="&lt;Path&gt;" d="M183.59,131.7a4.64,4.64,0,0,0-6.19-6.9h0l-83.8,45.86a10.13,10.13,0,1,0,9.49,17.83h0c0.25-.16.49-0.33,0.72-0.51l78-54.84c0.47-.32,1.54-1.15,1.82-1.41h0Z" fill="url(#linear-gradient)"/>
    <path id="_Path_2" data-name="&lt;Path&gt;" d="M183.69,125h0L119.94,62.41a7.73,7.73,0,0,0-13.43,5.22h0A7.71,7.71,0,0,0,108.65,73h0l0,0a7.82,7.82,0,0,0,1.18,1l67.37,57.7h0A4.63,4.63,0,0,0,183.69,125Z" fill="url(#linear-gradient-2)"/>
    <path id="_Path_3" data-name="&lt;Path&gt;" d="M122,119.43c-0.09-.07-39.34-31.08-40.15-31.57l0,0h0A11.17,11.17,0,0,0,70.27,107h0a11.22,11.22,0,0,0,1.91.93c0.4,0.15,45.38,18.81,45.38,18.81h0A4.3,4.3,0,0,0,122,119.43Z" fill="url(#linear-gradient-3)"/>
    <path id="_Path_4" data-name="&lt;Path&gt;" d="M114.25,59.89a7.68,7.68,0,0,0-4.56,1.5L69.81,88.23l-0.23.16-0.05,0h0a11.18,11.18,0,0,0,13.1,18.11h0a11.15,11.15,0,0,0,1.79-1.62L119,73.74v0a7.73,7.73,0,0,0,3-6.09h0A7.76,7.76,0,0,0,114.25,59.89Z" fill="url(#linear-gradient-4)"/>
    <g id="_Group_" data-name="&lt;Group&gt;">
      <rect id="_Path_5" data-name="&lt;Path&gt;" x="99.52" y="97.3" width="50.96" height="50.96"/>
      <rect id="_Path_6" data-name="&lt;Path&gt;" x="103.92" y="138.71" width="19.11" height="3.18" fill="#fff"/>
      <g id="_Group_2" data-name="&lt;Group&gt;">
        <path id="_Compound_Path_" data-name="&lt;Compound Path&gt;" d="M103.7,110.72l1.48-1.4a1.68,1.68,0,0,0,1.31.77,1,1,0,0,0,.94-1.16v-5.26h2.29v5.27a3.09,3.09,0,0,1-.82,2.34,3.13,3.13,0,0,1-2.28.84A3.39,3.39,0,0,1,103.7,110.72Z" fill="#fff"/>
        <path id="_Compound_Path_2" data-name="&lt;Compound Path&gt;" d="M110.25,103.67h6.68v1.95h-4.4v1.27h4v1.82h-4V110H117v2h-6.74v-8.31Z" fill="#fff"/>
        <path id="_Compound_Path_3" data-name="&lt;Compound Path&gt;" d="M119.94,105.69h-2.48v-2h7.27v2h-2.49V112h-2.3v-6.29Z" fill="#fff"/>
        <path id="_Compound_Path_4" data-name="&lt;Compound Path&gt;" d="M103.92,113.92h4.26a3.11,3.11,0,0,1,2.27.74A1.87,1.87,0,0,1,111,116v0a1.92,1.92,0,0,1-1.28,1.85,2,2,0,0,1,1.65,2v0c0,1.42-1.16,2.29-3.14,2.29h-4.28v-8.31Zm4.79,2.56c0-.46-0.37-0.71-1-0.71h-1.51v1.46h1.45c0.7,0,1.1-.24,1.1-0.72v0Zm-0.79,2.36h-1.76v1.53h1.78c0.71,0,1.1-.27,1.1-0.76v0C109,119.14,108.69,118.84,107.91,118.84Z" fill="#fff"/>
        <path id="_Compound_Path_5" data-name="&lt;Compound Path&gt;" d="M111.69,113.92h3.93a3.68,3.68,0,0,1,2.71.89,2.59,2.59,0,0,1,.74,1.93v0a2.63,2.63,0,0,1-1.71,2.56l2,2.9h-2.65L115,119.71h-1v2.52h-2.3v-8.31Zm3.83,4a1,1,0,0,0,1.23-1v0a1,1,0,0,0-1.25-1H114v2h1.53Z" fill="#fff"/>
        <path id="_Compound_Path_6" data-name="&lt;Compound Path&gt;" d="M121.75,113.86H124l3.54,8.36H125l-0.59-1.49h-3.22l-0.59,1.49h-2.41Zm2,5.08-0.93-2.35-0.94,2.35h1.86Z" fill="#fff"/>
        <path id="_Compound_Path_7" data-name="&lt;Compound Path&gt;" d="M127.77,113.92h2.3v8.31h-2.3v-8.31Z" fill="#fff"/>
        <path id="_Compound_Path_8" data-name="&lt;Compound Path&gt;" d="M130.65,113.92h2.15l3.42,4.39v-4.39h2.28v8.31h-2l-3.56-4.56v4.56h-2.28v-8.31Z" fill="#fff"/>
        <path id="_Compound_Path_9" data-name="&lt;Compound Path&gt;" d="M138.63,121l1.28-1.53a4.3,4.3,0,0,0,2.69,1c0.63,0,1-.21,1-0.57v0c0-.36-0.27-0.53-1.41-0.81-1.77-.4-3.13-0.9-3.13-2.6v0c0-1.54,1.22-2.66,3.22-2.66a5.23,5.23,0,0,1,3.42,1.1l-1.15,1.63a4.08,4.08,0,0,0-2.33-.82c-0.56,0-.83.23-0.83,0.53v0c0,0.38.28,0.55,1.45,0.81,1.9,0.42,3.08,1,3.08,2.59v0c0,1.7-1.34,2.71-3.36,2.71A5.82,5.82,0,0,1,138.63,121Z" fill="#fff"/>
      </g>
    </g>
  </g>
</svg>
