<svg width="61" height="61" viewBox="0 0 61 61" fill="none" xmlns="http://www.w3.org/2000/svg">
<path d="M0.5 0.5H60.5V60.5H0.5V0.5Z" fill="#8E8787"/>
<path d="M7.03027 49.25H29.5303V53H7.03027V49.25Z" fill="#161616"/>
<path d="M6.08984 16L7.75984 14.42C7.91876 14.6708 8.13482 14.8804 8.39033 15.0316C8.64584 15.1828 8.93353 15.2714 9.22984 15.29C9.86984 15.29 10.2898 14.85 10.2898 13.98V8H12.8698V14C12.9084 14.4697 12.8512 14.9424 12.7017 15.3893C12.5521 15.8362 12.3134 16.2481 11.9998 16.6C11.6554 16.9203 11.251 17.1691 10.8099 17.3322C10.3688 17.4952 9.89974 17.5693 9.42984 17.55C8.78784 17.5921 8.14555 17.4723 7.56194 17.2014C6.97834 16.9306 6.47215 16.5175 6.08984 16V16Z" fill="#161616"/>
<path d="M14 8H21.53V10.19H16.53V11.63H21.02V13.63H16.6V15.12H21.6V17.33H14V8Z" fill="#161616"/>
<path d="M25.2297 10.29H22.4297V8H30.6397V10.27H27.8297V17.37H25.2297V10.29Z" fill="#161616"/>
<path d="M7.12988 21.0802H11.5499C12.476 21.0107 13.3922 21.3089 14.0999 21.9102C14.2981 22.1115 14.4535 22.3508 14.5566 22.6138C14.6597 22.8767 14.7085 23.1579 14.6999 23.4402C14.7111 23.896 14.5779 24.3436 14.3192 24.719C14.0606 25.0945 13.6898 25.3784 13.2599 25.5302C13.7919 25.6277 14.2716 25.912 14.6126 26.3319C14.9536 26.7517 15.1335 27.2795 15.1199 27.8202C15.1199 29.4302 13.8099 30.4102 11.5699 30.4102H7.12988V21.0802ZM12.1299 23.9702C12.1299 23.4502 11.7099 23.1702 10.9499 23.1702H9.65988V24.8102H10.8999C11.6899 24.8102 12.1499 24.5502 12.1499 24.0002L12.1299 23.9702ZM11.2299 26.6302H9.65988V28.3602H11.2799C12.0799 28.3602 12.5199 28.0502 12.5199 27.5002C12.5199 27.0002 12.1199 26.6302 11.2499 26.6302H11.2299Z" fill="#161616"/>
<path d="M16 21.0802H20.1C21.1922 21.0089 22.269 21.3678 23.1 22.0802C23.3941 22.3625 23.6261 22.7031 23.7811 23.0802C23.936 23.4573 24.0106 23.8626 24 24.2702C24.018 24.8926 23.8419 25.5053 23.4961 26.0231C23.1503 26.541 22.6519 26.9384 22.07 27.1602L24.31 30.4302H21.31L19.43 27.5902H18.56V30.4302H16V21.0802ZM20 25.5802C20.87 25.5802 21.39 25.1502 21.39 24.4702C21.39 23.7202 20.85 23.3502 19.99 23.3502H18.55V25.6102L20 25.5802Z" fill="#161616"/>
<path d="M27.5901 21H30.0901L34.0901 30.44H31.3001L30.6301 28.75H27.0001L26.3301 30.44H23.6201L27.5901 21ZM29.8601 26.73L28.8601 24.08L27.8001 26.73H29.8601Z" fill="#161616"/>
<path d="M34.46 21.0498H37.06V30.4198H34.46V21.0498Z" fill="#161616"/>
<path d="M38.0596 21.0498H40.4796L43.8496 26.0498V21.0498H46.4196V30.4198H44.1596L40.6296 25.2798V30.4198H38.0596V21.0498Z" fill="#161616"/>
<path d="M46.8594 28.9996L48.3094 27.2696C49.152 27.9761 50.21 28.3747 51.3094 28.3996C52.0194 28.3996 52.3894 28.1596 52.3894 27.7496C52.3894 27.3496 52.0794 27.1496 50.7994 26.8396C48.7994 26.3796 47.2694 25.8396 47.2694 23.9096C47.2694 22.1696 48.6394 20.9096 50.8894 20.9096C52.2835 20.856 53.6514 21.299 54.7494 22.1596L53.4894 23.9996C52.7307 23.4321 51.8163 23.111 50.8694 23.0796C50.2394 23.0796 49.9294 23.3296 49.9294 23.6796C49.9294 24.0996 50.2494 24.2896 51.5594 24.5896C53.6994 25.0496 54.9994 25.7496 54.9994 27.4996C54.9994 29.4096 53.4894 30.4996 51.2094 30.4996C49.6261 30.5394 48.0816 30.0068 46.8594 28.9996V28.9996Z" fill="#161616"/>
</svg>
