<svg xmlns="http://www.w3.org/2000/svg" viewBox="0 0 2000 2000"><defs><style>.cls-1{fill:#8E8787;}.cls-2{fill:#161616;}.cls-3{fill:#161616;}</style></defs><g id="Layer_3" data-name="Layer 3"><rect class="cls-1" width="2000" height="2000"/></g><g id="Layer_2" data-name="Layer 2"><path class="cls-2" d="M195.55,923.23,321.15,642h33.12l-125.6,281.2Zm137.79,0L458.94,642h33.12l-125.6,281.2Z"/><path class="cls-3" d="M737,893.55V671.71h31.25V893.55Zm0,0V863.87H883.88v29.68Z"/><path class="cls-3" d="M968.86,896.67q-25.93,0-40.15-12.5t-14.21-35.3q0-26.25,19.6-40.31t55.38-14.06a174.49,174.49,0,0,1,26.48,1.8,96,96,0,0,1,20.71,5.39l-6.88,22.49a114.16,114.16,0,0,0-20.46-2.73q-10-.39-20.47-.39-43.12,0-43.12,26.25,0,10.94,7.42,16.87t21,5.93q15.48,0,25.86-5.31t15.54-13.59a31.79,31.79,0,0,0,5.16-17V816.06l9.69,42.49h-13.13l5.31-5q0,14.38-6.64,24a39.85,39.85,0,0,1-18.66,14.37Q985.26,896.67,968.86,896.67Zm58.43-1.56-2.19-49.05-4.37-13.75V789.5q0-16.56-11.64-24.29t-34.6-8.36l-39.68-1.09,3.12-29.37,33.43.47q41.08.61,61,17.73t19.92,49.91v69l28.12,3.44v26.56Z"/><path class="cls-3" d="M1168.05,896.67q-32.49,0-49.29-21.4t-16.79-63q0-43.11,16.79-65.3t49.29-22.18q18.59,0,30.23,8.74T1212,757.94h12.81l-9.69,47.19q0-25.64-10.07-38.91T1175.39,753q-20,0-30.3,15t-10.32,44.37q0,27.81,10.32,42t30.3,14.21q19.53,0,29.61-13.28t10.07-38.9l11.25,47.18H1212q-1.56,15.63-13.2,24.37T1168.05,896.67Zm50.46-1.56-3.44-32.49V659.21h33.12V893.55Z"/><path class="cls-3" d="M1299.44,893.55V866.37h66.23v27.18Zm9.37-138.42V728h86.86v27.18ZM1378,701.7a23.06,23.06,0,1,1,16.4-6.79A22.26,22.26,0,0,1,1378,701.7Zm-15.47,191.85V737.32h33.12V893.55Zm30,0V866.37h54v27.18Z"/><path class="cls-3" d="M1571.58,896.67q-42.35,0-65.38-22.26t-23-64q0-40.62,19.52-63.12t55.15-22.49q33.59,0,52,20.3t18.35,59.06q0,11.4-.93,21.24H1511v-25.3h87.18q0-22.35-10.62-34.3t-29.38-12q-21.09,0-32.72,14.38t-11.64,40.61q0,28.75,16,43.75t45.54,15a174.72,174.72,0,0,0,20.31-1.17q10-1.17,20.31-3.2L1620,892.3a219,219,0,0,1-26.87,3.59Q1581,896.67,1571.58,896.67Z"/><path class="cls-3" d="M1730.31,896.67q-18.75,0-32.11-1.09a178.79,178.79,0,0,1-24.45-3.59l3.75-30q16.41,2.5,29,3.75t23.83,1.25q25.14,0,36.47-4.92t11.33-15.7q0-7.5-4-11.17t-12.27-5.7l-38.12-9.69q-24.52-6.24-36-15.47t-11.48-28q0-27.18,20.86-39.37t67.25-12.18q12,0,22.42.7t21.33,2.42l-3.44,28.74q-12.66-1.25-22.34-1.71t-18.9-.47q-27.81,0-40.31,4.76t-12.5,15.55q0,7.18,5.16,10.39t15.78,5.85l30.62,7.5q26.08,6.26,38.19,16.72t12.11,30.46q0,26.71-19.53,38.83T1730.31,896.67Z"/><path class="cls-3" d="M174.61,1277.49V1250.3h66.24v27.19ZM184,1139.07v-27.18h86.86v27.18Zm69.2-53.43a23.06,23.06,0,1,1,16.41-6.79A22.25,22.25,0,0,1,253.19,1085.64Zm-15.46,191.85V1121.26h33.12v156.23Zm30,0V1250.3h54.06v27.19Z"/><path class="cls-3" d="M363.33,1277.49v-165.6h30l3.12,35v130.61Zm101.86,0v-107.8q0-15-7.81-23.12t-21.87-8.12q-39.06,0-39.06,45.93l-9.68-42.5h12.81q1.41-16.71,12.18-24.91t31.56-8.21q26.25,0,40.62,15.94t14.37,45v107.8Z"/><path class="cls-3" d="M733.9,1277.49V1055.65h31.25v221.84Zm29.06,0V1247.8h24.68q34.22,0,51.48-19.52t17.26-58.59q0-42.33-17.26-63.35t-51.48-21H763.58l-3.75-29.68h27.81q101.55,0,101.55,114,0,107.8-101.55,107.8Z"/><path class="cls-3" d="M1009.17,1280.61q-42.34,0-65.38-22.26t-23-64q0-40.62,19.52-63.12t55.15-22.5q33.58,0,51.95,20.31t18.35,59.06q0,11.4-.93,21.24H948.55v-25.31h87.18q0-22.33-10.63-34.29t-29.37-12q-21.09,0-32.73,14.37t-11.63,40.62q0,28.76,16,43.75t45.54,15a174.72,174.72,0,0,0,20.31-1.17q10-1.17,20.31-3.2l4.06,29.06a219,219,0,0,1-26.87,3.59Q1018.54,1280.61,1009.17,1280.61Z"/><path class="cls-3" d="M1158.68,1277.49l-59.21-165.6h35.3l44.53,137.48h2.81l44.52-137.48h35.31l-59.21,165.6Z"/><path class="cls-3" d="M1368.17,1280.61q-34.37,0-53.42-22.49t-19.06-63.43q0-41.09,19.06-63.51t53.42-22.42q34.53,0,53.51,22.42t19,63.51q0,40.93-19,63.43T1368.17,1280.61Zm0-29.68q18.28,0,28.2-14.69t9.92-41.55q0-27-9.92-41.64t-28.2-14.6q-18.27,0-28.19,14.6t-9.92,41.64q0,26.86,9.92,41.55T1368.17,1250.93Z"/><path class="cls-3" d="M1488.16,1349.35V1111.89h30l3.13,35v202.47Zm80.14-68.74q-19.07,0-30.7-8.75t-13.2-24.37H1510l11.25-47.18q0,25.62,10.07,38.9t29.61,13.28q20,0,30.3-14.22t10.32-42q0-29.37-10.32-44.37t-30.3-15q-19.53,0-29.61,13.28t-10.07,38.9L1510,1141.88h12.81q2.17-15.62,14.14-24.37t31.32-8.75q32.65,0,49.37,22.19t16.71,65.3q0,41.57-16.71,63T1568.3,1280.61Z"/><path class="cls-3" d="M1730.31,1280.61q-18.75,0-32.11-1.09a177.19,177.19,0,0,1-24.45-3.6l3.75-30q16.41,2.5,29,3.75t23.83,1.25q25.14,0,36.47-4.92t11.33-15.7q0-7.5-4-11.17t-12.27-5.71l-38.12-9.68q-24.52-6.26-36-15.47t-11.48-28q0-27.18,20.86-39.37t67.25-12.19q12,0,22.42.71t21.33,2.42l-3.44,28.74q-12.66-1.25-22.34-1.71t-18.9-.47q-27.81,0-40.31,4.76t-12.5,15.55q0,7.18,5.16,10.39t15.78,5.85l30.62,7.5q26.08,6.26,38.19,16.72t12.11,30.46q0,26.71-19.53,38.82T1730.31,1280.61Z"/><path class="cls-2" d="M1858.13,1331v-288.9h17V1331Z"/></g></svg>