<svg width="149" height="43" viewBox="0 0 149 43" fill="none" xmlns="http://www.w3.org/2000/svg"><path d="M149 0H0v43h149V0z" fill="#9E9E9E"/><path d="M142.31 30.865a2.826 2.826 0 01-.782.128c-.872 0-1.282-.376-1.282-1.458V21.36c0-4.293-3.39-6.383-7.398-6.383-3.062 0-4.708.376-7.979 1.707l-.73 4.33 4.254.46.604-2.121c.871-.459 1.736-.541 2.853-.541 3.017 0 3.062 2.293 3.062 4.21v.624c-.954-.128-2.026-.165-3.062-.165-4.254 0-8.679 1.082-8.679 5.714 0 3.917 3.054 5.384 5.744 5.384 3.017 0 4.917-1.835 5.99-3.752.245 2.293 1.609 3.752 4.09 3.752 1.154 0 2.354-.331 3.345-.88l-.03-2.835zm-11.443-.12c-1.61 0-2.191-.962-2.191-2.173 0-2.045 1.654-2.586 3.554-2.586.864 0 1.818.127 2.689.248-.126 3.135-2.153 4.511-4.052 4.511zm-7.16-25.278l-8.061 28.699h-5.252l8.061-28.7h5.252zm-10.825 0l-8.061 28.699h-5.244l8.061-28.7h5.244zm-22.38 9.887h5.58v6.752h-5.58v-6.752zm0 12.053h5.58v6.759h-5.58v-6.76zm-8.12-.248l4.217.413-1.155 6.594H69.158l-.536-2.834 10.251-11.888h-5.826l-.827 2.918-3.844-.421.663-6.594h16.368l.417 2.834-10.34 11.895h6.034l.864-2.918zm-26.708-12.18c-6.698 0-10.005 4.548-10.005 10.052 0 6.007 3.97 9.549 9.714 9.549 5.953 0 10.252-3.797 10.252-9.805 0-5.256-3.271-9.797-9.961-9.797zm-.127 15.473c-2.89 0-4.38-2.504-4.38-5.76 0-3.549 1.69-5.586 4.425-5.586 2.518 0 4.544 1.707 4.544 5.504 0 3.586-1.817 5.842-4.589 5.842zm-14.676-.376h2.48v4.09h-7.815V23.572c0-3.256-1.072-4.504-3.18-4.504-2.564 0-3.599 1.835-3.599 4.466v6.542h2.48v4.09H23.43V23.572c0-3.256-1.073-4.504-3.18-4.504-2.564 0-3.6 1.835-3.6 4.466v6.542h3.554v4.09H8.844v-4.09h2.48v-10.64h-2.48v-4.09h7.807v2.835c1.117-2 3.062-3.21 5.662-3.21 2.69 0 5.163 1.293 6.079 4.045 1.035-2.504 3.144-4.045 6.08-4.045 3.344 0 6.406 2.045 6.406 6.503v8.602h-.007z" fill="#1C1C1C"/></svg>