<svg width="139" height="40" fill="none" xmlns="http://www.w3.org/2000/svg"><path d="M20 40c11.046 0 20-8.954 20-20S31.046 0 20 0 0 8.954 0 20s8.954 20 20 20Z" fill="#8E8787"/><path d="M13.044 20c0-3.81 3.147-6.957 7.105-6.957a7.144 7.144 0 0 1 5.568 2.636 2.235 2.235 0 1 0 3.474-2.816A11.615 11.615 0 0 0 20.15 8.57C13.79 8.57 8.572 13.655 8.572 20c0 6.345 5.217 11.428 11.577 11.428 3.652 0 6.92-1.673 9.042-4.291a2.237 2.237 0 0 0-3.474-2.817 7.143 7.143 0 0 1-5.568 2.636c-3.958 0-7.105-3.148-7.105-6.956Z" fill="#292929"/><path d="m75.365 29.421-5.702-8.338v8.338h-3.175V3.306h3.175v15.837l5.702-8.234h4.138l-6.446 8.926 6.446 9.586h-4.138Zm12.862 0c-1.385 0-2.533-.44-3.445-1.319-.912-.88-1.38-2.103-1.402-3.672V13.904h-2.978V10.91h2.978V6.52h3.185v4.39h4.155v2.995h-4.155v9.456c0 1.165.22 1.955.658 2.371.44.416.935.624 1.49.624.253 0 .501-.03.744-.089.242-.06.467-.137.675-.232l1.004 2.924c-.83.31-1.8.463-2.909.463Zm12.103-18.51c2.645 0 4.519.884 6.314 2.526 1.796 1.642 2.967 4.337 2.755 7.475H94.954c.05 1.721.631 2.7 1.747 3.752 1.116 1.052 2.45 1.578 4.003 1.578 2.135 0 3.921-1.107 4.816-3.155h3.52c-.475 2.093-2.216 4.2-3.643 5.08-1.428.882-3.027 1.255-4.822 1.255-2.62 0-4.78-.884-6.478-2.653-1.698-1.768-2.564-4.172-2.564-6.873 0-2.677.814-4.534 2.464-6.315 1.65-1.78 3.76-2.67 6.332-2.67h.001Zm29.369.03c5.05 0 9.144 4.137 9.144 9.24 0 5.104-4.094 9.241-9.144 9.241s-9.144-4.137-9.144-9.24c0-5.104 4.094-9.242 9.144-9.242Zm-73.944 0c5.05 0 9.144 4.137 9.144 9.24 0 5.104-4.094 9.241-9.144 9.241s-9.144-4.137-9.144-9.24c0-5.104 4.094-9.242 9.144-9.242Zm60.23-4.42v4.39h4.155v2.994h-4.155v9.456c0 1.165.219 1.955.658 2.371.438.416.935.624 1.489.624.254 0 .502-.03.744-.089.232-.055.458-.133.675-.232l1.004 2.924c-.831.31-1.8.463-2.908.463-1.385 0-2.533-.44-3.445-1.319-.912-.88-1.379-2.103-1.403-3.672V13.904h-2.977V10.91h2.977V6.52h3.186v.001Zm13.714 7.701c-3.257 0-5.897 2.668-5.897 5.96 0 3.29 2.64 5.96 5.897 5.96s5.897-2.67 5.897-5.96c0-3.292-2.64-5.96-5.897-5.96Zm-73.944 0c-3.257 0-5.897 2.668-5.897 5.96 0 3.29 2.64 5.96 5.897 5.96s5.897-2.67 5.897-5.96c0-3.292-2.64-5.96-5.897-5.96Zm44.81-.35a5.458 5.458 0 0 0-3.452 1.248c-.918.772-1.722 1.81-2.016 3.113h10.912a5.45 5.45 0 0 0-1.953-3.113c-1.039-.83-1.948-1.248-3.491-1.248Z" fill="#8E8787"/></svg>