<svg viewBox="0 0 601 156" fill="none" xmlns="http://www.w3.org/2000/svg"><path d="M39 100.601v16.2L.1 78.001l8.1-8.1L39 100.6zm16.2 16.3H39l38.9 38.9 8.1-8.1-30.8-30.8zm92.3-30.8l8.1-8.1L77.9.3l-8.1 8.1 30.8 30.8H82L60.5 17.8l-8.1 8.1 13.3 13.3h-9.3v60.3h60.3v-9.3l13.3 13.3 8.1-8.1L116.7 74V55.4l30.8 30.7zM43 35.1l-8.1 8.1 8.7 8.7 8.1-8.1-8.7-8.7zm69.1 69l-8.1 8.1 8.7 8.7 8.1-8.1-8.7-8.7zm-86.5-51.6l-8.1 8.1L39 82.1V65.9L25.6 52.5zM90 116.9H73.8l21.5 21.5 8.1-8.1-13.4-13.4zM589.5 116.799c-5.2 0-9.3-1.4-12.3-4.3s-4.4-6.8-4.4-11.8v-31.1h-9.4V58h9.4l1.7-15.5h11.1V58H600v11.7h-14.4V99c0 1.6.6 3.2 1.7 4.3.6.6 1.2 1.1 2 1.4.8.3 1.6.5 2.4.4h8.4v11.7h-10.6zm-56.5 1.1c-7 0-12.6-1.7-16.8-5-4.2-3.3-7.1-8-8.2-13.3h13.9c.6 2 2 3.7 3.8 4.8 2.2 1.3 4.8 1.9 7.3 1.8 7.4 0 11.1-2.1 11.1-6.1 0-2-1.2-3.5-3.5-4.6-2.7-1.2-5.5-2-8.4-2.5-3.3-.6-6.6-1.5-10-2.4-3.3-1-6.3-3-8.5-5.7-2.3-2.8-3.5-6.4-3.5-10.9 0-2.4.5-4.7 1.5-6.8 1-2.1 2.5-4 4.4-5.5 3.9-3.3 9.4-4.9 16.3-4.9 7 0 12.5 1.6 16.6 4.7 4.1 3.1 6.9 7.6 7.9 12.6H543c-1.5-3.7-5-5.6-10.5-5.6-5.9 0-8.9 1.9-8.9 5.6 0 .9.2 1.7.7 2.4.4.7 1.1 1.3 1.8 1.7 1.9 1.1 4 1.9 6.2 2.2 2.8.5 5.5 1.1 8.2 1.9 2.8.8 5.5 1.8 8.2 2.9 2.6 1.2 4.8 3.1 6.3 5.5 1.8 2.8 2.6 6.1 2.5 9.4.1 2.5-.5 4.9-1.6 7.1-1.1 2.2-2.7 4.2-4.7 5.6-4.1 3.4-10.2 5.1-18.2 5.1zm-41.3-55.2c-4.3-3.8-10.3-5.8-18-5.8-6.1 0-11.3 1.7-15.5 5-4.1 3.2-7 7.7-8.2 12.8h13.1c.7-1.9 1.9-3.6 3.6-4.7 2-1.4 4.5-2.1 6.9-2 3.6 0 6.4.9 8.5 2.8 1.1 1 1.9 2.2 2.4 3.5.5 1.3.8 2.8.7 4.2v2.8h-15c-6.9 0-12.3 1.7-16.3 5.2-1.9 1.6-3.4 3.6-4.4 5.9-1 2.3-1.5 4.7-1.5 7.2-.1 2.5.4 4.9 1.3 7.2s2.4 4.3 4.2 6c3.6 3.5 8.5 5.2 14.5 5.2 3.7.1 7.4-.8 10.7-2.5 2.7-1.3 4.9-3.3 6.5-5.8h.5l1.1 7.3h11.1v-38.3c.2-6.8-2-12.1-6.2-16zm-6.3 31.4c.1 1.7-.2 3.5-.9 5.1-.7 1.6-1.7 3.1-3 4.2-2.6 2.3-6.1 3.4-10.6 3.4-3.2 0-5.7-.7-7.4-2.2-.8-.7-1.5-1.5-1.9-2.5-.4-1-.7-2-.6-3.1 0-5.2 3.4-7.8 10-7.8h14.4v2.9zM414.8 118c-8.4 0-15.2-2.7-20.2-8.1-5-5.4-7.6-12.9-7.6-22.4 0-9.5 2.5-17 7.5-22.4 5-5.4 11.8-8.1 20.2-8.1 6.9 0 12.6 1.8 17.1 5.5 4.4 3.5 7.6 8.4 9 13.9h-12.7c-1.2-2.4-3.2-4.5-5.5-5.8-2.4-1.4-5.1-2-7.8-1.9-2.1-.1-4.1.3-6 1.2-1.9.9-3.6 2.1-4.9 3.7-2.8 3.3-4.1 7.9-4.1 13.9s1.4 10.6 4.1 13.9c1.3 1.6 3 2.9 4.9 3.8 1.9.9 4 1.3 6 1.2 2.7.1 5.4-.6 7.8-1.9 2.4-1.4 4.3-3.4 5.5-5.8h12.7c-1.4 5.5-4.6 10.4-9 13.9-4.4 3.6-10.1 5.4-17 5.4zm-75 21.1l8.9-22.2-23.8-58.8h13.9l16.1 41.6h.5l16.1-41.6h13.9l-32.2 81.1h-13.4v-.1zm-27-76.4c-4.3-3.8-10.3-5.8-18-5.8-6.1 0-11.3 1.6-15.5 5-4.1 3.2-7 7.7-8.2 12.8h13.1c.7-1.9 1.9-3.6 3.6-4.7 2-1.4 4.5-2.1 6.9-2 3.6 0 6.5.9 8.5 2.8 1.1 1 1.9 2.2 2.4 3.5.5 1.3.8 2.8.7 4.2v2.8h-15c-6.9 0-12.3 1.7-16.3 5.2-1.9 1.6-3.4 3.6-4.4 5.9-1 2.3-1.5 4.7-1.5 7.2-.1 2.5.4 4.9 1.3 7.2s2.4 4.3 4.2 6c3.6 3.5 8.5 5.2 14.5 5.2 3.7.1 7.4-.8 10.7-2.5 2.7-1.3 4.9-3.3 6.5-5.8h.5l1.1 7.3H319v-38.3c.2-6.8-1.9-12.1-6.2-16zm-6.3 31.4c.1 1.7-.2 3.5-.9 5.1-.7 1.6-1.7 3.1-3 4.2-2.6 2.3-6.1 3.4-10.6 3.4-3.2 0-5.7-.7-7.4-2.2-.8-.7-1.5-1.5-1.9-2.5-.4-1-.7-2-.6-3.1 0-5.2 3.4-7.7 10-7.8h14.4v2.9zm-65.7-6.6c2-.5 3.9-1.3 5.7-2.2 2.1-1.2 4.1-2.5 5.9-4.1 2.2-2 3.9-4.5 4.9-7.3 1.3-3.2 1.9-6.7 1.8-10.2 0-7.4-2.4-13.3-7.1-17.8-4.7-4.5-10.9-6.7-18.4-6.7h-32.2v77.7h13.9v-28.8h10.5l20 28.8h15.5l-20.5-29.4zm-25.5-11.7V51.4h17.2c3.9 0 7 1.1 9.3 3.2 2.3 2.1 3.4 5.1 3.4 9 0 3.8-1.2 6.8-3.5 9-2.5 2.2-5.8 3.4-9.2 3.2h-17.2z" fill="#8E8787"/></svg>