<svg version="1.1" id="Layer_1" xmlns="http://www.w3.org/2000/svg" x="0" y="0" viewBox="0 0 864 206.6" xml:space="preserve"><style>.st0{fill:#8e8787}</style><g id="gray-rgb"><g id="logoMark_1_"><g id="XMLID_1_"><path class="st0" d="M861.2 86.9v76.5c0 1-.9 1.9-1.9 1.9h-21.6c-1 0-1.9-.9-1.9-1.9V86.9c0-1 .9-1.9 1.9-1.9h21.6c1 0 1.9.9 1.9 1.9zM864 58.2c0 8.1-6.9 14.8-15.5 14.8s-15.8-6.8-15.8-14.8c0-8.4 7.2-14.8 15.8-14.8S864 49.7 864 58.2zM814.5 86.9v76.5c0 1-.9 1.9-1.9 1.9h-21.7c-1 0-1.9-.9-1.9-1.9v-7.1c0-.4-.4-.5-.7-.2-5.6 7-15 11.3-24.8 11.3-22.5 0-38.3-17-38.3-42.1C725.2 100 741 83 763.9 83c9.4 0 18.8 4 24.4 10.8.2.3.7.1.7-.2V87c0-1.2.9-2 1.9-2h21.7c1 0 1.9.9 1.9 1.9zm-44.7 56.9c10.3 0 18.4-8.8 18.4-18.6 0-10.5-8.3-18.7-18.6-18.7-10.8 0-18.4 8.4-18.4 18.7 0 9.8 7.6 18.6 18.6 18.6zM695.8 136.5c8.6 0 15.8 6.4 15.8 15 0 8.9-7.2 15.3-15.8 15.3-8.4 0-15.5-6.3-15.5-15.3 0-8.6 7-15 15.5-15zM662.9 122.1v41.3c0 1-.9 1.9-1.9 1.9h-21.7c-1 0-1.9-.9-1.9-1.9v-40.6c0-12.4-6.2-16.3-12.7-16.3-7.9 0-13.8 5.5-13.8 19.6v37.3c0 1-.9 1.9-1.9 1.9h-21.7c-1 0-1.9-.9-1.9-1.9v-40.1c0-12.4-6.2-16.9-12.6-16.9-6.9 0-13.9 3.4-13.9 16.9v40.1c0 1-.9 1.9-1.9 1.9h-21.6c-1 0-1.9-.9-1.9-1.9V86.9c0-1 .9-1.9 1.9-1.9H557c1 0 1.9.9 1.9 1.9v10.3c0 .4.6.5.7.1 3.1-9.9 13.6-14.4 20.9-14.4 11.6 0 20.3 5.4 25.1 14.7.1.3.5.3.6 0 5.7-10.2 17.7-14.7 26-14.7 20.4 0 30.7 14.6 30.7 39.2zM512.3 86.9v76.5c0 1-.9 1.9-1.9 1.9h-21.6c-1.1 0-1.9-.9-1.9-1.9V86.9c0-1 .9-1.9 1.9-1.9h21.6c1 0 1.9.9 1.9 1.9zM499.6 43.4c8.6 0 15.4 6.3 15.4 14.8 0 8.1-6.9 14.8-15.5 14.8s-15.7-6.8-15.7-14.8c0-8.4 7.2-14.8 15.8-14.8zM465.5 43.2v120.2c0 1-.9 1.9-1.9 1.9H442c-1.1 0-1.9-.9-1.9-1.9V43.2c0-1 .9-1.9 1.9-1.9h21.6c1 0 1.9.9 1.9 1.9zM421.2 107.9c.1 1.1-.8 2-1.9 2h-20.4c-.9 0-1.7-.7-1.9-1.6-.7-4.1-4-6.1-8.5-6.1-4.3 0-7.9 2.1-7.9 5.5 0 3.1 2.8 4.8 6.9 5.8l13.9 3.8c20.1 5.5 21.8 18.2 21.8 23.7 0 17.7-18.4 26.1-34.6 26.1-17.2 0-33.6-9.1-34.8-25.9-.1-.9.8-1.9 1.9-1.9h20.4c.9 0 1.7.7 1.9 1.6.7 3.5 3.7 7 10 7 5.3 0 9.8-2.8 9.8-6.5 0-2.6-1.9-3.8-7.9-5.2l-10.5-2.8c-23.6-6.4-24.2-19.8-24.2-26.5 0-11.9 13.4-24.1 32.8-24.1 14.6 0 32.3 6.6 33.2 25.1zM273.3 90.2c35.8 14.3 38.8 47.6 39 56.9 0 19.2-15.3 59.4-69 59.4h-183c-18.9 0-36.4-8.6-48.1-23.9-6.4-8.4-10.5-18.5-11.7-29.1-1.1-9.5 0-18.9 3.2-27.7 2.3-6.3 5.7-12.2 10-17.5 6.9-8.4 15.9-14.7 25.9-18.4 1.9-.7 3-2.5 3.2-4.4.8-9.9 3.1-19.5 7-28.7 4.6-11.1 11.4-21.1 19.9-29.6C78.3 18.7 88.2 12 99.3 7.3 110.7 2.5 122.9 0 135.5 0H158c45 0 67.7 10.5 84.4 27.3 8.5 8.6 15.2 18.5 19.9 29.6 3.8 8.9 6.1 18.3 7 27.9.2 2.4 1.7 4.5 4 5.4zm-15.7 56.2c0-10.8-3.8-21.4-10.6-29.7-6.8-8.2-16.1-13.9-26.4-16.1-3.1-.7-5.4-3.4-5.4-6.6v-1c0-10.7-2.1-21.2-6.3-31-4-9.4-9.8-18-17.1-25.3S176 23.6 166.5 19.6c-9.8-4.2-20.2-6.3-31-6.3-10.7 0-21.2 2.1-31 6.3-9.4 4-18 9.8-25.3 17.1C71.9 44 66.1 52.5 62.1 62c-4.2 9.8-6.3 20.2-6.3 31v.9c0 3.3-2.3 6-5.5 6.7-10.3 2.2-19.6 7.9-26.3 16.1-6.8 8.4-10.6 18.9-10.6 29.7 0 14.3 6.4 27.7 17.8 36.8 8.4 6.7 19.1 10 29.9 10h148.8c10.8 0 21.5-3.3 29.9-10 11.4-9.1 17.8-22.5 17.8-36.8z"/><path class="st0" d="M197.2 106.7c2.9 2.3 3.3 6.5 1 9.4l-8.9 11c-2 2.4-2 6 0 8.4l8.9 11c2.3 2.9 1.9 7.1-1 9.4-1.2 1-2.7 1.5-4.2 1.5-1.9 0-3.9-.9-5.2-2.5l-8.9-11c-2.9-3.5-4.5-8-4.5-12.6s1.6-9 4.5-12.6l8.9-11c2.3-2.9 6.5-3.3 9.4-1zM154.7 151.6c3.2 1.8 4.3 5.9 2.4 9.1-5.4 9.5-15.7 15.4-26.6 15.4s-21.1-5.9-26.6-15.4c-1.9-3.2-.8-7.3 2.4-9.1 3.2-1.9 7.3-.8 9.1 2.4 3.1 5.4 8.9 8.7 15.1 8.7s12-3.3 15.1-8.7c1.8-3.2 5.9-4.3 9.1-2.4zM79.6 106.7c2.9 2.3 3.3 6.5 1 9.4l-8.9 11c-2 2.4-2 6 0 8.4l8.9 11c2.3 2.9 1.9 7.1-1 9.4-1.2 1-2.7 1.5-4.2 1.5-1.9 0-3.9-.9-5.2-2.5l-8.9-11c-2.9-3.5-4.5-8-4.5-12.6s1.6-9 4.5-12.6l8.9-11c2.3-2.9 6.5-3.3 9.4-1z"/></g></g></g></svg>