<svg version="1.1" id="Layer_1" xmlns="http://www.w3.org/2000/svg" x="0" y="0" viewBox="0 0 312.8 52.8" xml:space="preserve"><style>.st3{fill:#fff}</style><path d="M15.6 6.8l11.7 41.9c.8 2.8 3.8 4.5 6.6 3.7 2.9-.8 4.6-3.7 3.8-6.5L26 4c-.8-2.8-3.8-4.5-6.6-3.7-2.9.8-4.6 3.7-3.8 6.5z" fill="#f96216"/><path d="M37.3 6.5L7.9 38.9c-2 2.2-1.8 5.5.5 7.5 2.2 1.9 5.6 1.7 7.6-.5l29.3-32.4c2-2.2 1.8-5.5-.5-7.5-2.1-1.9-5.6-1.7-7.5.5z" fill="#b200f8"/><path d="M4 24.6l41.8 13.5c2.8.9 5.9-.6 6.8-3.4.9-2.8-.6-5.8-3.4-6.7L7.4 14.5c-2.8-.9-5.9.6-6.8 3.4-.9 2.8.6 5.8 3.4 6.7z" fill="#00b4f2"/><path class="st3" d="M82.5 32.5c0-1-.4-1.8-1.1-2.4-.7-.6-1.6-1.1-2.7-1.6s-2.2-1-3.5-1.5c-1.2-.5-2.4-1.2-3.5-1.9-1.1-.8-1.9-1.8-2.7-2.9-.7-1.1-1-2.6-1-4.4 0-1.5.3-2.9.8-4s1.2-2.1 2.2-2.9c1-.8 2.1-1.3 3.4-1.7 1.3-.4 2.7-.5 4.3-.5 1.8 0 3.6.2 5.2.5s3 .8 4 1.4L86 15.8c-.7-.4-1.7-.8-3-1.1-1.3-.4-2.8-.5-4.3-.5-1.4 0-2.6.3-3.4.9-.8.6-1.1 1.3-1.1 2.3 0 .9.3 1.7 1 2.3.7.6 1.6 1.2 2.7 1.7s2.3 1 3.5 1.6c1.3.5 2.4 1.2 3.5 2s2 1.7 2.7 2.9c.7 1.1 1.1 2.5 1.1 4.2 0 1.7-.3 3.2-.9 4.4-.5 1.2-1.3 2.2-2.4 3-1 .8-2.2 1.4-3.7 1.8-1.4.4-3 .6-4.7.6-2.3 0-4.3-.2-6-.6-1.7-.4-3-.8-3.8-1.3l2-5.3c.3.2.8.4 1.3.6.5.2 1.1.4 1.8.6.7.2 1.4.3 2.1.5.8.1 1.5.2 2.3.2 1.8 0 3.2-.3 4.2-.9 1.1-.9 1.6-1.9 1.6-3.2zM112.8 24.8c-.4-1.5-1.1-2.7-1.9-3.8-.9-1.1-2-1.9-3.3-2.4-1.3-.6-2.9-.9-4.7-.9-3.4 0-6 1-7.9 3.1-1.9 2.1-2.8 5-2.8 8.8 0 1.8.2 3.4.6 4.9.5 1.5 1.1 2.7 2 3.8.9 1 2 1.8 3.4 2.4 1.3.6 2.9.9 4.7.9 3.4 0 6-1 7.8-3.1 1.9-2.1 2.8-5 2.8-8.9 0-1.7-.2-3.3-.7-4.8zM106.3 35c-.8 1.1-1.9 1.7-3.4 1.7-.8 0-1.5-.2-2.1-.5-.6-.4-1-.9-1.4-1.5-.4-.6-.6-1.4-.8-2.2-.2-.8-.3-1.8-.3-2.8 0-2.5.4-4.3 1.2-5.3s1.9-1.6 3.4-1.6c1.7 0 2.8.6 3.5 1.9.7 1.3 1 2.9 1 5 0 2.4-.3 4.2-1.1 5.3zM123.9 18.4v12.9c0 1.8.2 3.2.6 4 .5.8 1.3 1.2 2.6 1.2 1.1 0 2-.3 2.8-1 .8-.7 1.3-1.5 1.7-2.4V18.4h5.9v15.8c0 1.2.1 2.5.2 3.7.1 1.2.3 2.3.5 3.2h-4.4l-1-3.4h-.2c-.7 1.1-1.7 2.1-2.9 2.9-1.2.8-2.7 1.1-4.4 1.1-1.1 0-2.2-.2-3.1-.5-.9-.3-1.7-.8-2.3-1.5-.6-.7-1.1-1.6-1.4-2.8-.3-1.2-.5-2.7-.5-4.4V18.4h5.9zM156.3 23.9c-.9-.3-1.8-.5-2.5-.5-1.1 0-1.9.3-2.7.9-.7.5-1.2 1.3-1.4 2.1V41h-5.9V18.4h4.6l.7 3h.2c.5-1.1 1.2-2 2.1-2.6.9-.6 1.9-.9 3.1-.9.8 0 1.7.2 2.7.5l-.9 5.5zM176.3 39.6c-.9.7-2 1.2-3.3 1.5-1.3.4-2.6.5-3.9.5-1.8 0-3.4-.3-4.6-.9-1.2-.6-2.3-1.4-3-2.4-.8-1.1-1.4-2.3-1.7-3.8-.3-1.5-.5-3.1-.5-4.9 0-3.8.9-6.8 2.6-8.8 1.7-2.1 4.2-3.1 7.5-3.1 1.7 0 3 .1 4 .4 1 .3 1.9.6 2.8 1l-1.4 4.8c-.7-.3-1.4-.6-2.1-.8-.7-.2-1.4-.3-2.3-.3-1.6 0-2.9.5-3.7 1.6-.8 1.1-1.3 2.8-1.3 5.1 0 1 .1 1.9.3 2.7.2.8.5 1.5 1 2.1.4.6 1 1.1 1.6 1.4.7.3 1.5.5 2.4.5 1 0 1.8-.1 2.5-.4.7-.3 1.3-.6 1.9-1l1.2 4.8zM197.8 22.5c-.5-1.2-1.2-2.1-2-2.8-.8-.7-1.8-1.2-2.9-1.5-1.1-.3-2.2-.5-3.4-.5-3.4 0-6.1 1-8 3-1.9 2-2.9 5-2.9 9 0 3.7.8 6.6 2.5 8.8 1.7 2.1 4.4 3.2 8 3.2 1.8 0 3.4-.2 4.9-.7 1.6-.5 2.8-1.1 3.7-1.9l-1.9-3.9c-.5.4-1.3.8-2.3 1.2-1 .4-2.1.5-3.3.5-2 0-3.4-.5-4.3-1.4-.9-1-1.4-2.4-1.4-4.3h13.6c.2-.8.3-1.5.3-2.3.1-.7.1-1.4.1-2 .1-1.7-.2-3.2-.7-4.4zm-4.7 5.1h-8.4c.2-1.5.6-2.8 1.3-3.7.8-.9 1.9-1.4 3.4-1.4 1.3 0 2.3.4 2.9 1.3.7.9.9 2.1.8 3.8zM219.1 18.3c-1.5-.3-3.2-.4-5.2-.4-3.7 0-6.5 1-8.4 3.1s-2.9 5.1-2.9 9.2c0 3.9.7 6.7 2.1 8.5 1.4 1.8 3.6 2.7 6.6 2.7 2.7 0 4.6-.7 5.6-2.1h.2v1.4c0 1.6-.4 2.8-1.1 3.7-.7.9-2.1 1.4-4.2 1.4-1.4 0-2.5-.1-3.4-.4-.9-.3-1.7-.5-2.4-.8l-1.2 4.7c.6.3 1.6.6 2.8 1 1.3.3 3 .5 5.2.5 3.2 0 5.7-.8 7.5-2.4 1.8-1.5 2.7-4 2.7-7.2v-22c-1.1-.3-2.3-.7-3.9-.9zM217 33.6c-.3 1-.8 1.8-1.4 2.3-.6.5-1.5.8-2.6.8-1.4 0-2.4-.6-3.1-1.7-.7-1.1-1.1-2.8-1.1-5 0-2.5.4-4.3 1.3-5.4.8-1.1 2-1.7 3.5-1.7 1.4 0 2.6.2 3.5.6v10.1zM240.5 23.9c-.9-.3-1.8-.5-2.5-.5-1.1 0-1.9.3-2.7.9-.7.5-1.2 1.3-1.4 2.1V41H228V18.4h4.6l.7 3h.2c.5-1.1 1.2-2 2.1-2.6.9-.6 1.9-.9 3.1-.9.8 0 1.7.2 2.7.5l-.9 5.5zM262.5 37.7c-.1-1.2-.1-2.5-.1-3.8 0-1.3.1-2.6.2-3.9.1-1.4.1-2.7.1-4 0-1.2-.1-2.3-.4-3.3-.2-1-.7-1.8-1.3-2.5-.6-.7-1.4-1.2-2.5-1.6-1.1-.4-2.4-.6-3.9-.6-1.8 0-3.5.2-5.2.5-1.7.3-3.1.7-4.3 1.3l1.4 4.4c.8-.4 1.9-.7 3.2-1 1.3-.2 2.6-.4 3.8-.4 1.6 0 2.6.4 3 1.1.5.7.6 1.9.4 3.6-2-.1-3.8 0-5.4.2-1.6.2-3 .6-4.2 1.2-1.1.6-2 1.3-2.7 2.3-.6.9-.9 2.1-.9 3.5 0 1 .2 1.9.5 2.7.3.8.8 1.5 1.4 2.1.6.6 1.3 1 2.2 1.4.8.3 1.8.5 2.9.5 1.7 0 3.1-.3 4.1-1 1.1-.7 1.9-1.5 2.5-2.4h.2l1 3.1h4.8c-.5-1.1-.7-2.2-.8-3.4zm-6.3-3.6c-.3.6-.8 1.2-1.5 1.7s-1.6.8-2.8.8c-.9 0-1.6-.2-2.1-.7-.5-.5-.7-1.1-.7-2 0-.6.2-1.1.6-1.5.4-.4.9-.7 1.6-.9.7-.2 1.4-.3 2.3-.4.9-.1 1.8 0 2.7 0v3zM285.8 20.5c-1.4-1.8-3.5-2.7-6.4-2.7-1.5 0-2.9.3-3.9.8-1.1.5-2 1.4-2.8 2.5h-.2l-.7-2.7h-4.3v31.7h5.9v-9.3c.6.3 1.2.5 1.8.6.6.2 1.4.2 2.3.2 1.7 0 3.1-.3 4.4-.9 1.3-.6 2.4-1.4 3.3-2.5.9-1.1 1.6-2.4 2-3.9.5-1.6.7-3.3.7-5.3.1-3.9-.6-6.7-2.1-8.5zm-5.2 14.4c-.8 1.2-2.1 1.8-3.8 1.8-.8 0-1.5-.1-2-.3-.5-.2-.9-.5-1.4-.8v-9.4c.4-1.1.9-2 1.5-2.6.7-.6 1.6-.9 2.7-.9 1.5 0 2.6.5 3.2 1.6s1 2.6 1 4.6c.1 2.8-.3 4.8-1.2 6zM306.5 41.1V28.2c0-1.8-.3-3.2-.8-4-.5-.8-1.4-1.2-2.8-1.2-1 0-1.9.3-2.8 1-.8.7-1.4 1.5-1.6 2.6v14.5h-5.9V9.3h5.9v11.6h.2c.7-1 1.6-1.7 2.7-2.3 1.1-.6 2.4-.9 4-.9 1.1 0 2.2.2 3 .5s1.6.8 2.2 1.5c.6.7 1 1.6 1.3 2.9.3 1.2.5 2.6.5 4.4v14.1h-5.9z"/></svg>