<svg width="223" height="82" viewBox="0 0 223 82" fill="none" xmlns="http://www.w3.org/2000/svg">
<path d="M46.5751 40.0129C45.6712 39.3517 44.6134 38.7843 43.401 38.3111C42.1883 37.8392 40.7494 37.4135 39.0854 37.0347C38.6094 36.9403 38.1223 36.8574 37.6231 36.7866C37.124 36.7158 36.6122 36.6336 36.0896 36.5382C35.3764 36.3499 34.7217 36.0307 34.1282 35.581C33.5327 35.1324 33.2363 34.5065 33.2363 33.702C33.2363 33.0405 33.5451 32.379 34.1633 31.7166C34.7809 31.0551 35.5901 30.7239 36.5887 30.7239C37.5873 30.7239 38.5257 30.9842 39.4062 31.5037C40.2857 32.0245 40.8688 32.709 41.1542 33.56L48.7861 31.0075C48.4051 29.7308 47.8233 28.5731 47.0388 27.5328C46.2539 26.4935 45.3146 25.595 44.2213 24.838C43.1264 24.0824 41.914 23.4908 40.5832 23.0654C39.2517 22.6401 37.8483 22.4272 36.375 22.4272C34.615 22.4272 32.9623 22.7352 31.4177 23.3491C29.8715 23.964 28.5163 24.7795 27.3517 25.7955C26.1859 26.8125 25.2706 28.0058 24.6052 29.3766C23.9391 30.7481 23.6069 32.1895 23.6069 33.702C23.6069 34.2694 23.6424 35.026 23.7136 35.9711C23.7849 36.9173 24.1295 37.91 24.748 38.9493C25.3653 39.9896 26.3531 41.0179 27.7084 42.0339C29.0636 43.0512 31.025 43.8667 33.5933 44.4803C34.4012 44.7174 35.1144 44.8471 35.733 44.8704C36.3502 44.8946 37.1351 45.0952 38.0868 45.473C38.7522 45.7101 39.346 46.0294 39.8699 46.4305C40.3928 46.8325 40.6547 47.2702 40.6547 47.7421C40.6547 48.4046 40.2734 49.1136 39.5133 49.8696C38.7522 50.6262 37.5629 51.004 35.9468 51.004C34.3778 51.004 33.1406 50.7093 32.2377 50.1177C31.3338 49.527 30.6684 48.8768 30.2405 48.1675C29.2419 48.6883 28.076 49.2666 26.7452 49.9051C25.4134 50.543 24.2007 51.1227 23.1074 51.6422C23.5353 52.7766 24.1883 53.8049 25.0688 54.7267C25.9484 55.6486 26.9824 56.4408 28.172 57.1023C29.36 57.7648 30.656 58.2846 32.0594 58.6624C33.4615 59.0402 34.9003 59.2297 36.375 59.2297C38.324 59.2297 40.1556 58.9338 41.8674 58.3431C43.5793 57.7525 45.077 56.9373 46.361 55.8967C47.6453 54.8574 48.655 53.6522 49.3926 52.2804C50.1293 50.9098 50.4983 49.4439 50.4983 47.8838C50.4983 44.4803 49.1899 41.8566 46.5751 40.0129Z" fill="#8E8787"/>
<path d="M105.707 5.66546C104.181 5.66546 102.895 6.19821 101.847 7.26404C100.799 8.32986 100.275 9.62082 100.275 11.1363C100.275 12.6527 100.799 13.9313 101.847 14.9726C102.895 16.0151 104.181 16.5356 105.707 16.5356C107.231 16.5356 108.517 16.0151 109.566 14.9726C110.613 13.9313 111.138 12.6527 111.138 11.1363C111.138 9.62082 110.613 8.32986 109.566 7.26404C108.517 6.19821 107.231 5.66546 105.707 5.66546Z" fill="#8E8787"/>
<path d="M78.8139 23.2782L71.6811 48.7348L64.334 23.2782H54.2051L64.8334 58.4495H77.2449L82.3804 41.502L82.9511 36.4676L83.4503 41.502L88.5861 58.4495H91.3262L94.1375 48.8321L87.0168 23.2782H78.8139Z" fill="#8E8787"/>
<path d="M113.529 33.8382L114.978 38.8384L117.887 48.8765L117.9 48.8322L120.711 58.4496H110.968L105.68 40.9493L100.34 23.2783H110.469L113.529 33.8382Z" fill="#8E8787"/>
<path d="M198.965 30.6529C198.156 28.7625 197.122 27.2733 195.862 26.1855C194.602 25.0986 193.234 24.3417 191.761 23.9163C190.286 23.491 188.908 23.2781 187.624 23.2781C186.672 23.2781 185.685 23.3858 184.663 23.6006C183.64 23.8154 182.654 24.1492 181.703 24.6011C180.751 25.0543 179.872 25.6259 179.064 26.3174C178.255 27.0087 177.566 27.8063 176.995 28.7117C176.329 27.6637 175.58 26.7939 174.749 26.1023C174.576 25.9594 174.402 25.8254 174.226 25.6935V25.708C173.132 24.8754 171.963 24.276 170.718 23.9163C169.243 23.491 167.864 23.2781 166.58 23.2781C165.629 23.2781 164.642 23.3858 163.62 23.6006C162.597 23.8154 161.611 24.1492 160.66 24.6011C159.708 25.0543 158.829 25.6259 158.021 26.3174C157.212 27.0087 156.523 27.8063 155.952 28.7117C155.286 27.6637 154.537 26.7939 153.705 26.1023C153.533 25.9594 153.359 25.8254 153.183 25.6935C152.511 25.1885 151.818 24.7628 151.102 24.4226C150.198 23.994 149.27 23.6957 148.32 23.5288C147.368 23.3626 146.465 23.2781 145.609 23.2781C143.944 23.2781 142.387 23.565 140.937 24.1366C139.486 24.7088 138.214 25.5185 137.121 26.5668L135.694 23.2781H127.277V58.4497H137.121V39.85C137.121 37.163 137.667 35.1833 138.762 33.9102C139.855 32.6373 141.091 32.0001 142.471 32.0001C144.372 32.0001 145.823 32.5665 146.822 33.6977C147.82 34.8298 148.32 36.833 148.32 39.7083V58.4497H153.183H158.163V39.6385C158.163 38.1295 158.317 36.8806 158.627 35.8904C158.936 34.8997 159.351 34.122 159.875 33.5557C160.398 32.9906 160.992 32.5895 161.659 32.3537C162.324 32.1185 162.989 32.0001 163.656 32.0001C164.369 32.0001 165.07 32.1295 165.76 32.3889C166.449 32.6483 167.055 33.0847 167.579 33.6977C168.102 34.3116 168.517 35.1125 168.827 36.102C169.136 37.0925 169.291 38.2945 169.291 39.7083V58.4497H174.226H179.135H179.207V39.6385C179.207 38.1295 179.361 36.8806 179.67 35.8904C179.979 34.8997 180.395 34.122 180.919 33.5557C181.442 32.9906 182.036 32.5895 182.702 32.3537C183.367 32.1185 184.032 32.0001 184.699 32.0001C185.413 32.0001 186.113 32.1295 186.803 32.3889C187.492 32.6483 188.098 33.0847 188.622 33.6977C189.145 34.3116 189.561 35.1125 189.87 36.102C190.18 37.0925 190.334 38.2945 190.334 39.7083V58.4497H200.178V37.8856C200.178 34.955 199.773 32.5442 198.965 30.6529Z" fill="#8E8787"/>
</svg>
