<svg width="130" height="24" viewBox="0 0 121 22" fill="none" xmlns="http://www.w3.org/2000/svg"><circle class="dot dot-a1" opacity=".2" cx="3.4" cy="3.25" r="2.7" fill="#8E8787"/><circle class="dot dot-a2" cx="3.4" cy="11.3" r="2.7" fill="#8E8787"/><circle class="dot dot-a3" opacity=".2" cx="3.4" cy="19.5" r="2.7" fill="#8E8787"/><circle class="dot dot-b1" cx="11.5" cy="11.3" r="2.7" fill="#8E8787"/><circle class="dot dot-b2" cx="11.5" cy="19.5" r="2.7" fill="#8E8787"/><circle class="dot dot-b3" opacity=".2" cx="11.5" cy="3.25" r="2.7" fill="#8E8787"/><circle class="dot dot-c1" opacity=".2" cx="19.5" cy="3.25" r="2.7" fill="#8E8787"/><circle class="dot dot-c2" cx="19.5" cy="11.3" r="2.7" fill="#8E8787"/><circle class="dot dot-c3" opacity=".2" cx="19.5" cy="19.5" r="2.7" fill="#8E8787"/><path d="M38.413 20.1a10.5 10.5 0 0 0 2.122-.216V17.12c-.453.167-.953.214-1.43.214-1.168 0-1.597-.572-1.597-1.668v-5.627h3.027V7.272h-3.027v-4.1H34.17v4.1H32v2.766h2.17v5.936c0 2.623 1.383 4.125 4.243 4.125Zm7.574 0c1.788 0 2.98-.597 3.576-1.527.048.405.19.954.381 1.288h3.005c-.167-.573-.287-1.479-.287-2.075v-6.532c0-2.694-1.93-4.22-5.197-4.22-2.48 0-4.41.93-5.484 2.289l1.908 1.883c.858-.954 1.955-1.454 3.29-1.454 1.621 0 2.336.548 2.336 1.359 0 .691-.477 1.168-3.051 1.168-2.48 0-4.983 1.025-4.983 3.886 0 2.647 1.907 3.934 4.506 3.934Zm.667-2.528c-1.287 0-1.883-.549-1.883-1.526 0-.858.715-1.43 1.907-1.43 1.907 0 2.432-.12 2.837-.525v1.025c0 1.36-1.144 2.456-2.86 2.456Zm8.178-11.897h3.481V2.55h-3.48v3.124Zm.072 14.186h3.338V7.272h-3.338v12.589Zm5.769-.001h3.338V2.934h-3.338V19.86Zm10.276.24c3.672 0 5.555-1.932 5.555-3.959 0-1.835-.93-3.194-3.981-3.743-2.146-.381-3.481-.858-3.481-1.597 0-.644.763-1.097 2.05-1.097 1.145 0 2.098.381 2.813 1.216l2.122-1.788c-1.073-1.335-2.837-2.098-4.935-2.098-3.219 0-5.221 1.716-5.221 3.814 0 2.29 2.098 3.314 4.363 3.72 1.883.334 2.932.691 2.932 1.502 0 .691-.739 1.263-2.145 1.263-1.383 0-2.456-.643-2.957-1.597l-2.813 1.335c.691 1.717 3.052 3.028 5.698 3.028Zm13.017 0c2.385 0 4.101-.955 5.389-3.1l-2.67-1.36c-.501 1.002-1.312 1.693-2.719 1.693-2.121 0-3.266-1.716-3.266-3.79 0-2.075 1.216-3.744 3.266-3.744 1.288 0 2.146.692 2.647 1.74l2.694-1.43c-.906-1.979-2.694-3.075-5.34-3.075-4.364 0-6.605 3.195-6.605 6.509 0 3.6 2.718 6.556 6.605 6.556Zm10.706 0c1.788 0 2.98-.597 3.576-1.527.048.405.19.954.381 1.288h3.005c-.167-.573-.286-1.479-.286-2.075v-6.532c0-2.694-1.932-4.22-5.198-4.22-2.48 0-4.41.93-5.484 2.289l1.908 1.883c.858-.954 1.955-1.454 3.29-1.454 1.621 0 2.336.548 2.336 1.359 0 .691-.477 1.168-3.051 1.168-2.48 0-4.983 1.025-4.983 3.886 0 2.647 1.907 3.934 4.506 3.934Zm.667-2.528c-1.287 0-1.883-.549-1.883-1.526 0-.858.715-1.43 1.907-1.43 1.907 0 2.432-.12 2.837-.525v1.025c0 1.36-1.144 2.456-2.86 2.456Zm7.97 2.288h3.338V2.934h-3.338V19.86Zm11.349.24c2.456 0 4.435-.978 5.531-2.719l-2.527-1.621c-.667 1.049-1.55 1.621-3.004 1.621-1.645 0-2.837-.906-3.147-2.67H121v-1.168c0-3.314-2.027-6.51-6.366-6.51-4.124 0-6.366 3.22-6.366 6.533 0 4.721 3.553 6.533 6.39 6.533Zm-3.028-8.012c.525-1.597 1.621-2.336 3.076-2.336 1.645 0 2.646.977 2.98 2.336h-6.056Z" fill="#8E8787"/></svg>