<svg width="123" height="43" viewBox="0 0 123 43" fill="none" xmlns="http://www.w3.org/2000/svg">
<path d="M7.0766 30.71C7.59638 32.0992 8.31601 33.2869 9.23562 34.2732C10.1552 35.2597 11.2447 36.0146 12.504 36.538C13.7635 37.0615 15.1328 37.3231 16.6121 37.3231C18.0515 37.3231 19.4008 37.0513 20.6603 36.5077C21.9197 35.9641 23.0191 35.1992 23.9586 34.2128C24.8981 33.2264 25.6279 32.0488 26.1476 30.6798C26.6674 29.3109 26.9273 27.7811 26.9273 26.09V0H33.2242V42.2753H26.9872V38.3497C25.5879 39.8393 23.9386 40.9868 22.0395 41.7922C20.1403 42.5974 18.0915 43 15.8925 43C13.6535 43 11.5645 42.6074 9.62536 41.8223C7.68636 41.0372 6.00704 39.92 4.58782 38.4705C3.1686 37.021 2.04901 35.2799 1.22946 33.2465C0.409776 31.2133 0 28.9486 0 26.4522V0H6.29699V26.09C6.29699 27.7811 6.55682 29.3209 7.0766 30.71Z" fill="#9E9E9E"/>
<path d="M44.0786 0V15.4003C45.4779 13.9911 47.0972 12.8739 48.9363 12.0485C50.7754 11.223 52.7745 10.8104 54.9334 10.8104C57.1724 10.8104 59.2712 11.233 61.2304 12.0785C63.1894 12.924 64.8885 14.0715 66.3279 15.5211C67.7673 16.9706 68.9068 18.6816 69.7464 20.6544C70.586 22.6274 71.0057 24.721 71.0057 26.9355C71.0057 29.1497 70.586 31.2334 69.7464 33.186C68.9068 35.1388 67.7673 36.8399 66.3279 38.2892C64.8885 39.7387 63.1894 40.8862 61.2304 41.7317C59.2712 42.5772 57.1723 42.9999 54.9334 42.9999C52.7744 42.9999 50.7654 42.5872 48.9063 41.7618C47.0472 40.9364 45.4179 39.8191 44.0186 38.41V42.2752H38.0215V0H44.0786ZM44.7682 31.1025C45.3079 32.391 46.0576 33.5183 47.0172 34.4846C47.9767 35.4509 49.0962 36.216 50.3756 36.7797C51.655 37.3433 53.0343 37.6251 54.5137 37.6251C55.953 37.6251 57.3123 37.3433 58.5916 36.7797C59.871 36.216 60.9804 35.4511 61.9201 34.4846C62.8597 33.5185 63.6093 32.391 64.169 31.1025C64.7287 29.8142 65.0086 28.4252 65.0086 26.9355C65.0086 25.4457 64.7287 24.0466 64.169 22.738C63.6093 21.4295 62.8597 20.2922 61.9201 19.3259C60.9805 18.3597 59.8711 17.6047 58.5916 17.0612C57.3122 16.5177 55.9529 16.2458 54.5137 16.2458C53.0744 16.2458 51.715 16.5176 50.4357 17.0612C49.1563 17.6048 48.0369 18.3597 47.0772 19.3259C46.1178 20.2922 45.358 21.4295 44.7983 22.738C44.2386 24.0466 43.9587 25.4457 43.9587 26.9355C43.9586 28.4252 44.2285 29.8142 44.7682 31.1025Z" fill="#9E9E9E"/>
<path d="M74.4234 20.715C75.223 18.7824 76.3226 17.0814 77.7218 15.6119C79.121 14.1423 80.7804 12.9848 82.6995 12.1393C84.6186 11.2938 86.6976 10.8711 88.9365 10.8711C91.1355 10.8711 93.1746 11.2737 95.0537 12.0789C96.9327 12.8841 98.5519 14.0014 99.9113 15.4308C101.271 16.86 102.33 18.5511 103.09 20.5038C103.849 22.4565 104.229 24.5804 104.229 26.8754V28.8684H79.3412C79.5411 30.1165 79.941 31.274 80.5406 32.3408C81.1404 33.4077 81.8899 34.3338 82.7895 35.1189C83.6891 35.9041 84.7086 36.5182 85.8481 36.9609C86.9876 37.4038 88.1969 37.6253 89.4764 37.6253C93.1147 37.6253 96.0533 36.1154 98.2922 33.0957L102.67 36.3569C101.151 38.4103 99.2718 40.0208 97.0329 41.1884C94.7939 42.3559 92.2751 42.9398 89.4765 42.9398C87.1975 42.9398 85.0686 42.537 83.0895 41.7319C81.1104 40.9267 79.3913 39.7993 77.932 38.3498C76.4727 36.9002 75.3233 35.1992 74.4837 33.2466C73.6441 31.2939 73.2242 29.17 73.2242 26.8751C73.224 24.701 73.6239 22.6476 74.4234 20.715ZM82.8495 18.3294C81.1503 19.7588 80.0208 21.6611 79.4611 24.0366H98.1123C97.5925 21.6611 96.483 19.7588 94.7838 18.3294C93.0846 16.9002 91.0956 16.1855 88.8167 16.1855C86.5377 16.1855 84.5487 16.9002 82.8495 18.3294Z" fill="#9E9E9E"/>
<path d="M115.563 19.0232C114.284 20.4324 113.644 22.3448 113.644 24.7606V42.2748H107.587V11.4742H113.584V15.279C114.344 14.0308 115.333 13.0444 116.553 12.3197C117.772 11.5948 119.222 11.2324 120.901 11.2324H123V16.9094H120.481C118.482 16.9095 116.843 17.6141 115.563 19.0232Z" fill="#9E9E9E"/>
</svg>
