<svg version="1.1" id="Layer_1" xmlns="http://www.w3.org/2000/svg" x="0" y="0" viewBox="0 0 883.7 171"
	style="enable-background:new 0 0 883.7 171" xml:space="preserve">
	<style>
		.st {
			fill: #8E8787;
		}
	</style>
	<path class="st"
		d="M257 27.3h24.3l17.5 72.1c3.2 13.6 3.9 21.7 3.9 21.7h.3s1.1-7.9 4.4-21.7l16.7-72.1h27.6l17.7 72.1c3.4 14.1 4.2 21.7 4.2 21.7h.5s.3-7.6 3.6-21.7l16.9-72.1h24.3L388 145.6h-27.1l-18.6-71.7c-3.9-15.6-4.2-22.5-4.2-22.5h-.3s-.3 7-3.9 22.5l-17.5 71.7h-27.9L257 27.3zM414.7 102.6c0-27.1 17.5-44.6 43.9-44.6 26.3 0 43.8 17.5 43.8 44.6 0 27.2-17.5 44.9-43.8 44.9-26.4 0-43.9-17.7-43.9-44.9zm65 0c0-17.5-8.4-27.4-21.1-27.4-13.6 0-21.2 11-21.2 27.4 0 17.8 8.4 27.7 21.2 27.7 13.7 0 21.1-11 21.1-27.7zM513.3 59.4h21.6v15.9h.5C539 67 548 58.7 563.2 58.7c2.6 0 4.2.3 5.3.6v21.6h-.6s-1.9-.6-7.3-.6c-16.7 0-25.8 9.9-25.8 28.4v37h-21.6V59.4zM578.6 27.3h21.6v37.9c0 22.4-.3 26.4-.3 26.4h.3l32.1-32.3h26.9l-37.6 37.3 43.6 49h-25.5l-31.5-35.7-8.1 7.9v27.7h-21.6V27.3zM665.5 86.9c0-36.5 22.7-60.8 56.7-60.8s56.7 24.3 56.7 60.8-22.7 60.8-56.7 60.8c-34-.1-56.7-24.4-56.7-60.8zm90 0c0-24.8-13.3-41.5-33.2-41.5-19.9 0-33.2 16.7-33.2 41.5s13.3 41.5 33.2 41.5c19.9 0 33.2-16.7 33.2-41.5zM787.2 106.2h24.6c0 13.9 9.6 21.7 24.2 21.7 12.3 0 20.8-6.2 20.8-14.9 0-9.9-6.5-12.5-27.1-16.5-18.8-3.8-38.7-10.1-38.7-34.7 0-20.6 17.5-36.1 44.3-36.1 27.9 0 45.1 14.6 45.1 36.6h-24.6c0-10.7-8.3-17.3-20.4-17.3-12.3 0-19.9 6-19.9 14.7 0 9.2 5.3 12.8 21.9 16.2 24.5 5.2 44.6 7.9 44.6 35.2 0 21.6-18.8 36.2-46.5 36.2-28.5-.1-48.3-16.5-48.3-41.1zM1.7 85.9c0 3.7 1 7.4 2.8 10.5l33.9 58.8c3.5 6 8.8 10.9 15.4 13.1 13 4.3 26.4-1.2 32.8-12.3l8.2-14.2-32.3-55.9 34.1-59.2 8.2-14.2c2.5-4.3 5.7-7.7 9.6-10.5H61.8c-9.2 0-17.7 4.9-22.3 12.9L4.6 75.4c-1.9 3.1-2.9 6.8-2.9 10.5z" />
	<path class="st"
		d="M195.3 85.9c0-3.7-1-7.4-2.8-10.5l-34.4-59.6c-6.4-11-19.8-16.6-32.8-12.3-6.6 2.2-11.9 7.1-15.4 13.1L102.2 30l32.3 55.9-34.1 59.1-8.2 14.2c-2.5 4.2-5.7 7.7-9.6 10.5h52.6c9.2 0 17.7-4.9 22.3-12.9l34.9-60.5c1.9-3.1 2.9-6.7 2.9-10.4z" />
	<path
		class="st"
		d="M257 27.3h24.3l17.5 72.1c3.2 13.6 3.9 21.7 3.9 21.7h.3s1.1-7.9 4.4-21.7l16.7-72.1h27.6l17.7 72.1c3.4 14.1 4.2 21.7 4.2 21.7h.5s.3-7.6 3.6-21.7l16.9-72.1h24.3L388 145.6h-27.1l-18.6-71.7c-3.9-15.6-4.2-22.5-4.2-22.5h-.3s-.3 7-3.9 22.5l-17.5 71.7h-27.9L257 27.3zM414.7 102.6c0-27.1 17.5-44.6 43.9-44.6 26.3 0 43.8 17.5 43.8 44.6 0 27.2-17.5 44.9-43.8 44.9-26.4 0-43.9-17.7-43.9-44.9zm65 0c0-17.5-8.4-27.4-21.1-27.4-13.6 0-21.2 11-21.2 27.4 0 17.8 8.4 27.7 21.2 27.7 13.7 0 21.1-11 21.1-27.7zM513.3 59.4h21.6v15.9h.5C539 67 548 58.7 563.2 58.7c2.6 0 4.2.3 5.3.6v21.6h-.6s-1.9-.6-7.3-.6c-16.7 0-25.8 9.9-25.8 28.4v37h-21.6V59.4zM578.6 27.3h21.6v37.9c0 22.4-.3 26.4-.3 26.4h.3l32.1-32.3h26.9l-37.6 37.3 43.6 49h-25.5l-31.5-35.7-8.1 7.9v27.7h-21.6V27.3zM665.5 86.9c0-36.5 22.7-60.8 56.7-60.8s56.7 24.3 56.7 60.8-22.7 60.8-56.7 60.8c-34-.1-56.7-24.4-56.7-60.8zm90 0c0-24.8-13.3-41.5-33.2-41.5-19.9 0-33.2 16.7-33.2 41.5s13.3 41.5 33.2 41.5c19.9 0 33.2-16.7 33.2-41.5zM787.2 106.2h24.6c0 13.9 9.6 21.7 24.2 21.7 12.3 0 20.8-6.2 20.8-14.9 0-9.9-6.5-12.5-27.1-16.5-18.8-3.8-38.7-10.1-38.7-34.7 0-20.6 17.5-36.1 44.3-36.1 27.9 0 45.1 14.6 45.1 36.6h-24.6c0-10.7-8.3-17.3-20.4-17.3-12.3 0-19.9 6-19.9 14.7 0 9.2 5.3 12.8 21.9 16.2 24.5 5.2 44.6 7.9 44.6 35.2 0 21.6-18.8 36.2-46.5 36.2-28.5-.1-48.3-16.5-48.3-41.1z" />
	<path class="st"
		d="M1.7 85.9c0 3.7 1 7.4 2.8 10.5l33.9 58.8c3.5 6 8.8 10.9 15.4 13.1 13 4.3 26.4-1.2 32.8-12.3l8.2-14.2-32.3-55.9 34.1-59.2 8.2-14.2c2.5-4.3 5.7-7.7 9.6-10.5H61.8c-9.2 0-17.7 4.9-22.3 12.9L4.6 75.4c-1.9 3.1-2.9 6.8-2.9 10.5z" />
	<path class="st"
		d="M195.3 85.9c0-3.7-1-7.4-2.8-10.5l-34.4-59.6c-6.4-11-19.8-16.6-32.8-12.3-6.6 2.2-11.9 7.1-15.4 13.1L102.2 30l32.3 55.9-34.1 59.1-8.2 14.2c-2.5 4.2-5.7 7.7-9.6 10.5h52.6c9.2 0 17.7-4.9 22.3-12.9l34.9-60.5c1.9-3.1 2.9-6.7 2.9-10.4z" />
</svg>